<svg width="16" height="16" viewBox="0 0 16 16" fill="none" xmlns="http://www.w3.org/2000/svg">
<g clip-path="url(#clip0_716_8)">
<path d="M3.61725 7.6516C3.22567 7.65642 3.10478 8.14042 3.13509 8.53085C3.16172 8.8739 3.2732 9.26369 3.61725 9.26828C3.96437 9.27292 4.08638 8.87692 4.1136 8.53085C4.14453 8.13776 4.01153 7.64675 3.61725 7.6516Z" fill="black"/>
<path d="M8.14113 7.69415C7.74408 7.69415 7.61581 8.17662 7.6306 8.57339C7.6445 8.9465 7.76776 9.38174 8.14113 9.38174C8.5145 9.38174 8.63776 8.9465 8.65166 8.57339C8.66645 8.17662 8.53818 7.69415 8.14113 7.69415Z" fill="black"/>
<path d="M12.509 10.3603C12.977 10.6439 12.702 11.3721 12.2963 11.5515C12.4211 11.1493 12.4948 10.7999 12.353 10.7715C12.2112 10.7432 12.1342 10.8966 12.0127 11.1544L11.885 11.0126C12.1261 9.59446 13.3068 9.29665 13.0054 10.2468C13.0054 10.2468 12.9628 10.0057 12.821 10.0483C12.6792 10.0908 12.509 10.3603 12.509 10.3603Z" fill="black"/>
<path d="M2.0573 9.32501C1.93624 9.10708 1.87751 8.97765 1.83039 8.70103L1.80203 7.56651C1.83039 7.36797 2.01475 7.41052 2.04312 7.55233L2.0573 9.32501Z" fill="black"/>
<path d="M4.46814 13.3384C4.2696 13.2816 4.19869 13.5085 4.32633 13.5936C5.38993 14.2176 6.26543 14.0896 7.38951 13.2391C7.48878 13.0973 7.37533 12.9413 7.17679 13.0689C6.11007 13.6234 5.51663 13.7013 4.46814 13.3384Z" fill="black"/>
<path fill-rule="evenodd" clip-rule="evenodd" d="M11.3887 12.7853C13.0337 13.1256 13.9981 12.0762 14.0832 9.97733C14.5011 9.34693 14.5684 8.90513 14.4519 7.99193C14.622 2.19175 7.98514 -1.24015 3.10673 2.6739C1.40496 3.09936 0.667525 5.8931 1.77368 6.74399C1.02803 6.99867 0.858274 7.18711 1.10715 7.62324C1.07847 8.73549 1.18469 9.24782 1.68859 9.87809C1.44251 12.333 1.81406 13.4814 3.60308 15.0259C3.89634 15.2523 4.00979 15.3516 4.39723 15.5365L4.86522 15.6925C5.05211 15.7637 5.15736 15.7987 5.34739 15.8343C7.6399 16.2996 9.31819 15.8343 10.7931 13.8063C11.0126 13.4767 11.1435 13.2498 11.3887 12.7853ZM11.1618 12.2038C9.24838 17.9757 0.809374 15.2812 2.14239 10.1617C2.58921 10.327 2.86699 10.3529 3.40453 10.2893C3.42719 10.5877 3.45895 10.6938 3.53217 10.8282C2.00636 11.4522 2.42601 13.154 3.34781 12.4166C3.96858 12.9518 4.33713 12.9339 5.02122 12.4875C5.95347 12.9719 6.47314 12.9936 7.38951 12.4875C9.03456 13.5936 9.09129 10.9559 6.28336 10.7715C6.20457 10.5412 6.05646 10.5197 5.78701 10.6581C4.21288 11.4664 3.75907 10.5588 4.0427 10.0199C4.64925 9.26276 4.82901 8.75803 4.79431 7.67996C5.16181 7.53064 5.33946 7.56639 5.63102 7.73669C5.31903 11.6366 10.2825 11.3104 9.95635 7.89269L10.6654 8.23304C10.4765 9.53429 10.5479 10.0428 11.3887 10.0624C12.2254 8.34649 14.0832 8.63012 13.3741 11.2962C12.821 12.3457 12.286 12.6468 11.1618 12.2038ZM4.34051 7.50979C3.71652 6.87162 2.01475 6.98507 1.47586 7.50979C1.47586 7.50979 1.10714 9.99154 2.92236 9.93481C4.73759 9.87809 4.34051 7.50979 4.34051 7.50979ZM6.14155 7.50979C6.46772 7.05598 8.92111 7.12689 9.3891 7.50979C9.3891 7.50979 9.87126 10.2752 7.71569 10.0766C5.56011 9.87809 6.14155 7.50979 6.14155 7.50979ZM5.82956 7.11271C5.37183 7.02164 5.11176 7.0184 4.63832 7.11271C4.53905 6.21928 3.13509 5.63784 2.18493 6.34691C2.36929 4.92877 7.00662 4.46078 10.6654 6.98507C10.7235 7.23628 10.7268 7.36783 10.6654 7.58069L9.34655 6.92835C8.77929 5.62366 6.75135 5.77965 6.32591 6.78653L5.82956 7.11271ZM12.9345 8.55921C10.4527 4.38987 3.60308 3.70917 1.77368 5.79383C1.85976 4.35211 2.09028 3.75087 3.02163 3.26954C7.94259 1.35505 14.622 5.53857 13.8988 9.43846C13.7289 8.92396 13.5129 8.7254 12.9345 8.55921ZM4.25542 2.41866C8.69421 1.83722 11.8656 3.52918 13.9413 6.75817C13.0621 1.8514 7.37533 0.319804 4.25542 2.41866Z" fill="black"/>
<path fill-rule="evenodd" clip-rule="evenodd" d="M4.32633 13.5936C4.19869 13.5085 4.2696 13.2816 4.46814 13.3384C5.51663 13.7013 6.11007 13.6234 7.17679 13.0689C7.37533 12.9413 7.48878 13.0973 7.38951 13.2391C6.26543 14.0896 5.38993 14.2176 4.32633 13.5936ZM12.2963 11.5515C12.702 11.3721 12.977 10.6439 12.509 10.3603C12.509 10.3603 12.6792 10.0908 12.821 10.0483C12.9628 10.0057 13.0054 10.2468 13.0054 10.2468C13.3068 9.29665 12.1261 9.59446 11.885 11.0126L12.0127 11.1544C12.1342 10.8966 12.2112 10.7432 12.353 10.7715C12.4948 10.7999 12.4211 11.1493 12.2963 11.5515ZM8.14113 7.69415C7.74408 7.69415 7.61581 8.17662 7.6306 8.57339C7.6445 8.9465 7.76776 9.38174 8.14113 9.38174C8.5145 9.38174 8.63776 8.9465 8.65166 8.57339C8.66645 8.17662 8.53818 7.69415 8.14113 7.69415ZM3.13509 8.53085C3.10478 8.14042 3.22567 7.65642 3.61725 7.6516C4.01153 7.64675 4.14453 8.13776 4.1136 8.53085C4.08638 8.87692 3.96437 9.27292 3.61725 9.26828C3.2732 9.26369 3.16172 8.8739 3.13509 8.53085ZM1.83039 8.70103C1.87751 8.97765 1.93624 9.10708 2.0573 9.32501L2.04312 7.55233C2.01475 7.41052 1.83039 7.36797 1.80203 7.56651L1.83039 8.70103Z" fill="black"/>
<path fill-rule="evenodd" clip-rule="evenodd" d="M2.14239 10.1617C0.809374 15.2812 9.24838 17.9757 11.1618 12.2038C12.286 12.6468 12.821 12.3457 13.3741 11.2962C14.0832 8.63012 12.2254 8.34649 11.3887 10.0624C10.5479 10.0428 10.4765 9.53429 10.6654 8.23304L9.95635 7.89269C10.2825 11.3104 5.31903 11.6366 5.63102 7.73669C5.33946 7.56639 5.16181 7.53064 4.79431 7.67996C4.82901 8.75803 4.64925 9.26276 4.0427 10.0199C3.75907 10.5588 4.21288 11.4664 5.78701 10.6581C6.05646 10.5197 6.20457 10.5412 6.28336 10.7715C9.09129 10.9559 9.03456 13.5936 7.38951 12.4875C6.47314 12.9936 5.95347 12.9719 5.02122 12.4875C4.33713 12.9339 3.96858 12.9518 3.34781 12.4166C2.42601 13.154 2.00636 11.4522 3.53217 10.8282C3.45895 10.6938 3.42719 10.5877 3.40453 10.2893C2.86699 10.3529 2.58921 10.327 2.14239 10.1617ZM4.32633 13.5936C4.19869 13.5085 4.2696 13.2816 4.46814 13.3384C5.51663 13.7013 6.11007 13.6234 7.17679 13.0689C7.37533 12.9413 7.48878 13.0973 7.38951 13.2391C6.26543 14.0896 5.38993 14.2176 4.32633 13.5936ZM12.2963 11.5515C12.702 11.3721 12.977 10.6439 12.509 10.3603C12.509 10.3603 12.6792 10.0908 12.821 10.0483C12.9628 10.0057 13.0054 10.2468 13.0054 10.2468C13.3068 9.29665 12.1261 9.59446 11.885 11.0126L12.0127 11.1544C12.1342 10.8966 12.2112 10.7432 12.353 10.7715C12.4948 10.7999 12.4211 11.1493 12.2963 11.5515Z" fill="#E5A55F"/>
<path d="M4.63832 7.11271C5.11176 7.0184 5.37183 7.02164 5.82956 7.11271L6.32591 6.78653C6.75135 5.77965 8.77929 5.62366 9.34655 6.92835L10.6654 7.58069C10.7268 7.36783 10.7235 7.23628 10.6654 6.98507C7.00662 4.46078 2.36929 4.92877 2.18493 6.34691C3.13509 5.63784 4.53905 6.21928 4.63832 7.11271Z" fill="#E5A55F"/>
<path fill-rule="evenodd" clip-rule="evenodd" d="M1.47586 7.50979C2.01475 6.98507 3.71652 6.87162 4.34051 7.50979C4.34051 7.50979 4.73759 9.87809 2.92236 9.93481C1.10714 9.99154 1.47586 7.50979 1.47586 7.50979ZM3.13509 8.53085C3.10478 8.14042 3.22567 7.65642 3.61725 7.6516C4.01153 7.64675 4.14453 8.13776 4.1136 8.53085C4.08638 8.87692 3.96437 9.27292 3.61725 9.26828C3.2732 9.26369 3.16172 8.8739 3.13509 8.53085ZM1.83039 8.70103C1.87751 8.97765 1.93624 9.10708 2.0573 9.32501L2.04312 7.55233C2.01475 7.41052 1.83039 7.36797 1.80203 7.56651L1.83039 8.70103Z" fill="#DDB991"/>
<path fill-rule="evenodd" clip-rule="evenodd" d="M9.3891 7.50979C8.92111 7.12689 6.46772 7.05598 6.14155 7.50979C6.14155 7.50979 5.56011 9.87809 7.71569 10.0766C9.87126 10.2752 9.3891 7.50979 9.3891 7.50979ZM7.6306 8.57339C7.61581 8.17662 7.74408 7.69415 8.14113 7.69415C8.53818 7.69415 8.66645 8.17662 8.65166 8.57339C8.63776 8.9465 8.5145 9.38174 8.14113 9.38174C7.76776 9.38174 7.6445 8.9465 7.6306 8.57339Z" fill="#DDB991"/>
<path d="M1.77368 5.79383C3.60308 3.70917 10.4527 4.38987 12.9345 8.55921C13.5129 8.7254 13.7289 8.92396 13.8988 9.43846C14.622 5.53857 7.94259 1.35505 3.02163 3.26954C2.09028 3.75087 1.85976 4.35211 1.77368 5.79383Z" fill="#E6831A"/>
<path d="M4.25542 2.41866C8.69421 1.83722 11.8656 3.52918 13.9413 6.75817C13.0621 1.8514 7.37533 0.319804 4.25542 2.41866Z" fill="#E6831A"/>
<path d="M3.61725 7.6516C3.22567 7.65642 3.10478 8.14042 3.13509 8.53085C3.16172 8.8739 3.2732 9.26369 3.61725 9.26828C3.96437 9.27292 4.08638 8.87692 4.1136 8.53085C4.14453 8.13776 4.01153 7.64675 3.61725 7.6516Z" stroke="black" stroke-width="0.0283629"/>
<path d="M8.14113 7.69415C7.74408 7.69415 7.61581 8.17662 7.6306 8.57339C7.6445 8.9465 7.76776 9.38174 8.14113 9.38174C8.5145 9.38174 8.63776 8.9465 8.65166 8.57339C8.66645 8.17662 8.53818 7.69415 8.14113 7.69415Z" stroke="black" stroke-width="0.0283629"/>
<path d="M12.509 10.3603C12.977 10.6439 12.702 11.3721 12.2963 11.5515C12.4211 11.1493 12.4948 10.7999 12.353 10.7715C12.2112 10.7432 12.1342 10.8966 12.0127 11.1544L11.885 11.0126C12.1261 9.59446 13.3068 9.29665 13.0054 10.2468C13.0054 10.2468 12.9628 10.0057 12.821 10.0483C12.6792 10.0908 12.509 10.3603 12.509 10.3603Z" stroke="black" stroke-width="0.0283629"/>
<path d="M2.0573 9.32501C1.93624 9.10708 1.87751 8.97765 1.83039 8.70103L1.80203 7.56651C1.83039 7.36797 2.01475 7.41052 2.04312 7.55233L2.0573 9.32501Z" stroke="black" stroke-width="0.0283629"/>
<path d="M4.46814 13.3384C4.2696 13.2816 4.19869 13.5085 4.32633 13.5936C5.38993 14.2176 6.26543 14.0896 7.38951 13.2391C7.48878 13.0973 7.37533 12.9413 7.17679 13.0689C6.11007 13.6234 5.51663 13.7013 4.46814 13.3384Z" stroke="black" stroke-width="0.0283629"/>
<path fill-rule="evenodd" clip-rule="evenodd" d="M11.3887 12.7853C13.0337 13.1256 13.9981 12.0762 14.0832 9.97733C14.5011 9.34693 14.5684 8.90513 14.4519 7.99193C14.622 2.19175 7.98514 -1.24015 3.10673 2.6739C1.40496 3.09936 0.667525 5.8931 1.77368 6.74399C1.02803 6.99867 0.858274 7.18711 1.10715 7.62324C1.07847 8.73549 1.18469 9.24782 1.68859 9.87809C1.44251 12.333 1.81406 13.4814 3.60308 15.0259C3.89634 15.2523 4.00979 15.3516 4.39723 15.5365L4.86522 15.6925C5.05211 15.7637 5.15736 15.7987 5.34739 15.8343C7.6399 16.2996 9.31819 15.8343 10.7931 13.8063C11.0126 13.4767 11.1435 13.2498 11.3887 12.7853ZM11.1618 12.2038C9.24838 17.9757 0.809374 15.2812 2.14239 10.1617C2.58921 10.327 2.86699 10.3529 3.40453 10.2893C3.42719 10.5877 3.45895 10.6938 3.53217 10.8282C2.00636 11.4522 2.42601 13.154 3.34781 12.4166C3.96858 12.9518 4.33713 12.9339 5.02122 12.4875C5.95347 12.9719 6.47314 12.9936 7.38951 12.4875C9.03456 13.5936 9.09129 10.9559 6.28336 10.7715C6.20457 10.5412 6.05646 10.5197 5.78701 10.6581C4.21288 11.4664 3.75907 10.5588 4.0427 10.0199C4.64925 9.26276 4.82901 8.75803 4.79431 7.67996C5.16181 7.53064 5.33946 7.56639 5.63102 7.73669C5.31903 11.6366 10.2825 11.3104 9.95635 7.89269L10.6654 8.23304C10.4765 9.53429 10.5479 10.0428 11.3887 10.0624C12.2254 8.34649 14.0832 8.63012 13.3741 11.2962C12.821 12.3457 12.286 12.6468 11.1618 12.2038ZM4.34051 7.50979C3.71652 6.87162 2.01475 6.98507 1.47586 7.50979C1.47586 7.50979 1.10714 9.99154 2.92236 9.93481C4.73759 9.87809 4.34051 7.50979 4.34051 7.50979ZM6.14155 7.50979C6.46772 7.05598 8.92111 7.12689 9.3891 7.50979C9.3891 7.50979 9.87126 10.2752 7.71569 10.0766C5.56011 9.87809 6.14155 7.50979 6.14155 7.50979ZM5.82956 7.11271C5.37183 7.02164 5.11176 7.0184 4.63832 7.11271C4.53905 6.21928 3.13509 5.63784 2.18493 6.34691C2.36929 4.92877 7.00662 4.46078 10.6654 6.98507C10.7235 7.23628 10.7268 7.36783 10.6654 7.58069L9.34655 6.92835C8.77929 5.62366 6.75135 5.77965 6.32591 6.78653L5.82956 7.11271ZM12.9345 8.55921C10.4527 4.38987 3.60308 3.70917 1.77368 5.79383C1.85976 4.35211 2.09028 3.75087 3.02163 3.26954C7.94259 1.35505 14.622 5.53857 13.8988 9.43846C13.7289 8.92396 13.5129 8.7254 12.9345 8.55921ZM4.25542 2.41866C8.69421 1.83722 11.8656 3.52918 13.9413 6.75817C13.0621 1.8514 7.37533 0.319804 4.25542 2.41866Z" stroke="black" stroke-width="0.0283629"/>
<path fill-rule="evenodd" clip-rule="evenodd" d="M4.32633 13.5936C4.19869 13.5085 4.2696 13.2816 4.46814 13.3384C5.51663 13.7013 6.11007 13.6234 7.17679 13.0689C7.37533 12.9413 7.48878 13.0973 7.38951 13.2391C6.26543 14.0896 5.38993 14.2176 4.32633 13.5936ZM12.2963 11.5515C12.702 11.3721 12.977 10.6439 12.509 10.3603C12.509 10.3603 12.6792 10.0908 12.821 10.0483C12.9628 10.0057 13.0054 10.2468 13.0054 10.2468C13.3068 9.29665 12.1261 9.59446 11.885 11.0126L12.0127 11.1544C12.1342 10.8966 12.2112 10.7432 12.353 10.7715C12.4948 10.7999 12.4211 11.1493 12.2963 11.5515ZM8.14113 7.69415C7.74408 7.69415 7.61581 8.17662 7.6306 8.57339C7.6445 8.9465 7.76776 9.38174 8.14113 9.38174C8.5145 9.38174 8.63776 8.9465 8.65166 8.57339C8.66645 8.17662 8.53818 7.69415 8.14113 7.69415ZM3.13509 8.53085C3.10478 8.14042 3.22567 7.65642 3.61725 7.6516C4.01153 7.64675 4.14453 8.13776 4.1136 8.53085C4.08638 8.87692 3.96437 9.27292 3.61725 9.26828C3.2732 9.26369 3.16172 8.8739 3.13509 8.53085ZM1.83039 8.70103C1.87751 8.97765 1.93624 9.10708 2.0573 9.32501L2.04312 7.55233C2.01475 7.41052 1.83039 7.36797 1.80203 7.56651L1.83039 8.70103Z" stroke="black" stroke-width="0.0283629"/>
<path fill-rule="evenodd" clip-rule="evenodd" d="M2.14239 10.1617C0.809374 15.2812 9.24838 17.9757 11.1618 12.2038C12.286 12.6468 12.821 12.3457 13.3741 11.2962C14.0832 8.63012 12.2254 8.34649 11.3887 10.0624C10.5479 10.0428 10.4765 9.53429 10.6654 8.23304L9.95635 7.89269C10.2825 11.3104 5.31903 11.6366 5.63102 7.73669C5.33946 7.56639 5.16181 7.53064 4.79431 7.67996C4.82901 8.75803 4.64925 9.26276 4.0427 10.0199C3.75907 10.5588 4.21288 11.4664 5.78701 10.6581C6.05646 10.5197 6.20457 10.5412 6.28336 10.7715C9.09129 10.9559 9.03456 13.5936 7.38951 12.4875C6.47314 12.9936 5.95347 12.9719 5.02122 12.4875C4.33713 12.9339 3.96858 12.9518 3.34781 12.4166C2.42601 13.154 2.00636 11.4522 3.53217 10.8282C3.45895 10.6938 3.42719 10.5877 3.40453 10.2893C2.86699 10.3529 2.58921 10.327 2.14239 10.1617ZM4.32633 13.5936C4.19869 13.5085 4.2696 13.2816 4.46814 13.3384C5.51663 13.7013 6.11007 13.6234 7.17679 13.0689C7.37533 12.9413 7.48878 13.0973 7.38951 13.2391C6.26543 14.0896 5.38993 14.2176 4.32633 13.5936ZM12.2963 11.5515C12.702 11.3721 12.977 10.6439 12.509 10.3603C12.509 10.3603 12.6792 10.0908 12.821 10.0483C12.9628 10.0057 13.0054 10.2468 13.0054 10.2468C13.3068 9.29665 12.1261 9.59446 11.885 11.0126L12.0127 11.1544C12.1342 10.8966 12.2112 10.7432 12.353 10.7715C12.4948 10.7999 12.4211 11.1493 12.2963 11.5515Z" stroke="black" stroke-width="0.0283629"/>
<path d="M4.63832 7.11271C5.11176 7.0184 5.37183 7.02164 5.82956 7.11271L6.32591 6.78653C6.75135 5.77965 8.77929 5.62366 9.34655 6.92835L10.6654 7.58069C10.7268 7.36783 10.7235 7.23628 10.6654 6.98507C7.00662 4.46078 2.36929 4.92877 2.18493 6.34691C3.13509 5.63784 4.53905 6.21928 4.63832 7.11271Z" stroke="black" stroke-width="0.0283629"/>
<path fill-rule="evenodd" clip-rule="evenodd" d="M1.47586 7.50979C2.01475 6.98507 3.71652 6.87162 4.34051 7.50979C4.34051 7.50979 4.73759 9.87809 2.92236 9.93481C1.10714 9.99154 1.47586 7.50979 1.47586 7.50979ZM3.13509 8.53085C3.10478 8.14042 3.22567 7.65642 3.61725 7.6516C4.01153 7.64675 4.14453 8.13776 4.1136 8.53085C4.08638 8.87692 3.96437 9.27292 3.61725 9.26828C3.2732 9.26369 3.16172 8.8739 3.13509 8.53085ZM1.83039 8.70103C1.87751 8.97765 1.93624 9.10708 2.0573 9.32501L2.04312 7.55233C2.01475 7.41052 1.83039 7.36797 1.80203 7.56651L1.83039 8.70103Z" stroke="black" stroke-width="0.0283629"/>
<path fill-rule="evenodd" clip-rule="evenodd" d="M9.3891 7.50979C8.92111 7.12689 6.46772 7.05598 6.14155 7.50979C6.14155 7.50979 5.56011 9.87809 7.71569 10.0766C9.87126 10.2752 9.3891 7.50979 9.3891 7.50979ZM7.6306 8.57339C7.61581 8.17662 7.74408 7.69415 8.14113 7.69415C8.53818 7.69415 8.66645 8.17662 8.65166 8.57339C8.63776 8.9465 8.5145 9.38174 8.14113 9.38174C7.76776 9.38174 7.6445 8.9465 7.6306 8.57339Z" stroke="black" stroke-width="0.0283629"/>
<path d="M1.77368 5.79383C3.60308 3.70917 10.4527 4.38987 12.9345 8.55921C13.5129 8.7254 13.7289 8.92396 13.8988 9.43846C14.622 5.53857 7.94259 1.35505 3.02163 3.26954C2.09028 3.75087 1.85976 4.35211 1.77368 5.79383Z" stroke="black" stroke-width="0.0283629"/>
<path d="M4.25542 2.41866C8.69421 1.83722 11.8656 3.52918 13.9413 6.75817C13.0621 1.8514 7.37533 0.319804 4.25542 2.41866Z" stroke="black" stroke-width="0.0283629"/>
</g>
<defs>
<clipPath id="clip0_716_8">
<rect width="16" height="16" fill="white"/>
</clipPath>
</defs>
</svg>
