<svg width="669" height="961" viewBox="0 0 669 961" fill="none" xmlns="http://www.w3.org/2000/svg">
<path d="M201.16 235C187.354 235.17 183.092 252.234 184.16 266C185.099 278.095 189.03 291.838 201.16 292C213.398 292.163 217.7 278.202 218.66 266C219.75 252.141 215.061 234.829 201.16 235Z" fill="black"/>
<path d="M360.66 236.5C346.661 236.5 342.139 253.511 342.66 267.5C343.15 280.655 347.496 296 360.66 296C373.824 296 378.17 280.655 378.66 267.5C379.181 253.511 374.659 236.5 360.66 236.5Z" fill="black"/>
<path d="M514.66 330.5C531.16 340.5 521.465 366.176 507.16 372.5C511.56 358.321 514.16 346 509.16 345C504.16 344 501.447 349.41 497.16 358.5L492.66 353.5C501.16 303.5 542.79 293 532.16 326.5C532.16 326.5 530.66 318 525.66 319.5C520.66 321 514.66 330.5 514.66 330.5Z" fill="black"/>
<path d="M146.16 294C141.892 286.317 139.821 281.753 138.16 272L137.16 232C138.16 225 144.66 226.5 145.66 231.5L146.16 294Z" fill="black"/>
<path d="M231.16 435.5C224.16 433.5 221.66 441.5 226.16 444.5C263.66 466.5 294.528 461.986 334.16 432C337.66 427 333.66 421.5 326.66 426C289.05 445.549 268.127 448.297 231.16 435.5Z" fill="black"/>
<path fill-rule="evenodd" clip-rule="evenodd" d="M104.162 897.999C9.08643 893.344 -10.7771 861.455 11.1617 748.999C0.938806 744.543 -1.33989 736.5 0.660373 726C56.3983 575.104 99.4884 522.7 200.66 495C137.584 440.544 124.484 400.053 133.16 313.5C115.394 291.279 111.649 273.215 112.66 234C103.886 218.623 109.871 211.979 136.16 203C97.1604 173 123.16 74.5 183.16 59.4992C355.16 -78.4998 589.16 42.5 583.16 246.999C587.27 279.196 584.895 294.773 570.16 316.999C567.16 390.999 533.16 427.999 475.16 415.999C470.391 436.45 470.654 447.638 472.16 467.499C489.25 478.282 513.507 487.574 538.27 497.061C574.367 510.889 611.541 525.13 629.16 544.999C677.047 599 686.643 661.349 629.16 796.499C621.136 812.895 614.457 818.18 599.16 821.499V954.499C597.365 961.148 590.73 960.62 578.66 959.499V848.999C529.859 911.301 502.619 930.57 454.16 934.499C376.88 923.671 335.821 907.637 268.16 854.999C215.542 878.111 183.964 887.492 122.66 896.499L120.66 955.499C113.909 960.532 109.97 960.342 102.661 955.499L104.162 897.999ZM60.6631 762.999C58.5437 752.68 71.4648 749.06 97.1631 742.999L102.162 729.499C98.8687 722.61 52.8923 723.782 34.1629 731.999C16.7432 802.416 11.211 837.773 39.1629 863.999C73.0711 890.529 166.163 882.499 253.663 842.499C217.696 811.275 196.983 792.75 159.663 758.999C123.444 753.521 96.9727 758.965 80.3801 762.378C69.7144 764.571 63.1305 765.925 60.6631 762.999ZM30.1601 697.5L22.1601 718.5C61.2633 704.272 81.5538 702.22 113.16 715L123.66 700C88.1926 683.44 67.6593 684.044 30.1601 697.5ZM209.66 513C126.446 529.398 88.8285 568.247 35.6601 683.5C72.6761 671.505 92.3779 671.621 125.16 686C133.281 647.307 140.198 627.122 160.16 596C166.073 589.023 169.16 592 167.16 599C154.549 634.067 149.193 653.566 143.66 688C185.485 651.762 238.947 675.957 333.251 718.636L335.16 719.5C387.415 651.411 418.018 629.465 476.16 634.5C483.356 618.286 488.366 610.024 501.66 599C508.221 594.595 509.795 595.005 507.66 602.5C499.905 616.25 496.804 623.897 492.16 637.5C523.797 647.757 534.748 655.818 540.16 675C584.763 687.815 605.313 702.32 633.16 743C671.835 604.036 647.643 549.706 504.66 504C382.66 681 200.66 625.5 209.66 513ZM228.66 513C209.66 617 391.66 654 488.66 497L472.16 489C392.66 617.5 241.66 599 245.16 518.5L228.66 513ZM262.16 523.5C342.988 539.907 402.16 523.5 454.16 452V482C383.66 596 259.66 577.5 262.16 523.5ZM117.66 738.5L163.16 740C270.496 841.974 367.815 914.5 454.16 914.5C500.16 918.5 565.66 851.5 596.16 777C587.386 754.353 572.486 742.513 538.66 722C534.96 729.444 531.471 731.772 524.16 734.5C531.16 757.5 517.16 770 495.16 770C488.167 792.308 478.205 793.677 457.66 791L227.16 692.5C176.015 676.981 153.176 691.614 117.66 738.5ZM351.16 725.5C406.16 615 535.16 645 520.66 684.5C467.711 653.167 446.472 659.254 410.16 674.5C404.16 679 405.16 686.5 413.66 683.5C460.66 664.5 534.16 697 520.66 716.5C518.116 722.315 511.344 718.883 500.538 713.407C481.611 703.815 450.308 687.95 407.66 704.5C400.66 708.5 401.16 717.226 410.16 715C456.66 703.5 519.16 731 507.16 748C503.582 752.509 499.942 753.345 492.16 753.5C462.683 728.367 442.805 727.399 404.16 738C398.66 741 401.16 746 407.66 745C458.66 743.5 484.998 757.244 476.66 770C470.563 774.885 465.697 775.312 456.66 775.5L351.16 725.5ZM539.16 689L533.66 693L539.16 707C586.261 732.204 605.433 748.418 614.66 784.5L626.16 760C604.458 718.316 584.778 703.491 539.16 689ZM149.16 323.5C102.162 504 399.699 599 467.16 395.5C506.799 411.119 525.66 400.5 545.16 363.5C570.16 269.5 504.66 259.5 475.16 320C445.516 319.308 442.999 301.379 449.66 255.5L424.66 243.5C436.16 364 261.16 375.5 272.16 238C261.881 231.996 255.617 230.735 242.66 236C243.883 274.01 237.546 291.805 216.16 318.5C206.16 337.5 222.16 369.5 277.66 341C287.16 336.122 292.382 336.88 295.16 345C260 372.5 213.5 370.5 198.16 347C195.579 342.262 194.459 338.519 193.66 328C174.708 330.239 164.914 329.327 149.16 323.5ZM125.66 230C144.66 211.5 204.66 207.5 226.66 230C226.66 230 240.66 313.5 176.66 315.5C112.66 317.5 125.66 230 125.66 230ZM404.66 230C388.16 216.5 301.66 214 290.16 230C290.16 230 269.66 313.5 345.66 320.5C421.66 327.5 404.66 230 404.66 230ZM237.16 216C253.853 212.675 263.022 212.789 279.16 216L296.66 204.5C311.66 169 383.16 163.5 403.16 209.5L449.66 232.5C451.824 224.995 451.709 220.357 449.66 211.5C320.66 122.5 157.16 139 150.66 189C184.16 164 233.66 184.5 237.16 216ZM136.16 169.5C200.66 96 442.16 120 529.66 267C550.054 272.859 557.671 279.86 563.66 298C589.16 160.5 353.66 13 180.16 80.5C147.323 97.4704 139.196 118.669 136.16 169.5ZM223.66 50.5C380.16 30 491.976 89.654 565.16 203.5C534.16 30.5 333.66 -23.5 223.66 50.5Z" fill="black"/>
<path d="M334.16 405.5C392.16 444.5 394.16 351.5 295.16 345C260 372.5 213.5 370.5 198.16 347C144.364 369 159.16 429 191.66 403C200.912 410.977 208.574 415.469 216.16 416.808C226.52 418.637 236.736 414.586 250.66 405.5C266.398 413.678 278.8 418.116 291 418.561C304.28 419.046 317.321 414.8 334.16 405.5Z" fill="black"/>
<path id="mouth" d="M250.66 405.5C236.736 414.586 226.52 418.637 216.16 416.808C242.958 437.922 259.469 437.358 291 418.561C278.8 418.116 266.398 413.678 250.66 405.5Z" fill="black"/>
</svg>
