<svg width="671" height="962" viewBox="0 0 671 962" fill="none" xmlns="http://www.w3.org/2000/svg">
<path d="M202.16 236C188.354 236.17 184.092 253.234 185.16 267C186.099 279.095 190.03 292.838 202.16 293C214.398 293.163 218.7 279.202 219.66 267C220.75 253.141 216.061 235.829 202.16 236Z" fill="black"/>
<path d="M361.66 237.5C347.661 237.5 343.139 254.511 343.66 268.5C344.15 281.655 348.496 297 361.66 297C374.824 297 379.17 281.655 379.66 268.5C380.181 254.511 375.659 237.5 361.66 237.5Z" fill="black"/>
<path d="M515.66 331.5C532.16 341.5 522.465 367.176 508.16 373.5C512.56 359.321 515.16 347 510.16 346C505.16 345 502.447 350.41 498.16 359.5L493.66 354.5C502.16 304.5 543.79 294 533.16 327.5C533.16 327.5 531.66 319 526.66 320.5C521.66 322 515.66 331.5 515.66 331.5Z" fill="black"/>
<path d="M147.16 295C142.892 287.317 140.821 282.753 139.16 273L138.16 233C139.16 226 145.66 227.5 146.66 232.5L147.16 295Z" fill="black"/>
<path d="M232.16 436.5C225.16 434.5 222.66 442.5 227.16 445.5C264.66 467.5 295.528 462.986 335.16 433C338.66 428 334.66 422.5 327.66 427C290.05 446.549 269.127 449.297 232.16 436.5Z" fill="black"/>
<path fill-rule="evenodd" clip-rule="evenodd" d="M105.162 898.999C10.0864 894.344 -9.77711 862.455 12.1617 749.999C1.93881 745.543 -0.339895 737.5 1.66037 727C57.3983 576.104 100.488 523.7 201.66 496C138.584 441.544 125.484 401.053 134.16 314.5C116.394 292.279 112.649 274.215 113.66 235C104.886 219.623 110.871 212.979 137.16 204C98.1604 174 124.16 75.5 184.16 60.4992C356.16 -77.4998 590.16 43.5 584.16 247.999C588.27 280.196 585.895 295.773 571.16 317.999C568.16 391.999 534.16 428.999 476.16 416.999C471.391 437.45 471.654 448.638 473.16 468.499C490.25 479.282 514.507 488.574 539.27 498.061C575.367 511.889 612.541 526.13 630.16 545.999C678.047 600 687.643 662.349 630.16 797.499C622.136 813.895 615.457 819.18 600.16 822.499V955.499C598.365 962.148 591.73 961.62 579.66 960.499V849.999C530.859 912.301 503.619 931.57 455.16 935.499C377.88 924.671 336.821 908.637 269.16 855.999C216.542 879.111 184.964 888.492 123.66 897.499L121.66 956.499C114.909 961.532 110.97 961.342 103.661 956.499L105.162 898.999ZM61.6631 763.999C59.5437 753.68 72.4648 750.06 98.1631 743.999L103.162 730.499C99.8687 723.61 53.8923 724.782 35.1629 732.999C17.7432 803.416 12.211 838.773 40.1629 864.999C74.0711 891.529 167.163 883.499 254.663 843.499C218.696 812.275 197.983 793.75 160.663 759.999C124.444 754.521 97.9727 759.965 81.3801 763.378C70.7144 765.571 64.1305 766.925 61.6631 763.999ZM31.1601 698.5L23.1601 719.5C62.2633 705.272 82.5538 703.22 114.16 716L124.66 701C89.1926 684.44 68.6593 685.044 31.1601 698.5ZM210.66 514C127.446 530.398 89.8285 569.247 36.6601 684.5C73.6761 672.505 93.3779 672.621 126.16 687C134.281 648.307 141.198 628.122 161.16 597C167.073 590.023 170.16 593 168.16 600C155.549 635.067 150.193 654.566 144.66 689C186.485 652.762 239.947 676.957 334.251 719.636L336.16 720.5C388.415 652.411 419.018 630.465 477.16 635.5C484.356 619.286 489.366 611.024 502.66 600C509.221 595.595 510.795 596.005 508.66 603.5C500.905 617.25 497.804 624.897 493.16 638.5C524.797 648.757 535.748 656.818 541.16 676C585.763 688.815 606.313 703.32 634.16 744C672.835 605.036 648.643 550.706 505.66 505C383.66 682 201.66 626.5 210.66 514ZM229.66 514C210.66 618 392.66 655 489.66 498L473.16 490C393.66 618.5 242.66 600 246.16 519.5L229.66 514ZM263.16 524.5C343.988 540.907 403.16 524.5 455.16 453V483C384.66 597 260.66 578.5 263.16 524.5ZM118.66 739.5L164.16 741C271.496 842.974 368.815 915.5 455.16 915.5C501.16 919.5 566.66 852.5 597.16 778C588.386 755.353 573.486 743.513 539.66 723C535.96 730.444 532.471 732.772 525.16 735.5C532.16 758.5 518.16 771 496.16 771C489.167 793.308 479.205 794.677 458.66 792L228.16 693.5C177.015 677.981 154.176 692.614 118.66 739.5ZM352.16 726.5C407.16 616 536.16 646 521.66 685.5C468.711 654.167 447.472 660.254 411.16 675.5C405.16 680 406.16 687.5 414.66 684.5C461.66 665.5 535.16 698 521.66 717.5C519.116 723.315 512.344 719.883 501.538 714.407C482.611 704.815 451.308 688.95 408.66 705.5C401.66 709.5 402.16 718.226 411.16 716C457.66 704.5 520.16 732 508.16 749C504.582 753.509 500.942 754.345 493.16 754.5C463.683 729.367 443.805 728.399 405.16 739C399.66 742 402.16 747 408.66 746C459.66 744.5 485.998 758.244 477.66 771C471.563 775.885 466.697 776.312 457.66 776.5L352.16 726.5ZM540.16 690L534.66 694L540.16 708C587.261 733.204 606.433 749.418 615.66 785.5L627.16 761C605.458 719.316 585.778 704.491 540.16 690ZM150.16 324.5C103.162 505 400.699 600 468.16 396.5C507.799 412.119 526.66 401.5 546.16 364.5C571.16 270.5 505.66 260.5 476.16 321C446.516 320.308 443.999 302.379 450.66 256.5L425.66 244.5C437.16 365 262.16 376.5 273.16 239C262.881 232.996 256.617 231.735 243.66 237C244.883 275.01 238.546 292.805 217.16 319.5C207.16 338.5 223.16 370.5 278.66 342C288.16 337.122 293.382 337.88 296.16 346C261 373.5 214.5 371.5 199.16 348C196.579 343.262 195.459 339.519 194.66 329C175.708 331.239 165.914 330.327 150.16 324.5ZM126.66 231C145.66 212.5 205.66 208.5 227.66 231C227.66 231 241.66 314.5 177.66 316.5C113.66 318.5 126.66 231 126.66 231ZM405.66 231C389.16 217.5 302.66 215 291.16 231C291.16 231 270.66 314.5 346.66 321.5C422.66 328.5 405.66 231 405.66 231ZM238.16 217C254.853 213.675 264.022 213.789 280.16 217L297.66 205.5C312.66 170 384.16 164.5 404.16 210.5L450.66 233.5C452.824 225.995 452.709 221.357 450.66 212.5C321.66 123.5 158.16 140 151.66 190C185.16 165 234.66 185.5 238.16 217ZM137.16 170.5C201.66 97 443.16 121 530.66 268C551.054 273.859 558.671 280.86 564.66 299C590.16 161.5 354.66 14 181.16 81.5C148.323 98.4704 140.196 119.669 137.16 170.5ZM224.66 51.5C381.16 31 492.976 90.654 566.16 204.5C535.16 31.5 334.66 -22.5 224.66 51.5Z" fill="black"/>
<path d="M335.16 406.5C393.16 445.5 395.16 352.5 296.16 346C261 373.5 214.5 371.5 199.16 348C145.364 370 160.16 430 192.66 404C201.912 411.977 209.574 416.469 217.16 417.808C227.52 419.637 237.736 415.586 251.66 406.5C267.398 414.678 279.8 419.116 292 419.561C305.28 420.046 318.321 415.8 335.16 406.5Z" fill="black"/>
<path d="M251.66 406.5C237.736 415.586 227.52 419.637 217.16 417.808C243.958 438.922 260.469 438.358 292 419.561C279.8 419.116 267.398 414.678 251.66 406.5Z" fill="#FF0000"/>
<path d="M336.16 720.5C388.415 652.411 419.018 630.465 477.16 635.5C484.356 619.286 489.366 611.024 502.66 600C509.221 595.595 510.795 596.005 508.66 603.5C500.905 617.25 497.804 624.897 493.16 638.5C524.797 648.757 535.748 656.818 541.16 676C585.763 688.815 606.313 703.32 634.16 744C672.835 605.036 648.643 550.706 505.66 505C383.66 682 201.66 626.5 210.66 514C127.446 530.398 89.8285 569.247 36.6601 684.5C73.6761 672.505 93.3779 672.621 126.16 687C134.281 648.307 141.198 628.122 161.16 597C167.073 590.023 170.16 593 168.16 600C155.549 635.067 150.193 654.566 144.66 689C186.485 652.762 239.947 676.957 334.251 719.636M336.16 720.5L334.251 719.636M336.16 720.5C335.522 720.211 334.885 719.923 334.251 719.636M296.16 346C293.382 337.88 288.16 337.122 278.66 342C223.16 370.5 207.16 338.5 217.16 319.5C238.546 292.805 244.883 275.01 243.66 237C256.617 231.735 262.881 232.996 273.16 239C262.16 376.5 437.16 365 425.66 244.5L450.66 256.5C443.999 302.379 446.516 320.308 476.16 321C505.66 260.5 571.16 270.5 546.16 364.5C526.66 401.5 507.799 412.119 468.16 396.5C400.699 600 103.162 505 150.16 324.5C165.914 330.327 175.708 331.239 194.66 329C195.459 339.519 196.579 343.262 199.16 348M296.16 346C395.16 352.5 393.16 445.5 335.16 406.5C318.321 415.8 305.28 420.046 292 419.561M296.16 346C261 373.5 214.5 371.5 199.16 348M199.16 348C145.364 370 160.16 430 192.66 404C201.912 411.977 209.574 416.469 217.16 417.808M217.16 417.808C227.52 419.637 237.736 415.586 251.66 406.5C267.398 414.678 279.8 419.116 292 419.561M217.16 417.808C243.958 438.922 260.469 438.358 292 419.561M61.6631 763.999C59.5437 753.68 72.4648 750.06 98.1631 743.999L103.162 730.499C99.8687 723.61 53.8923 724.782 35.1629 732.999C17.7432 803.416 12.211 838.773 40.1629 864.999C74.0711 891.529 167.163 883.499 254.663 843.499C218.696 812.275 197.983 793.75 160.663 759.999C124.444 754.521 97.9727 759.965 81.3801 763.378C70.7144 765.571 64.1305 766.925 61.6631 763.999ZM12.1617 749.999C-9.77711 862.455 10.0864 894.344 105.162 898.999L103.661 956.499C110.97 961.342 114.909 961.532 121.66 956.499L123.66 897.499C184.964 888.492 216.542 879.111 269.16 855.999C336.821 908.637 377.88 924.671 455.16 935.499C503.619 931.57 530.859 912.301 579.66 849.999V960.499C591.73 961.62 598.365 962.148 600.16 955.499V822.499C615.457 819.18 622.136 813.895 630.16 797.499C687.643 662.349 678.047 600 630.16 545.999C612.541 526.13 575.367 511.889 539.27 498.061C514.507 488.574 490.25 479.282 473.16 468.499C471.654 448.638 471.391 437.45 476.16 416.999C534.16 428.999 568.16 391.999 571.16 317.999C585.895 295.773 588.27 280.196 584.16 247.999C590.16 43.5 356.16 -77.4998 184.16 60.4992C124.16 75.5 98.1604 174 137.16 204C110.871 212.979 104.886 219.623 113.66 235C112.649 274.215 116.394 292.279 134.16 314.5C125.484 401.053 138.584 441.544 201.66 496C100.488 523.7 57.3983 576.104 1.66037 727C-0.339895 737.5 1.93881 745.543 12.1617 749.999ZM31.1601 698.5L23.1601 719.5C62.2633 705.272 82.5538 703.22 114.16 716L124.66 701C89.1926 684.44 68.6593 685.044 31.1601 698.5ZM229.66 514C210.66 618 392.66 655 489.66 498L473.16 490C393.66 618.5 242.66 600 246.16 519.5L229.66 514ZM263.16 524.5C343.988 540.907 403.16 524.5 455.16 453V483C384.66 597 260.66 578.5 263.16 524.5ZM118.66 739.5L164.16 741C271.496 842.974 368.815 915.5 455.16 915.5C501.16 919.5 566.66 852.5 597.16 778C588.386 755.353 573.486 743.513 539.66 723C535.96 730.444 532.471 732.772 525.16 735.5C532.16 758.5 518.16 771 496.16 771C489.167 793.308 479.205 794.677 458.66 792L228.16 693.5C177.015 677.981 154.176 692.614 118.66 739.5ZM352.16 726.5C407.16 616 536.16 646 521.66 685.5C468.711 654.167 447.472 660.254 411.16 675.5C405.16 680 406.16 687.5 414.66 684.5C461.66 665.5 535.16 698 521.66 717.5C519.116 723.315 512.344 719.883 501.538 714.407C482.611 704.815 451.308 688.95 408.66 705.5C401.66 709.5 402.16 718.226 411.16 716C457.66 704.5 520.16 732 508.16 749C504.582 753.509 500.942 754.345 493.16 754.5C463.683 729.367 443.805 728.399 405.16 739C399.66 742 402.16 747 408.66 746C459.66 744.5 485.998 758.244 477.66 771C471.563 775.885 466.697 776.312 457.66 776.5L352.16 726.5ZM540.16 690L534.66 694L540.16 708C587.261 733.204 606.433 749.418 615.66 785.5L627.16 761C605.458 719.316 585.778 704.491 540.16 690ZM232.16 436.5C225.16 434.5 222.66 442.5 227.16 445.5C264.66 467.5 295.528 462.986 335.16 433C338.66 428 334.66 422.5 327.66 427C290.05 446.549 269.127 449.297 232.16 436.5ZM515.66 331.5C532.16 341.5 522.465 367.176 508.16 373.5C512.56 359.321 515.16 347 510.16 346C505.16 345 502.447 350.41 498.16 359.5L493.66 354.5C502.16 304.5 543.79 294 533.16 327.5C533.16 327.5 531.66 319 526.66 320.5C521.66 322 515.66 331.5 515.66 331.5ZM202.16 236C188.354 236.17 184.092 253.234 185.16 267C186.099 279.095 190.03 292.838 202.16 293C214.398 293.163 218.7 279.202 219.66 267C220.75 253.141 216.061 235.829 202.16 236ZM126.66 231C145.66 212.5 205.66 208.5 227.66 231C227.66 231 241.66 314.5 177.66 316.5C113.66 318.5 126.66 231 126.66 231ZM405.66 231C389.16 217.5 302.66 215 291.16 231C291.16 231 270.66 314.5 346.66 321.5C422.66 328.5 405.66 231 405.66 231ZM238.16 217C254.853 213.675 264.022 213.789 280.16 217L297.66 205.5C312.66 170 384.16 164.5 404.16 210.5L450.66 233.5C452.824 225.995 452.709 221.357 450.66 212.5C321.66 123.5 158.16 140 151.66 190C185.16 165 234.66 185.5 238.16 217ZM137.16 170.5C201.66 97 443.16 121 530.66 268C551.054 273.859 558.671 280.86 564.66 299C590.16 161.5 354.66 14 181.16 81.5C148.323 98.4704 140.196 119.669 137.16 170.5ZM224.66 51.5C381.16 31 492.976 90.654 566.16 204.5C535.16 31.5 334.66 -22.5 224.66 51.5ZM361.66 237.5C347.661 237.5 343.139 254.511 343.66 268.5C344.15 281.655 348.496 297 361.66 297C374.824 297 379.17 281.655 379.66 268.5C380.181 254.511 375.659 237.5 361.66 237.5ZM147.16 295C142.892 287.317 140.821 282.753 139.16 273L138.16 233C139.16 226 145.66 227.5 146.66 232.5L147.16 295Z" stroke="black"/>
</svg>
