<svg width="376" height="210" viewBox="0 0 376 210" fill="none" xmlns="http://www.w3.org/2000/svg">
<path d="M201 3C182.118 9.2285 178.834 19.3342 182.5 46H192C189.887 21.9711 192.221 14.7521 201 10V3Z" fill="black" fill-opacity="0.75"/>
<path d="M182.5 46H136.5C45.0005 38.0001 9.67454 61.4313 2 130.5C2.00049 212 111 229.5 136.5 183.5H240.5C283 228.5 374 206.5 374 130.5C374 65 327 43 240.5 46H192M182.5 46C178.834 19.3342 182.118 9.2285 201 3V10C192.221 14.7521 189.887 21.9711 192 46M182.5 46H192" stroke="black" stroke-opacity="0.75" stroke-width="3"/>
<path d="M68.5327 118.006C60.5341 113.712 56.18 112.785 49.0327 118.006C47.2416 122.83 47.691 126.852 49.0327 134.506C57.3216 135.626 61.5471 135.236 68.5327 133.006C68.3136 140.818 68.28 145.038 68.5327 152.006C76.5963 155.193 81.344 154.988 90.0327 152.006L88.5327 134.506C96.37 136.289 100.614 136.228 108.033 134.506C110.493 127.281 110.161 123.231 108.033 116.006C100.463 114.574 96.2002 114.667 88.5327 118.006V95.006C80.848 92.9628 76.4501 93.4404 68.5327 96.006V118.006Z" fill="black" fill-opacity="0.75" stroke="black" stroke-opacity="0.75" stroke-width="3"/>
<path d="M173 112L153 131C153.273 136.249 154.385 138.338 161.5 137.5L179 120C180.058 114.042 180.168 112.453 173 112Z" fill="black" fill-opacity="0.75" stroke="black" stroke-opacity="0.75" stroke-width="3"/>
<path d="M211 112L191 131C191.273 136.249 192.385 138.338 199.5 137.5L217 120C218.058 114.042 218.168 112.453 211 112Z" fill="black" fill-opacity="0.75" stroke="black" stroke-opacity="0.75" stroke-width="3"/>
<path d="M268.101 102C259.949 102.281 253.682 109.354 254.101 117.5C254.512 125.502 261.093 131.776 269.101 131.5C276.828 131.234 282.712 125.222 283.101 117.5C283.524 109.087 276.519 101.71 268.101 102Z" fill="black" fill-opacity="0.75"/>
<path d="M305.601 76.5C296.454 76.2511 289.125 85.4695 290.601 94.5C291.851 102.15 297.851 107.656 305.601 107.5C313.888 107.334 320.101 100.289 320.101 92C320.101 83.7111 313.887 76.7255 305.601 76.5Z" fill="black" fill-opacity="0.75"/>
<path d="M301.101 143.5C292.248 143.634 284.758 151.749 286.101 160.5C287.28 168.186 293.827 173.195 301.601 173C310.022 172.789 317.024 165.913 316.601 157.5C316.191 149.354 309.257 143.376 301.101 143.5Z" fill="black" fill-opacity="0.75"/>
<path d="M338.601 118.5C329.575 118.389 321.923 127.74 324.101 136.5C325.816 143.398 331.494 147.616 338.601 147.5C346.747 147.367 353.382 140.642 353.101 132.5C352.829 124.633 346.472 118.596 338.601 118.5Z" fill="black" fill-opacity="0.75"/>
<path d="M273.601 145C242.748 143.964 236 114 242.601 101C249.202 87.9999 282.702 68 295.601 63C308.5 58 340.565 73.8094 332.601 104M273.601 145C269.51 172.502 288.702 190 301.601 187C342.5 177.488 360.202 154 365.601 141.5C371 129 360.673 107.204 332.601 104M273.601 145C297.752 130.726 310.779 121.921 332.601 104M268.101 102C259.949 102.281 253.682 109.354 254.101 117.5C254.512 125.502 261.093 131.776 269.101 131.5C276.828 131.234 282.712 125.222 283.101 117.5C283.524 109.087 276.519 101.71 268.101 102ZM305.601 76.5C296.454 76.2511 289.125 85.4695 290.601 94.5C291.851 102.15 297.851 107.656 305.601 107.5C313.888 107.334 320.101 100.289 320.101 92C320.101 83.7111 313.887 76.7255 305.601 76.5ZM301.101 143.5C292.248 143.634 284.758 151.749 286.101 160.5C287.28 168.186 293.827 173.195 301.601 173C310.022 172.789 317.024 165.913 316.601 157.5C316.191 149.354 309.257 143.376 301.101 143.5ZM338.601 118.5C329.575 118.389 321.923 127.74 324.101 136.5C325.816 143.398 331.494 147.616 338.601 147.5C346.747 147.367 353.382 140.642 353.101 132.5C352.829 124.633 346.472 118.596 338.601 118.5Z" stroke="black" stroke-opacity="0.75" stroke-width="3"/>
</svg>
