<svg width="55" height="61" viewBox="0 0 55 61" fill="none" xmlns="http://www.w3.org/2000/svg">
<path d="M43.5566 26.6206C45.1229 26.6399 45.6065 28.5758 45.4853 30.1376C45.3788 31.5098 44.9328 33.0689 43.5566 33.0873C42.1682 33.1058 41.6801 31.5219 41.5712 30.1376C41.4475 28.5652 41.9795 26.6011 43.5566 26.6206Z" fill="black"/>
<path d="M25.4611 26.7907C27.0493 26.7907 27.5624 28.7206 27.5032 30.3077C27.4476 31.8002 26.9546 33.5411 25.4611 33.5411C23.9677 33.5411 23.4746 31.8002 23.419 30.3077C23.3598 28.7206 23.8729 26.7907 25.4611 26.7907Z" fill="black"/>
<path d="M7.98959 37.4552C6.11764 38.5897 7.21763 41.5027 8.84048 42.2201C8.34136 40.6115 8.04632 39.2137 8.61358 39.1002C9.18084 38.9868 9.48865 39.6005 9.97499 40.6318L10.4855 40.0646C9.52119 34.392 4.79827 33.2007 6.0042 37.0014C6.0042 37.0014 6.17437 36.037 6.74163 36.2072C7.30889 36.3774 7.98959 37.4552 7.98959 37.4552Z" fill="black"/>
<path d="M49.7964 33.3142C50.2807 32.4425 50.5156 31.9248 50.7041 30.8183L50.8175 26.2802C50.7041 25.4861 49.9666 25.6562 49.8532 26.2235L49.7964 33.3142Z" fill="black"/>
<path d="M40.1531 49.3676C40.9472 49.1407 41.2309 50.0483 40.7203 50.3886C36.4659 52.8846 32.9639 52.3724 28.4676 48.9705C28.0705 48.4032 28.5243 47.7793 29.3185 48.2898C33.5854 50.5076 35.9591 50.8194 40.1531 49.3676Z" fill="black"/>
<path fill-rule="evenodd" clip-rule="evenodd" d="M12.4709 47.1552C5.89071 48.5166 2.03337 44.3189 1.69302 35.9235C0.0213749 33.4019 -0.24806 31.6347 0.218151 27.9819C-0.462557 4.78117 26.0851 -8.94643 45.5987 6.70975C52.4058 8.41161 55.3555 19.5866 50.9309 22.9901C53.9135 24.0088 54.5925 24.7626 53.597 26.5071C53.7117 30.9561 53.2869 33.0055 51.2713 35.5265C52.2556 45.346 50.7694 49.9398 43.6133 56.1179C42.4403 57.0235 41.9865 57.4206 40.4367 58.1601L38.5648 58.784C37.8172 59.069 37.3962 59.2089 36.6361 59.3513C27.466 61.2127 20.7529 59.3513 14.8534 51.2395C13.9754 49.9212 13.4515 49.0134 12.4709 47.1552ZM13.3785 44.8295C21.0321 67.9169 54.7881 57.139 49.4561 36.661C47.6688 37.3221 46.5577 37.4256 44.4075 37.1715C44.3169 38.365 44.1898 38.7895 43.897 39.3271C50.0002 41.8231 48.3216 48.6301 44.6344 45.6804C42.1513 47.8213 40.6771 47.7496 37.9408 45.964C34.2118 47.9019 32.1331 47.9884 28.4676 45.964C21.8874 50.3886 21.6605 39.8377 32.8922 39.1002C33.2074 38.179 33.7998 38.093 34.8776 38.6464C41.1741 41.8798 42.9894 38.2493 41.8548 36.0938C39.4286 33.0652 38.7096 31.0463 38.8484 26.734C37.3784 26.1367 36.6678 26.2797 35.5016 26.9609C36.7495 42.5605 16.8955 41.2558 18.2002 27.5849L15.3639 28.9463C16.1197 34.1513 15.834 36.1854 12.4709 36.2639C9.1241 29.4001 1.69302 30.5346 4.52933 41.1991C6.74163 45.3968 8.8815 46.6015 13.3785 44.8295ZM40.6636 26.0533C43.1595 23.5007 49.9666 23.9545 52.1222 26.0533C52.1222 26.0533 53.5971 35.9803 46.3362 35.7534C39.0753 35.5265 40.6636 26.0533 40.6636 26.0533ZM33.4594 26.0533C32.1547 24.2381 22.3412 24.5217 20.4693 26.0533C20.4693 26.0533 18.5406 37.1148 27.1629 36.3207C35.7852 35.5265 33.4594 26.0533 33.4594 26.0533ZM34.7074 24.465C36.5383 24.1007 37.5786 24.0878 39.4724 24.465C39.8694 20.8913 45.4853 18.5655 49.2859 21.4018C48.5485 15.7292 29.9992 13.8573 15.3639 23.9545C15.1315 24.9593 15.1185 25.4855 15.3639 26.3369L20.6394 23.7276C22.9085 18.5088 31.0202 19.1328 32.722 23.1603L34.7074 24.465ZM6.28782 30.251C16.2148 13.5737 43.6133 10.8508 50.9309 19.1895C50.5866 13.4226 49.6645 11.0176 45.9391 9.09232C26.2553 1.43435 -0.462538 18.1684 2.43047 33.768C3.10996 31.71 3.97409 30.9158 6.28782 30.251ZM41.004 5.68878C23.2488 3.36303 10.5632 10.1309 2.2603 23.0468C5.77729 3.41975 28.5243 -2.70662 41.004 5.68878Z" fill="black"/>
<path fill-rule="evenodd" clip-rule="evenodd" d="M40.7203 50.3886C41.2309 50.0483 40.9472 49.1407 40.1531 49.3676C35.9591 50.8194 33.5854 50.5076 29.3185 48.2898C28.5243 47.7793 28.0705 48.4032 28.4676 48.9705C32.9639 52.3724 36.4659 52.8846 40.7203 50.3886ZM8.84048 42.2201C7.21763 41.5027 6.11764 38.5897 7.98959 37.4552C7.98959 37.4552 7.30889 36.3774 6.74163 36.2072C6.17437 36.037 6.0042 37.0014 6.0042 37.0014C4.79827 33.2007 9.52119 34.392 10.4855 40.0646L9.97499 40.6318C9.48865 39.6005 9.18084 38.9868 8.61358 39.1002C8.04632 39.2137 8.34136 40.6115 8.84048 42.2201ZM25.4611 26.7907C27.0493 26.7907 27.5624 28.7206 27.5032 30.3077C27.4476 31.8002 26.9546 33.5411 25.4611 33.5411C23.9677 33.5411 23.4746 31.8002 23.419 30.3077C23.3598 28.7206 23.8729 26.7907 25.4611 26.7907ZM45.4853 30.1376C45.6065 28.5758 45.1229 26.6399 43.5566 26.6206C41.9795 26.6011 41.4475 28.5652 41.5712 30.1376C41.6801 31.5219 42.1682 33.1058 43.5566 33.0873C44.9328 33.0689 45.3788 31.5098 45.4853 30.1376ZM50.7041 30.8183C50.5156 31.9248 50.2807 32.4425 49.7964 33.3142L49.8532 26.2235C49.9666 25.6562 50.7041 25.4861 50.8175 26.2802L50.7041 30.8183Z" fill="black"/>
<path fill-rule="evenodd" clip-rule="evenodd" d="M49.4561 36.661C54.7881 57.139 21.0321 67.9169 13.3785 44.8295C8.8815 46.6015 6.74163 45.3968 4.52933 41.1991C1.69302 30.5346 9.1241 29.4001 12.4709 36.2639C15.834 36.1854 16.1197 34.1513 15.3639 28.9463L18.2002 27.5849C16.8955 41.2558 36.7495 42.5605 35.5016 26.9609C36.6678 26.2797 37.3784 26.1367 38.8484 26.734C38.7096 31.0463 39.4286 33.0652 41.8548 36.0938C42.9894 38.2493 41.1741 41.8798 34.8776 38.6464C33.7998 38.093 33.2074 38.179 32.8922 39.1002C21.6605 39.8377 21.8874 50.3886 28.4676 45.964C32.1331 47.9884 34.2118 47.9019 37.9408 45.964C40.6771 47.7496 42.1513 47.8213 44.6344 45.6804C48.3216 48.6301 50.0002 41.8231 43.897 39.3271C44.1898 38.7895 44.3169 38.365 44.4075 37.1715C46.5577 37.4256 47.6688 37.3221 49.4561 36.661ZM40.7203 50.3886C41.2309 50.0483 40.9472 49.1407 40.1531 49.3676C35.9591 50.8194 33.5854 50.5076 29.3185 48.2898C28.5243 47.7793 28.0705 48.4032 28.4676 48.9705C32.9639 52.3724 36.4659 52.8846 40.7203 50.3886ZM8.84048 42.2201C7.21763 41.5027 6.11764 38.5897 7.98959 37.4552C7.98959 37.4552 7.30889 36.3774 6.74163 36.2072C6.17437 36.037 6.0042 37.0014 6.0042 37.0014C4.79827 33.2007 9.52119 34.392 10.4855 40.0646L9.97499 40.6318C9.48865 39.6005 9.18084 38.9868 8.61358 39.1002C8.04632 39.2137 8.34136 40.6115 8.84048 42.2201Z" fill="#E5A55F"/>
<path d="M39.4724 24.465C37.5786 24.0878 36.5383 24.1007 34.7074 24.465L32.722 23.1603C31.0202 19.1328 22.9085 18.5088 20.6394 23.7276L15.3639 26.3369C15.1185 25.4855 15.1315 24.9593 15.3639 23.9545C29.9992 13.8573 48.5485 15.7292 49.2859 21.4018C45.4853 18.5655 39.8694 20.8913 39.4724 24.465Z" fill="#E5A55F"/>
<path fill-rule="evenodd" clip-rule="evenodd" d="M52.1222 26.0533C49.9666 23.9545 43.1595 23.5007 40.6636 26.0533C40.6636 26.0533 39.0753 35.5265 46.3362 35.7534C53.5971 35.9803 52.1222 26.0533 52.1222 26.0533ZM45.4853 30.1376C45.6065 28.5758 45.1229 26.6399 43.5566 26.6206C41.9795 26.6011 41.4475 28.5652 41.5712 30.1376C41.6801 31.5219 42.1682 33.1058 43.5566 33.0873C44.9328 33.0689 45.3788 31.5098 45.4853 30.1376ZM50.7041 30.8183C50.5156 31.9248 50.2807 32.4425 49.7964 33.3142L49.8532 26.2235C49.9666 25.6562 50.7041 25.4861 50.8175 26.2802L50.7041 30.8183Z" fill="#DDB991"/>
<path fill-rule="evenodd" clip-rule="evenodd" d="M20.4693 26.0533C22.3412 24.5217 32.1547 24.2381 33.4594 26.0533C33.4594 26.0533 35.7852 35.5265 27.1629 36.3207C18.5406 37.1148 20.4693 26.0533 20.4693 26.0533ZM27.5032 30.3077C27.5624 28.7206 27.0493 26.7907 25.4611 26.7907C23.8729 26.7907 23.3598 28.7206 23.419 30.3077C23.4746 31.8002 23.9677 33.5411 25.4611 33.5411C26.9546 33.5411 27.4476 31.8002 27.5032 30.3077Z" fill="#DDB991"/>
<path d="M50.9309 19.1895C43.6133 10.8508 16.2148 13.5737 6.28782 30.251C3.97409 30.9158 3.10996 31.71 2.43047 33.768C-0.462538 18.1684 26.2553 1.43435 45.9391 9.09232C49.6645 11.0176 50.5866 13.4226 50.9309 19.1895Z" fill="#E6831A"/>
<path d="M41.004 5.68878C23.2488 3.36303 10.5632 10.1309 2.2603 23.0468C5.77729 3.41975 28.5243 -2.70662 41.004 5.68878Z" fill="#E6831A"/>
<path d="M43.5566 26.6206C45.1229 26.6399 45.6065 28.5758 45.4853 30.1376C45.3788 31.5098 44.9328 33.0689 43.5566 33.0873C42.1682 33.1058 41.6801 31.5219 41.5712 30.1376C41.4475 28.5652 41.9795 26.6011 43.5566 26.6206Z" stroke="black" stroke-width="0.0283629"/>
<path d="M25.4611 26.7907C27.0493 26.7907 27.5624 28.7206 27.5032 30.3077C27.4476 31.8002 26.9546 33.5411 25.4611 33.5411C23.9677 33.5411 23.4746 31.8002 23.419 30.3077C23.3598 28.7206 23.8729 26.7907 25.4611 26.7907Z" stroke="black" stroke-width="0.0283629"/>
<path d="M7.98959 37.4552C6.11764 38.5897 7.21763 41.5027 8.84048 42.2201C8.34136 40.6115 8.04632 39.2137 8.61358 39.1002C9.18084 38.9868 9.48865 39.6005 9.97499 40.6318L10.4855 40.0646C9.52119 34.392 4.79827 33.2007 6.0042 37.0014C6.0042 37.0014 6.17437 36.037 6.74163 36.2072C7.30889 36.3774 7.98959 37.4552 7.98959 37.4552Z" stroke="black" stroke-width="0.0283629"/>
<path d="M49.7964 33.3142C50.2807 32.4425 50.5156 31.9248 50.7041 30.8183L50.8175 26.2802C50.7041 25.4861 49.9666 25.6562 49.8532 26.2235L49.7964 33.3142Z" stroke="black" stroke-width="0.0283629"/>
<path d="M40.1531 49.3676C40.9472 49.1407 41.2309 50.0483 40.7203 50.3886C36.4659 52.8846 32.9639 52.3724 28.4676 48.9705C28.0705 48.4032 28.5243 47.7793 29.3185 48.2898C33.5854 50.5076 35.9591 50.8194 40.1531 49.3676Z" stroke="black" stroke-width="0.0283629"/>
<path fill-rule="evenodd" clip-rule="evenodd" d="M12.4709 47.1552C5.89071 48.5166 2.03337 44.3189 1.69302 35.9235C0.0213749 33.4019 -0.24806 31.6347 0.218151 27.9819C-0.462557 4.78117 26.0851 -8.94643 45.5987 6.70975C52.4058 8.41161 55.3555 19.5866 50.9309 22.9901C53.9135 24.0088 54.5925 24.7626 53.597 26.5071C53.7117 30.9561 53.2869 33.0055 51.2713 35.5265C52.2556 45.346 50.7694 49.9398 43.6133 56.1179C42.4403 57.0235 41.9865 57.4206 40.4367 58.1601L38.5648 58.784C37.8172 59.069 37.3962 59.2089 36.6361 59.3513C27.466 61.2127 20.7529 59.3513 14.8534 51.2395C13.9754 49.9212 13.4515 49.0134 12.4709 47.1552ZM13.3785 44.8295C21.0321 67.9169 54.7881 57.139 49.4561 36.661C47.6688 37.3221 46.5577 37.4256 44.4075 37.1715C44.3169 38.365 44.1898 38.7895 43.897 39.3271C50.0002 41.8231 48.3216 48.6301 44.6344 45.6804C42.1513 47.8213 40.6771 47.7496 37.9408 45.964C34.2118 47.9019 32.1331 47.9884 28.4676 45.964C21.8874 50.3886 21.6605 39.8377 32.8922 39.1002C33.2074 38.179 33.7998 38.093 34.8776 38.6464C41.1741 41.8798 42.9894 38.2493 41.8548 36.0938C39.4286 33.0652 38.7096 31.0463 38.8484 26.734C37.3784 26.1367 36.6678 26.2797 35.5016 26.9609C36.7495 42.5605 16.8955 41.2558 18.2002 27.5849L15.3639 28.9463C16.1197 34.1513 15.834 36.1854 12.4709 36.2639C9.1241 29.4001 1.69302 30.5346 4.52933 41.1991C6.74163 45.3968 8.8815 46.6015 13.3785 44.8295ZM40.6636 26.0533C43.1595 23.5007 49.9666 23.9545 52.1222 26.0533C52.1222 26.0533 53.5971 35.9803 46.3362 35.7534C39.0753 35.5265 40.6636 26.0533 40.6636 26.0533ZM33.4594 26.0533C32.1547 24.2381 22.3412 24.5217 20.4693 26.0533C20.4693 26.0533 18.5406 37.1148 27.1629 36.3207C35.7852 35.5265 33.4594 26.0533 33.4594 26.0533ZM34.7074 24.465C36.5383 24.1007 37.5786 24.0878 39.4724 24.465C39.8694 20.8913 45.4853 18.5655 49.2859 21.4018C48.5485 15.7292 29.9992 13.8573 15.3639 23.9545C15.1315 24.9593 15.1185 25.4855 15.3639 26.3369L20.6394 23.7276C22.9085 18.5088 31.0202 19.1328 32.722 23.1603L34.7074 24.465ZM6.28782 30.251C16.2148 13.5737 43.6133 10.8508 50.9309 19.1895C50.5866 13.4226 49.6645 11.0176 45.9391 9.09232C26.2553 1.43435 -0.462538 18.1684 2.43047 33.768C3.10996 31.71 3.97409 30.9158 6.28782 30.251ZM41.004 5.68878C23.2488 3.36303 10.5632 10.1309 2.2603 23.0468C5.77729 3.41975 28.5243 -2.70662 41.004 5.68878Z" stroke="black" stroke-width="0.0283629"/>
<path fill-rule="evenodd" clip-rule="evenodd" d="M40.7203 50.3886C41.2309 50.0483 40.9472 49.1407 40.1531 49.3676C35.9591 50.8194 33.5854 50.5076 29.3185 48.2898C28.5243 47.7793 28.0705 48.4032 28.4676 48.9705C32.9639 52.3724 36.4659 52.8846 40.7203 50.3886ZM8.84048 42.2201C7.21763 41.5027 6.11764 38.5897 7.98959 37.4552C7.98959 37.4552 7.30889 36.3774 6.74163 36.2072C6.17437 36.037 6.0042 37.0014 6.0042 37.0014C4.79827 33.2007 9.52119 34.392 10.4855 40.0646L9.97499 40.6318C9.48865 39.6005 9.18084 38.9868 8.61358 39.1002C8.04632 39.2137 8.34136 40.6115 8.84048 42.2201ZM25.4611 26.7907C27.0493 26.7907 27.5624 28.7206 27.5032 30.3077C27.4476 31.8002 26.9546 33.5411 25.4611 33.5411C23.9677 33.5411 23.4746 31.8002 23.419 30.3077C23.3598 28.7206 23.8729 26.7907 25.4611 26.7907ZM45.4853 30.1376C45.6065 28.5758 45.1229 26.6399 43.5566 26.6206C41.9795 26.6011 41.4475 28.5652 41.5712 30.1376C41.6801 31.5219 42.1682 33.1058 43.5566 33.0873C44.9328 33.0689 45.3788 31.5098 45.4853 30.1376ZM50.7041 30.8183C50.5156 31.9248 50.2807 32.4425 49.7964 33.3142L49.8532 26.2235C49.9666 25.6562 50.7041 25.4861 50.8175 26.2802L50.7041 30.8183Z" stroke="black" stroke-width="0.0283629"/>
<path fill-rule="evenodd" clip-rule="evenodd" d="M49.4561 36.661C54.7881 57.139 21.0321 67.9169 13.3785 44.8295C8.8815 46.6015 6.74163 45.3968 4.52933 41.1991C1.69302 30.5346 9.1241 29.4001 12.4709 36.2639C15.834 36.1854 16.1197 34.1513 15.3639 28.9463L18.2002 27.5849C16.8955 41.2558 36.7495 42.5605 35.5016 26.9609C36.6678 26.2797 37.3784 26.1367 38.8484 26.734C38.7096 31.0463 39.4286 33.0652 41.8548 36.0938C42.9894 38.2493 41.1741 41.8798 34.8776 38.6464C33.7998 38.093 33.2074 38.179 32.8922 39.1002C21.6605 39.8377 21.8874 50.3886 28.4676 45.964C32.1331 47.9884 34.2118 47.9019 37.9408 45.964C40.6771 47.7496 42.1513 47.8213 44.6344 45.6804C48.3216 48.6301 50.0002 41.8231 43.897 39.3271C44.1898 38.7895 44.3169 38.365 44.4075 37.1715C46.5577 37.4256 47.6688 37.3221 49.4561 36.661ZM40.7203 50.3886C41.2309 50.0483 40.9472 49.1407 40.1531 49.3676C35.9591 50.8194 33.5854 50.5076 29.3185 48.2898C28.5243 47.7793 28.0705 48.4032 28.4676 48.9705C32.9639 52.3724 36.4659 52.8846 40.7203 50.3886ZM8.84048 42.2201C7.21763 41.5027 6.11764 38.5897 7.98959 37.4552C7.98959 37.4552 7.30889 36.3774 6.74163 36.2072C6.17437 36.037 6.0042 37.0014 6.0042 37.0014C4.79827 33.2007 9.52119 34.392 10.4855 40.0646L9.97499 40.6318C9.48865 39.6005 9.18084 38.9868 8.61358 39.1002C8.04632 39.2137 8.34136 40.6115 8.84048 42.2201Z" stroke="black" stroke-width="0.0283629"/>
<path d="M39.4724 24.465C37.5786 24.0878 36.5383 24.1007 34.7074 24.465L32.722 23.1603C31.0202 19.1328 22.9085 18.5088 20.6394 23.7276L15.3639 26.3369C15.1185 25.4855 15.1315 24.9593 15.3639 23.9545C29.9992 13.8573 48.5485 15.7292 49.2859 21.4018C45.4853 18.5655 39.8694 20.8913 39.4724 24.465Z" stroke="black" stroke-width="0.0283629"/>
<path fill-rule="evenodd" clip-rule="evenodd" d="M52.1222 26.0533C49.9666 23.9545 43.1595 23.5007 40.6636 26.0533C40.6636 26.0533 39.0753 35.5265 46.3362 35.7534C53.5971 35.9803 52.1222 26.0533 52.1222 26.0533ZM45.4853 30.1376C45.6065 28.5758 45.1229 26.6399 43.5566 26.6206C41.9795 26.6011 41.4475 28.5652 41.5712 30.1376C41.6801 31.5219 42.1682 33.1058 43.5566 33.0873C44.9328 33.0689 45.3788 31.5098 45.4853 30.1376ZM50.7041 30.8183C50.5156 31.9248 50.2807 32.4425 49.7964 33.3142L49.8532 26.2235C49.9666 25.6562 50.7041 25.4861 50.8175 26.2802L50.7041 30.8183Z" stroke="black" stroke-width="0.0283629"/>
<path fill-rule="evenodd" clip-rule="evenodd" d="M20.4693 26.0533C22.3412 24.5217 32.1547 24.2381 33.4594 26.0533C33.4594 26.0533 35.7852 35.5265 27.1629 36.3207C18.5406 37.1148 20.4693 26.0533 20.4693 26.0533ZM27.5032 30.3077C27.5624 28.7206 27.0493 26.7907 25.4611 26.7907C23.8729 26.7907 23.3598 28.7206 23.419 30.3077C23.4746 31.8002 23.9677 33.5411 25.4611 33.5411C26.9546 33.5411 27.4476 31.8002 27.5032 30.3077Z" stroke="black" stroke-width="0.0283629"/>
<path d="M50.9309 19.1895C43.6133 10.8508 16.2148 13.5737 6.28782 30.251C3.97409 30.9158 3.10996 31.71 2.43047 33.768C-0.462538 18.1684 26.2553 1.43435 45.9391 9.09232C49.6645 11.0176 50.5866 13.4226 50.9309 19.1895Z" stroke="black" stroke-width="0.0283629"/>
<path d="M41.004 5.68878C23.2488 3.36303 10.5632 10.1309 2.2603 23.0468C5.77729 3.41975 28.5243 -2.70662 41.004 5.68878Z" stroke="black" stroke-width="0.0283629"/>
</svg>
