<svg width="530" height="530" viewBox="0 0 530 530" fill="none" xmlns="http://www.w3.org/2000/svg">
<path d="M459.719 528.862H449.191C450.426 498.473 452.134 481.521 463.702 452.003C465.376 447.733 468.295 449.587 467.686 453.426C463.024 482.83 461.158 499.346 459.719 528.862Z" fill="black" fill-opacity="0.75"/>
<path fill-rule="evenodd" clip-rule="evenodd" d="M263.956 308.532C259.118 308.247 258.834 311.948 261.679 314.225C276.033 321.238 286.353 322.096 309.482 317.072C313.181 315.079 312.043 310.809 308.059 310.809C289.633 312.545 280.038 311.879 263.956 308.532Z" fill="black" fill-opacity="0.75"/>
<path fill-rule="evenodd" clip-rule="evenodd" d="M23.8061 316.217C22.0461 291.193 56.2416 265.832 96.0791 301.415C95.2515 290.703 96.8558 285.132 102.622 275.795C90.1418 277.673 83.2756 277.841 71.3224 275.795C62.9787 271.698 59.5727 268.574 57.0954 260.709V233.381C60.3735 224.356 63.8193 220.768 73.3142 217.44H100.63C110.7 220.662 113.895 224.277 115.995 233.381L114.857 260.709C132.313 255.316 141.382 262.417 141.319 272.949C141.184 295.599 142.498 307.5 147.294 327.32C152.147 338.969 153.543 345.715 153.839 358.348C152.904 384.718 147.451 397.32 131.36 416.989L140.465 459.404C166.943 396.558 193.161 377.096 251.436 358.348C208.616 331.343 198.755 301.787 200.219 229.68C186.661 213.935 183.396 202.184 184.569 176.448C183.685 173.118 182.458 171.672 178.594 169.616C177.043 164.502 176.728 161.478 178.594 155.383C187.564 149.878 194.133 149.068 206.479 148.551C180.016 125.778 196.52 65.7137 230.38 50.0571C354.439 -58.3997 504.676 24.4368 499.839 155.098C504.48 183.459 500.435 196.266 489.026 217.155C497.759 255.912 465.694 307.678 425.574 297.145C422.888 312.012 422.527 321.439 422.059 333.65C421.929 337.052 421.79 340.671 421.59 344.684C432.384 350.946 444.942 356.802 457.798 362.798C485.271 375.61 514.106 389.057 530 408.449V426.098C507.463 400.405 487.14 388.964 444.923 370.873C379.194 490.148 228.957 454.849 236.924 377.421C191.984 394.332 172.233 417.043 145.018 477.053L146.156 481.323C160.534 486.861 167.697 491.658 179.447 502.103C183.027 470.288 193.39 436.346 198.227 434.923L199.081 440.047C192.731 474.967 189.721 494.604 187.984 530H174.895L176.033 517.191C166.654 506.188 160.584 501.501 148.433 495.556L157.253 530H144.449L118.841 413.858C146.746 386.267 149 365.704 135.059 322.196C130.878 304.501 130.673 294.247 131.36 275.795C131.007 271.221 127.661 268.024 123.962 269.533C106.899 276.495 103.76 298.853 106.605 310.809C121.97 336.713 112.981 361.775 93.232 365.749C91.5997 371.095 90.1645 373.885 86.403 378.274C95.2077 385.673 98.3225 390.395 98.6382 400.478C98.6382 403.325 95.7219 403.325 94.6547 400.763C90.1416 389.928 82.1349 383.113 73.8833 386.814C65.9162 411.295 38.3158 403.716 31.4869 386.814C30.2939 383.861 29.0888 382.618 25.5116 381.405C23.6417 379.599 23.5664 378.557 24.9425 376.566C28.1205 376.642 29.9242 376.768 33.1941 377.135C35.3557 376.675 36.7916 375.914 40.0231 373.15C43.7677 375.646 43.8835 377.633 39.7385 382.544C43.3585 390.424 46.3553 392.811 53.9655 392.507C74.1678 389.376 61.3635 355.216 40.8767 351.8C17.2599 346.676 6.44743 362.048 9.57736 379.413C15.3987 401.477 21.227 411.698 35.4705 426.667C46.4725 436.759 53.4773 440.119 68.1925 440.046C71.5858 440.433 71.9368 441.641 71.3224 444.601C68.6476 448.406 62.2241 448.486 49.982 448.301L47.9902 530H34.9014L39.1695 444.601C-2.08881 410.156 -8.76279 371.247 9.86167 348.384C9.54843 331.837 12.2967 324.586 23.8061 316.217ZM209.324 233.381C207.617 296.576 221.115 331.484 268.224 353.224C326.554 375.428 396.551 344.684 416.753 285.474C417.823 282.124 419.02 281.412 422.729 283.197C465.41 305.116 496.424 220.856 466.548 203.776C447.199 194.951 436.594 207.771 426.997 229.68C418.051 231.088 414.262 229.17 409.924 220.571L410.778 189.258C405.423 183.559 402.584 183.726 397.689 189.258C392.244 219.932 386.583 231.811 370.089 239.928C337.936 251.884 304.36 238.22 298.385 204.63C297.067 194.808 296.755 189.26 296.962 179.295C294.97 174.455 282.825 173.556 274.199 176.448L273.63 189.827C275.458 188.727 276.168 187.89 277.044 186.127C279.036 183.849 281.882 185.557 280.743 188.689C277.641 193.587 274.581 198.233 271.703 202.602C261.321 218.362 253.314 230.517 254.281 237.935C253.143 254.161 300.946 256.154 305.498 241.067C306.601 237.815 309.482 239.928 310.051 242.775C310.62 245.621 310.336 246.76 310.336 246.76C340.168 253.683 358.423 273.803 351.594 296.576C347.61 306.539 336.98 308.517 322.571 300.846C306.763 306.319 295.834 305.131 273.63 297.43C258.28 300.911 250.73 301.42 241.477 296.576C226.893 300.337 221.885 298.103 218.429 286.613C213.96 267.611 223.836 251.315 244.607 246.76C243.298 241.839 243.037 239.047 243.469 233.95C229.939 236.52 222.458 236.347 209.324 233.381ZM445.776 264.409C448.83 255.296 449.37 251.642 446.914 249.322C443.329 246.87 441.675 249.004 438.947 255.015C436.226 256.204 433.541 255.015 434.11 252.453C438.688 238.231 442.742 231.164 453.743 220.856C456.174 218.578 461.711 219.148 463.133 221.71C465.568 225.2 466.176 227.259 465.979 231.104C465.41 233.665 462.28 233.95 461.995 231.388C460.635 226.143 459.372 225.108 455.735 228.542C452.071 231.979 450.609 234.169 448.337 238.22C457.455 243.102 457.866 248.837 448.337 265.548C447.199 266.971 445.492 266.117 445.776 264.409ZM323.14 227.403C306.637 220.571 304.076 181.003 311.474 171.893C321.53 162.888 351.878 163.069 370.089 168.193C380.526 171.386 384.402 174.858 387.161 184.703C384.549 212.239 381.046 220.922 372.081 227.403C359.845 237.081 335.944 235.658 323.14 227.403ZM347.041 176.163C336.578 175.182 332.736 188.149 332.245 198.652C331.767 208.883 334.001 221.055 344.196 221.994C354.94 222.984 358.836 209.445 358.992 198.652C359.136 188.707 356.94 177.092 347.041 176.163ZM262.817 202.352C256.969 210.545 253.926 214.902 248.59 222.564C228.957 232.527 206.479 226.549 199.081 210.323C195.246 197.862 194.622 189.426 196.235 171.609C197.678 163.011 201.009 160.18 211.6 158.799C246.054 160.653 262.97 162.675 264.809 177.871C265.141 187.434 264.747 192.794 262.817 202.352ZM229.242 194.382C229.428 183.896 233.015 170.821 243.469 171.609C253.481 172.363 255.808 184.345 255.419 194.382C255.018 204.734 251.217 217.57 240.908 216.586C231.16 215.655 229.068 204.176 229.242 194.382ZM219.283 128.055C216.814 132.84 216.573 135.952 216.722 141.719C219.378 137.734 227.079 130.162 236.64 131.756C256.565 136.036 270.215 147.128 268.508 159.653C270.65 161.33 271.328 162.406 271.923 164.492C284 161.616 290.479 161.704 301.23 166.769C303.666 162.608 305.398 160.881 309.766 159.938C301.515 139.442 377.487 117.238 380.901 158.799C393.666 162.044 399.262 164.093 402.242 168.762C403.211 171.192 404.924 172.078 409.64 173.032L410.209 149.405C348.748 100.443 231.941 104.588 219.283 128.055ZM270.5 366.604C320.294 382.545 364.97 373.709 409.64 323.904L410.209 357.494C410.209 357.494 385.169 409.872 324.562 410.726C263.956 411.58 270.5 366.604 270.5 366.604ZM436.102 366.888C417.607 445.171 242.046 477.053 246.314 373.436L257.696 370.873C262.248 446.594 384.6 440.047 422.444 359.487L436.102 366.888ZM20.6744 342.407C50.2485 340.166 62.9197 345.5 73.8833 374.574C73.8833 374.574 101.199 356.64 64.4935 331.021C27.7879 305.401 20.6744 342.407 20.6744 342.407ZM94.6547 354.363C82.7314 325.075 70.7198 314.687 35.1859 312.233C35.1859 312.233 46.852 278.642 84.4112 307.393C121.97 336.145 94.6547 354.363 94.6547 354.363ZM205.625 125.778C221.276 99.2125 249.594 97.1676 309.766 99.8734C396.03 110.711 425.137 135.491 464.84 191.535C473.4 194.745 477.323 197.785 483.051 204.914C490.164 189.238 491.363 179.965 489.595 162.784C484.189 134.887 408.217 52.9039 322.002 51.1959C275.342 51.5578 240.054 54.3272 223.551 69.4144C213.588 78.5222 202.93 105.807 205.625 125.778ZM482.766 128.055C432.403 63.1518 353.87 29.5614 259.403 44.0793C259.403 44.0793 336.798 -8.58355 410.493 27.2841C484.189 63.1518 482.766 128.055 482.766 128.055Z" fill="black" fill-opacity="0.75"/>
<path d="M61.9326 202.922L109.451 201.498C109.616 184.696 111.349 175.625 127.377 162.215C151.242 144.474 160.354 133.33 168.066 110.691C179.732 67.9911 153.597 24.8162 97.2155 20.1675C39.7385 17.6055 7.63796 55.4863 7.30105 106.99L57.38 110.691C57.38 58.8818 120.263 56.0352 111.727 102.151C105.553 115.245 93.75 126.18 73.3142 145.42C59.3139 164.921 60.2523 178.539 61.9181 202.711L61.9326 202.922Z" fill="black" fill-opacity="0.75"/>
</svg>
