<svg width="762" height="934" viewBox="0 0 762 934" fill="none" xmlns="http://www.w3.org/2000/svg">
<path d="M139.27 922.441C134.77 922.712 134.27 928.386 139.27 928.441C237.277 929.519 292.105 930.706 389.77 933.441C393.226 927.346 263.77 914.941 139.27 922.441Z" fill="black" fill-opacity="0.25"/>
<path d="M205.77 899.941C199.77 900.001 198.77 907.441 204.27 908.441C232.771 909.292 249.616 910.468 280.77 913.441C286.27 889.441 314.77 881.441 324.27 908.441C341.606 860.395 393.291 857.001 380.645 909.441C380.27 910.941 380.77 910.941 382.111 910.441C406.01 904.062 413.581 906.618 414.77 922.941C414.77 929.441 425.27 928.941 425.27 922.441C425.415 899.362 418.972 893.293 392.77 897.941C402.27 850.441 345.27 849.433 324.27 885.441C303.77 871.441 282.27 879.941 272.77 903.441C246.967 900.307 232.265 899.678 205.77 899.941Z" fill="black" fill-opacity="0.25"/>
<path fill-rule="evenodd" clip-rule="evenodd" d="M172.769 680.433C157.433 662.111 143.533 657.408 110.269 658.433C90.7689 660.932 6.26933 799.933 19.2689 844.433C31.2694 869.433 102.769 863.933 141.269 799.933C254.874 844.867 313.033 854.604 371.269 744.933C379.482 745.182 384.172 744.859 392.269 742.933C419.905 773.663 444.769 838.933 462.269 849.433C469.63 872.758 476.809 882.448 496.269 892.433C497.133 903.627 501.012 906.311 511.769 906.933C583.129 866.698 620.762 840.086 683.769 785.433C690.269 776.933 686.379 768.516 676.769 761.933C662.269 722.933 616.269 715.933 565.769 738.933C547.146 685.825 528.364 661.039 475.769 628.432C479.458 610.63 480.672 600.539 481.269 582.432C504.734 595.619 515.242 598.773 522.769 586.432C592.312 605.208 626.884 588.215 681.269 513.433C739.269 505.433 795.769 416.433 734.769 379.933C728.52 361.399 721.755 355.063 704.269 350.933C692.269 320.931 621.269 306.931 605.769 366.933C574.269 375.931 565.875 409.082 580.769 447.431L558.769 472.931C546.073 476.23 500.769 443.931 462.269 431.431C520.976 419.117 543.301 401.699 560.769 348.431C582.696 337.895 589.13 328.067 586.269 300.931C652.769 266.931 619.769 206.431 553.269 206.431L546.269 169.431C557.269 163.435 556.769 147.932 539.269 149.431C533.446 130.725 529.241 120.416 519.269 102.435C532.269 77.936 478.269 18.9366 452.769 29.4349C317.769 -59.559 54.2693 61.9413 139.269 276.937C135.769 305.941 164.269 356.441 192.269 351.941C204.906 365.409 212.551 372.337 228.269 382.441C128.114 373.624 88.9221 398.749 43.7694 487.441C-4.65857 532.118 -14.73 579.941 22.7694 606.441C30.667 623.401 38.957 627.195 56.77 629.441C86.77 664.441 126.77 658.497 144.77 615.941C178.27 596.941 182.27 550.441 154.27 529.941C170.77 499.941 170.77 497.941 194.27 500.941C191.619 518.285 198.133 522.538 221.27 522.441C199.27 582.941 181.256 613.283 205.27 619.941C203.281 651.608 206.401 667.106 221.77 689.433C202.727 685.101 192.016 682.973 172.769 680.433ZM34.2694 839.932C33.5012 789.823 47.9817 754.721 110.269 674.933C135.517 671.932 146.654 675.282 161.269 689.433C143.998 724.581 137.64 745.055 133.769 783.433C104.769 835.933 57.2694 854.432 34.2694 839.932ZM149.27 787.441C151.382 749.963 155.385 729.179 172.769 692.941L238.77 706.941C266.511 738.562 293.476 745.775 354.27 746.941C310.145 832.369 261.113 833.203 149.27 787.441ZM399.27 728.441C277.77 751.441 219.27 698.441 219.27 629.441C247.143 641.351 263.783 645.934 295.77 649.441C295.311 653.145 295.339 655.233 295.77 658.941C439.455 609.374 498.954 622.573 554.27 744.933C513.099 774.849 493.087 793.624 463.27 830.941C420.956 756.194 404.994 729.84 399.27 728.441ZM473.77 838.941C555.77 743.441 626.77 711.441 661.27 761.941C593.118 805.636 557.241 831.674 496.77 880.441C481.897 868.692 477.216 859.338 473.77 838.941ZM510.77 894.441C508.264 892.998 507.483 891.852 506.77 889.441C565.423 841.242 600.054 815.302 665.77 771.441C669.833 772.516 671.436 774.023 673.27 777.941C613.464 827.289 577.762 852.669 510.77 894.441ZM207.77 603.941C215.514 571.259 222.323 553.829 237.77 523.941C273.021 524.862 290.042 524.141 301.77 514.441C281.179 508.654 258.378 507.344 212.27 505.941C224.717 464.669 224.205 440.742 212.27 396.941C303.193 396.556 337.955 408.186 362.77 455.941L361.27 437.941C388.127 452.494 404.305 456.618 434.77 455.941C465.528 516.321 468.925 553.484 461.77 622.941C373.77 589.941 304.27 680.433 207.77 603.941ZM200.77 486.941C207.753 452.357 207.701 432.399 197.77 395.441C125.226 396.068 93.9518 416.659 56.77 493.441C17.27 527.941 2.76997 565.441 23.27 589.441L25.77 585.441C28.27 580.941 31.77 582.441 33.27 586.941C32.8473 604.998 36.361 612.114 54.77 614.941C54.0311 610.39 54.1023 608.646 54.77 606.441C55.77 601.941 61.4864 602.662 62.27 606.441C70.77 647.441 127.77 643.941 129.27 612.941L116.27 619.441C110.77 620.441 107.27 615.441 112.77 612.441C122.995 605.074 127.472 599.983 130.27 586.941C131.702 582.305 135.77 582.441 137.27 586.941C138.483 593.909 138.115 597.728 136.27 604.441C159.77 599.941 170.589 552.941 138.27 534.441C137.348 532.797 137.514 531.796 138.27 529.941C155.28 490.705 168.765 480.757 200.77 486.941ZM524.27 475.441L441.27 437.941C467.723 483.282 478.548 510.771 481.269 568.441L501.77 577.441C500.306 536.992 505.073 514.435 524.27 475.441ZM517.77 569.941C516.299 533.834 521.668 514.772 537.27 481.941C537.27 481.941 551.27 490.441 560.27 488.441C569.27 486.441 589.27 459.941 589.27 459.941C596.219 468.177 600.975 471.561 611.77 474.441C618.27 478.441 619.099 470.441 616.27 468.441C578.784 441.941 574.27 388.941 608.27 379.941C631.27 373.853 671.27 405.441 652.27 427.441C634.32 439.15 624.247 434.281 606.27 412.441C602.937 408.657 598.27 409.441 600.27 414.941C610.729 436.064 619.435 443.327 640.77 446.441C643.232 453.411 643.213 458.669 642.77 468.441C649.71 466.974 651.469 460.936 652.27 444.441C657.968 442.891 660.924 441.39 665.77 437.441C672.27 472.941 723.27 475.441 719.27 445.441C727 439.776 729.518 435.917 729.77 427.441C728.04 424.059 723.425 422.441 722.27 426.941C720.712 433.009 705.641 443.263 702.27 443.941C700.192 444.36 706.287 448.021 711.77 448.941C661.77 474.941 678.77 387.441 729.27 394.941C763.77 404.941 744.27 487.941 673.77 500.441C619.413 576.133 585.437 592.524 517.77 569.941ZM671.27 416.441C670.608 404.202 668.358 398.013 660.27 388.441C691.77 358.941 709.717 359.882 720.27 380.941C699.57 385.975 688.702 392.976 671.27 416.441ZM649.77 378.441C639.284 369.732 632.844 366.848 620.27 364.941C637.437 333.641 665.77 328.941 688.77 353.941C669.913 359.43 661.522 364.96 649.77 378.441ZM419.27 442.941L426.77 429.941C388.142 420.708 373.471 410.47 358.27 384.441C453.27 447.431 526.77 410.941 547.77 350.441C530.855 351.281 522.874 349.15 510.77 340.441C437.27 374.941 465.77 271.941 543.27 287.941C645.27 302.441 608.77 203.441 554.27 221.441C553.269 292.441 458.77 298.941 457.77 184.441L388.27 201.941C388.49 251.512 379.028 264.512 352.27 272.441C334.216 239.575 296.77 223.941 276.77 238.441C249.621 259.463 248.496 274.857 258.77 305.441C274.27 346.941 308.27 354.441 337.77 338.441C346.77 340.941 337.77 358.441 306.27 361.441C296.837 370.711 291.201 375.979 280.27 385.441C330.77 389.941 380.27 443.941 419.27 442.941ZM474.77 179.941C471.77 188.441 477.27 268.441 518.27 256.441C559.27 244.441 529.77 173.941 526.77 169.431C523.77 164.921 477.77 171.441 474.77 179.941ZM501.27 155.441L387.27 185.441L381.77 164.941C428.479 137.393 454.878 123.73 502.77 106.441C515.534 121.891 520.039 131.786 524.77 150.941L516.77 152.941C488.27 106.441 452.108 132.551 451.27 161.441C470.095 152.812 481.097 151.991 501.27 155.441ZM241.27 259.941C216.471 288.577 186.27 336.441 183.77 336.441C181.27 336.441 152.27 310.941 152.27 287.941C180.77 207.441 334.77 60.4414 463.77 44.4414C478.77 42.5809 509.77 84.9414 506.27 89.9414C502.77 94.9414 383.27 125.941 288.77 219.441C265.228 224.624 253.786 231.279 241.27 259.941ZM148.77 258.941C228.412 143.634 286.137 90.9875 429.77 34.4414C245.77 -42.0586 92.27 129.441 148.77 258.941Z" fill="black" fill-opacity="0.25"/>
<path d="M317.77 288.941C319.494 287.941 322.038 295.076 322.77 300.441C326.622 302.544 328.717 302.524 332.27 300.441C330.27 257.441 279.77 248.441 279.77 272.441C291.431 269.464 297.232 269.19 303.77 275.941C290.27 284.441 294.27 315.441 312.77 316.441C308.192 301.323 308.139 294.529 317.77 288.941Z" fill="black" fill-opacity="0.25"/>
<path d="M510.77 180.941C496.94 180.853 502.77 215.441 502.77 215.441C502.77 215.441 506.454 241.097 518.27 241.441C531.951 241.84 529.151 220.919 526.77 207.441C524.667 195.537 522.859 181.019 510.77 180.941Z" fill="black" fill-opacity="0.25"/>
</svg>
