<svg width="297" height="369" viewBox="0 0 297 369" fill="none" xmlns="http://www.w3.org/2000/svg">
<path fill-rule="evenodd" clip-rule="evenodd" d="M42.3805 97.3658H13.7156C9.08545 83.4135 11.3002 75.3912 26.2106 60.6159L173.21 59.1459C173.21 59.1459 281.256 -12.8838 292.28 6.22609C303.304 25.336 257.735 95.1608 257.735 95.1608C261.409 179.686 210.694 250.245 220.985 326.685H255.53C279.049 336.24 262.879 364.17 247.445 366.375H32.0906C-41.4101 336.24 48.2614 135.586 42.3805 97.3658ZM18.8599 90.7511C20.0054 81.6348 21.4336 76.5779 29.8848 67.9662C34.6354 66.6504 37.1629 66.5862 41.6448 67.9662C45.477 75.918 46.8804 80.7745 46.7898 90.7511C36.1821 91.318 30.0289 91.2395 18.8599 90.7511ZM49.7298 67.9662L162.919 68.7012C117.661 124.753 103.068 157.73 86.4797 217.906C73.1496 245.013 67.4486 261.996 62.2247 297.285C78.4513 281.594 86.6706 272.217 98.9746 253.921C98.9746 253.921 90.8896 250.246 91.6246 248.776C92.3596 247.306 106.325 241.426 106.325 241.426V233.341L101.18 229.666C169.17 185.776 204.057 158.824 251.854 100.306C255.578 136.321 203.344 280.38 215.104 326.685H62.2247C57.9059 354.705 52.8439 364.123 35.0298 359.76C-32.59 310.515 63.6947 161.311 49.7298 67.9662ZM222.454 125.296C181.359 168.229 152.915 188.692 98.9746 223.051L91.6246 219.376C142.786 81.4372 182.22 36.7481 284.504 12.555C278.926 38.9817 278.381 53.5908 262.879 76.7862L257.735 76.0512L258.469 83.4011L248.179 92.9561L220.984 90.7511L245.974 98.1011L225.394 121.621L191.584 117.946L201.874 124.561L222.454 125.296ZM248.179 359.76H62.2247C62.0671 348.343 63.9249 342.408 70.3097 332.565H251.854L264.349 339.18L248.179 359.76Z" fill="black"/>
<path d="M29.8848 67.9662C21.4336 76.5779 20.0054 81.6348 18.8599 90.7511C30.0289 91.2395 36.1821 91.318 46.7898 90.7511C46.8804 80.7745 45.477 75.918 41.6448 67.9662C37.1629 66.5862 34.6354 66.6504 29.8848 67.9662Z" fill="#E8C077"/>
<path d="M62.2247 359.76H248.179L264.349 339.18L251.854 332.565H70.3097C63.9249 342.408 62.0671 348.343 62.2247 359.76Z" fill="#E8C077"/>
<path d="M98.9746 223.051C152.915 188.692 181.359 168.229 222.454 125.296L201.874 124.561L191.584 117.946L225.394 121.621L245.974 98.1011L220.984 90.7511L248.179 92.9561L258.469 83.4011L257.735 76.0512L262.879 76.7862C278.381 53.5908 278.926 38.9817 284.504 12.555C182.22 36.7481 142.786 81.4372 91.6246 219.376L98.9746 223.051Z" fill="#E8C077"/>
<path d="M284.504 12.555C278.926 38.9817 278.381 53.5908 262.879 76.7862L257.735 76.0512L258.469 83.4011L248.179 92.9561L220.984 90.7511L245.974 98.1011L225.394 121.621L191.584 117.946L201.874 124.561L222.454 125.296C181.359 168.229 152.915 188.692 98.9746 223.051L91.6246 219.376C142.786 81.4372 182.22 36.7481 284.504 12.555ZM284.504 12.555C199.094 69.8053 161.387 113.433 106.325 205.124M42.3805 97.3658H13.7156C9.08545 83.4135 11.3002 75.3912 26.2106 60.6159L173.21 59.1459C173.21 59.1459 281.256 -12.8838 292.28 6.22609C303.304 25.336 257.735 95.1608 257.735 95.1608C261.409 179.686 210.694 250.245 220.985 326.685H255.53C279.049 336.24 262.879 364.17 247.445 366.375H32.0906C-41.4101 336.24 48.2614 135.586 42.3805 97.3658ZM29.8848 67.9662C21.4336 76.5779 20.0054 81.6348 18.8599 90.7511C30.0289 91.2395 36.1821 91.318 46.7898 90.7511C46.8804 80.7745 45.477 75.918 41.6448 67.9662C37.1629 66.5862 34.6354 66.6504 29.8848 67.9662ZM162.919 68.7012L49.7298 67.9662C63.6947 161.311 -32.59 310.515 35.0298 359.76C52.8439 364.123 57.9059 354.705 62.2247 326.685H215.104C203.344 280.38 255.578 136.321 251.854 100.306C204.057 158.824 169.17 185.776 101.18 229.666L106.325 233.341V241.426C106.325 241.426 92.3596 247.306 91.6246 248.776C90.8896 250.246 98.9746 253.921 98.9746 253.921C86.6706 272.217 78.4513 281.594 62.2247 297.285C67.4486 261.996 73.1495 245.013 86.4797 217.906C103.068 157.73 117.661 124.753 162.919 68.7012ZM62.2247 359.76H248.179L264.349 339.18L251.854 332.565H70.3097C63.9249 342.408 62.0671 348.343 62.2247 359.76Z" stroke="black" stroke-width="4.40999"/>
</svg>
