<svg width="397" height="253" viewBox="0 0 397 253" fill="none" xmlns="http://www.w3.org/2000/svg">
<path fill-rule="evenodd" clip-rule="evenodd" d="M157.031 21.632L174.724 0L193.524 18.8104L216.747 0L233.334 21.632L259.875 4.7026L272.039 27.2751L304.109 18.8104V46.0855L342.813 42.3234V70.539H375.989L364.93 95.9331L393.682 104.398L371.565 121.327L397 143.9L371.565 153.305L384 184.342H347.237V211.617L316.273 207.855L311.85 232.309L279.78 221.963L265.404 245.476L242.181 232.309L222.276 253L196.841 236.071L174.724 253L154.819 233.249L129.384 245.476L117.22 221.963L87.3621 232.309L80.727 207.855H49.7632V184.342H18.7994L30.9638 156.126L0 143.9L24.3287 121.327L2.2117 99.6952L34.2813 90.29L24.3287 63.0149L55.2925 64.8959V36.6803L87.3621 42.3234L93.9972 18.8104L120.538 27.2751L133.808 4.7026L157.031 21.632ZM196.841 32.9182C123.311 34.0997 44.2943 58.8952 39.8106 121.327C35.1292 186.511 120.071 220.672 196.841 221.963C275.696 223.289 365.246 188.285 360.507 121.327C355.957 57.0461 272.545 31.7018 196.841 32.9182Z" fill="#CF9F48"/>
<rect x="106" y="108.076" width="187" height="35.0625" rx="17.5312" stroke="#CF9F48" stroke-width="4.92105"/>
<path d="M152.751 113.839L148.574 139H143.979L135.686 123.164H135.49L132.848 139H127.528L131.706 113.839H136.374L144.63 129.663H144.839L147.456 113.839H152.751ZM152.871 139L156.016 120.129H161.25L158.105 139H152.871ZM159.173 117.672C158.395 117.672 157.752 117.414 157.245 116.898C156.745 116.374 156.54 115.751 156.63 115.031C156.72 114.293 157.073 113.671 157.687 113.163C158.301 112.647 158.997 112.389 159.775 112.389C160.553 112.389 161.188 112.647 161.68 113.163C162.171 113.671 162.376 114.293 162.294 115.031C162.212 115.751 161.864 116.374 161.25 116.898C160.644 117.414 159.951 117.672 159.173 117.672ZM170.774 139.369C168.833 139.369 167.236 138.959 165.983 138.14C164.738 137.313 163.865 136.166 163.366 134.7C162.874 133.234 162.788 131.547 163.108 129.638C163.419 127.705 164.07 126.01 165.061 124.552C166.052 123.086 167.31 121.943 168.833 121.124C170.365 120.297 172.085 119.883 173.993 119.883C175.639 119.883 177.032 120.182 178.17 120.78C179.309 121.378 180.144 122.218 180.677 123.299C181.209 124.38 181.389 125.649 181.217 127.107H176.29C176.299 126.174 176.057 125.416 175.566 124.835C175.074 124.253 174.353 123.962 173.403 123.962C172.584 123.962 171.831 124.183 171.143 124.626C170.463 125.06 169.886 125.695 169.41 126.53C168.944 127.365 168.616 128.377 168.428 129.565C168.231 130.769 168.227 131.792 168.415 132.636C168.604 133.48 168.964 134.123 169.496 134.565C170.029 135.007 170.7 135.228 171.511 135.228C172.117 135.228 172.678 135.105 173.194 134.86C173.719 134.614 174.177 134.258 174.57 133.791C174.964 133.316 175.267 132.747 175.48 132.083H180.418C180.083 133.533 179.472 134.802 178.588 135.892C177.712 136.981 176.61 137.833 175.283 138.447C173.956 139.061 172.453 139.369 170.774 139.369ZM188.241 133.57L189.286 127.292H190.047L197.308 120.129H203.316L193.635 129.614H192.382L188.241 133.57ZM182.602 139L186.779 113.839H192.013L187.836 139H182.602ZM194.397 139L190.219 130.781L194.311 127.083L200.527 139H194.397ZM219.567 113.839L222.491 132.955H222.724L231.976 113.839H237.873L225.022 139H218.166L213.658 113.839H219.567ZM236.626 139L239.771 120.129H245.005L241.86 139H236.626ZM242.928 117.672C242.15 117.672 241.507 117.414 241 116.898C240.5 116.374 240.295 115.751 240.385 115.031C240.475 114.293 240.828 113.671 241.442 113.163C242.056 112.647 242.752 112.389 243.53 112.389C244.308 112.389 244.943 112.647 245.435 113.163C245.926 113.671 246.131 114.293 246.049 115.031C245.967 115.751 245.619 116.374 245.005 116.898C244.399 117.414 243.706 117.672 242.928 117.672ZM255.463 113.839L251.286 139H246.052L250.229 113.839H255.463ZM260.81 139.356C259.614 139.356 258.578 139.147 257.702 138.73C256.834 138.304 256.195 137.673 255.785 136.838C255.376 136.002 255.274 134.966 255.478 133.729C255.658 132.681 255.998 131.805 256.498 131.1C257.006 130.388 257.624 129.814 258.353 129.38C259.082 128.946 259.889 128.614 260.773 128.385C261.666 128.156 262.588 128 263.538 127.918C264.635 127.804 265.528 127.693 266.216 127.587C266.912 127.48 267.432 127.329 267.776 127.132C268.12 126.927 268.329 126.624 268.403 126.223V126.149C268.526 125.379 268.382 124.781 267.973 124.355C267.572 123.921 266.929 123.704 266.044 123.704C265.11 123.704 264.316 123.909 263.661 124.319C263.014 124.728 262.551 125.248 262.272 125.879L257.505 125.486C257.931 124.339 258.574 123.348 259.434 122.513C260.302 121.669 261.347 121.022 262.567 120.571C263.788 120.113 265.155 119.883 266.671 119.883C267.719 119.883 268.698 120.006 269.607 120.252C270.524 120.498 271.315 120.879 271.978 121.395C272.65 121.911 273.133 122.574 273.428 123.385C273.731 124.187 273.792 125.15 273.612 126.272L271.487 139H266.523L266.965 136.383H266.818C266.417 136.973 265.925 137.493 265.344 137.943C264.762 138.386 264.095 138.734 263.341 138.988C262.588 139.233 261.744 139.356 260.81 139.356ZM262.911 135.744C263.673 135.744 264.373 135.593 265.012 135.29C265.659 134.978 266.191 134.561 266.609 134.037C267.035 133.512 267.305 132.919 267.42 132.255L267.739 130.253C267.576 130.359 267.338 130.453 267.027 130.535C266.724 130.617 266.392 130.695 266.032 130.769C265.68 130.834 265.323 130.896 264.963 130.953C264.602 131.002 264.279 131.051 263.992 131.1C263.362 131.19 262.796 131.334 262.297 131.53C261.797 131.727 261.392 131.993 261.081 132.329C260.769 132.656 260.577 133.066 260.503 133.557C260.388 134.27 260.556 134.815 261.007 135.191C261.466 135.56 262.1 135.744 262.911 135.744Z" fill="#CF9F48"/>
<path d="M172.648 83.8182C172.648 85.9659 172.26 87.822 171.484 89.3864C170.709 90.9508 169.645 92.1572 168.293 93.0057C166.94 93.8542 165.396 94.2784 163.659 94.2784C161.922 94.2784 160.378 93.8542 159.026 93.0057C157.673 92.1572 156.609 90.9508 155.834 89.3864C155.058 87.822 154.67 85.9659 154.67 83.8182C154.67 81.6705 155.058 79.8144 155.834 78.25C156.609 76.6856 157.673 75.4792 159.026 74.6307C160.378 73.7822 161.922 73.358 163.659 73.358C165.396 73.358 166.94 73.7822 168.293 74.6307C169.645 75.4792 170.709 76.6856 171.484 78.25C172.26 79.8144 172.648 81.6705 172.648 83.8182ZM170.261 83.8182C170.261 82.0549 169.966 80.5668 169.376 79.3537C168.793 78.1406 168.001 77.2225 167 76.5994C166.006 75.9763 164.892 75.6648 163.659 75.6648C162.426 75.6648 161.309 75.9763 160.308 76.5994C159.314 77.2225 158.522 78.1406 157.932 79.3537C157.348 80.5668 157.057 82.0549 157.057 83.8182C157.057 85.5814 157.348 87.0696 157.932 88.2827C158.522 89.4957 159.314 90.4138 160.308 91.0369C161.309 91.66 162.426 91.9716 163.659 91.9716C164.892 91.9716 166.006 91.66 167 91.0369C168.001 90.4138 168.793 89.4957 169.376 88.2827C169.966 87.0696 170.261 85.5814 170.261 83.8182ZM183.277 78.7273V80.7159H175.044V78.7273H183.277ZM177.51 94V76.6193C177.51 75.7443 177.715 75.0152 178.126 74.4318C178.537 73.8485 179.071 73.411 179.727 73.1193C180.384 72.8277 181.076 72.6818 181.805 72.6818C182.382 72.6818 182.853 72.7282 183.217 72.821C183.582 72.9138 183.854 73 184.033 73.0795L183.357 75.108C183.237 75.0682 183.071 75.0185 182.859 74.9588C182.654 74.8991 182.382 74.8693 182.044 74.8693C181.268 74.8693 180.708 75.0649 180.364 75.456C180.026 75.8471 179.857 76.4205 179.857 77.1761V94H177.51ZM193.367 78.7273V80.7159H185.134V78.7273H193.367ZM187.6 94V76.6193C187.6 75.7443 187.805 75.0152 188.216 74.4318C188.627 73.8485 189.161 73.411 189.817 73.1193C190.473 72.8277 191.166 72.6818 191.895 72.6818C192.472 72.6818 192.943 72.7282 193.307 72.821C193.672 72.9138 193.944 73 194.123 73.0795L193.446 75.108C193.327 75.0682 193.161 75.0185 192.949 74.9588C192.744 74.8991 192.472 74.8693 192.134 74.8693C191.358 74.8693 190.798 75.0649 190.453 75.456C190.115 75.8471 189.946 76.4205 189.946 77.1761V94H187.6ZM196.656 94V78.7273H199.002V94H196.656ZM197.849 76.1818C197.391 76.1818 196.997 76.026 196.665 75.7145C196.341 75.4029 196.178 75.0284 196.178 74.5909C196.178 74.1534 196.341 73.7789 196.665 73.4673C196.997 73.1558 197.391 73 197.849 73C198.306 73 198.697 73.1558 199.022 73.4673C199.353 73.7789 199.519 74.1534 199.519 74.5909C199.519 75.0284 199.353 75.4029 199.022 75.7145C198.697 76.026 198.306 76.1818 197.849 76.1818ZM209.505 94.3182C208.073 94.3182 206.84 93.9801 205.806 93.304C204.772 92.6278 203.976 91.6965 203.419 90.5099C202.863 89.3234 202.584 87.9678 202.584 86.4432C202.584 84.892 202.869 83.5232 203.439 82.3366C204.016 81.1435 204.818 80.2121 205.846 79.5426C206.88 78.8665 208.086 78.5284 209.465 78.5284C210.539 78.5284 211.507 78.7273 212.368 79.125C213.23 79.5227 213.936 80.0795 214.486 80.7955C215.036 81.5114 215.378 82.3466 215.51 83.3011H213.164C212.985 82.6051 212.587 81.9886 211.971 81.4517C211.361 80.9081 210.539 80.6364 209.505 80.6364C208.59 80.6364 207.788 80.875 207.098 81.3523C206.416 81.8229 205.882 82.4891 205.498 83.3509C205.12 84.206 204.931 85.2102 204.931 86.3636C204.931 87.5436 205.116 88.571 205.488 89.446C205.865 90.321 206.396 91.0005 207.078 91.4844C207.768 91.9683 208.577 92.2102 209.505 92.2102C210.114 92.2102 210.668 92.1042 211.165 91.892C211.662 91.6799 212.083 91.375 212.428 90.9773C212.773 90.5795 213.018 90.1023 213.164 89.5455H215.51C215.378 90.447 215.05 91.259 214.526 91.9815C214.009 92.6974 213.323 93.2675 212.468 93.6918C211.619 94.1094 210.632 94.3182 209.505 94.3182ZM218.941 94V78.7273H221.287V94H218.941ZM220.134 76.1818C219.676 76.1818 219.282 76.026 218.951 75.7145C218.626 75.4029 218.463 75.0284 218.463 74.5909C218.463 74.1534 218.626 73.7789 218.951 73.4673C219.282 73.1558 219.676 73 220.134 73C220.591 73 220.982 73.1558 221.307 73.4673C221.639 73.7789 221.804 74.1534 221.804 74.5909C221.804 75.0284 221.639 75.4029 221.307 75.7145C220.982 76.026 220.591 76.1818 220.134 76.1818ZM230.08 94.358C229.112 94.358 228.233 94.1757 227.445 93.8111C226.656 93.4399 226.029 92.9062 225.565 92.2102C225.101 91.5076 224.869 90.6591 224.869 89.6648C224.869 88.7898 225.042 88.0805 225.386 87.5369C225.731 86.9867 226.192 86.5559 226.768 86.2443C227.345 85.9328 227.982 85.7008 228.678 85.5483C229.38 85.3892 230.086 85.2633 230.795 85.1705C231.723 85.0511 232.476 84.9616 233.053 84.902C233.636 84.8357 234.06 84.7263 234.325 84.5739C234.597 84.4214 234.733 84.1562 234.733 83.7784V83.6989C234.733 82.7178 234.464 81.9555 233.928 81.4119C233.397 80.8684 232.592 80.5966 231.511 80.5966C230.391 80.5966 229.513 80.8419 228.876 81.3324C228.24 81.8229 227.793 82.3466 227.534 82.9034L225.307 82.108C225.705 81.1799 226.235 80.4574 226.898 79.9403C227.567 79.4167 228.296 79.0521 229.085 78.8466C229.881 78.6345 230.663 78.5284 231.432 78.5284C231.922 78.5284 232.486 78.5881 233.122 78.7074C233.765 78.8201 234.385 79.0554 234.982 79.4134C235.585 79.7713 236.085 80.3116 236.483 81.0341C236.881 81.7566 237.08 82.7244 237.08 83.9375V94H234.733V91.9318H234.614C234.455 92.2633 234.189 92.6179 233.818 92.9957C233.447 93.3736 232.953 93.6951 232.337 93.9602C231.72 94.2254 230.968 94.358 230.08 94.358ZM230.438 92.25C231.366 92.25 232.148 92.0677 232.784 91.7031C233.427 91.3385 233.911 90.8679 234.236 90.2912C234.567 89.7145 234.733 89.108 234.733 88.4716V86.3239C234.634 86.4432 234.415 86.5526 234.077 86.652C233.745 86.7448 233.361 86.8277 232.923 86.9006C232.492 86.9669 232.071 87.0265 231.661 87.0795C231.256 87.1259 230.928 87.1657 230.676 87.1989C230.066 87.2784 229.496 87.4077 228.966 87.5866C228.442 87.759 228.018 88.0208 227.693 88.3722C227.375 88.7169 227.216 89.1875 227.216 89.7841C227.216 90.5994 227.518 91.2159 228.121 91.6335C228.731 92.0445 229.503 92.25 230.438 92.25ZM243.709 73.6364V94H241.363V73.6364H243.709Z" fill="#CF9F48"/>
<path d="M117.602 162.727C117.483 161.72 116.999 160.938 116.151 160.381C115.302 159.824 114.261 159.545 113.028 159.545C112.127 159.545 111.338 159.691 110.662 159.983C109.992 160.275 109.469 160.676 109.091 161.186C108.72 161.696 108.534 162.277 108.534 162.926C108.534 163.47 108.663 163.937 108.922 164.328C109.187 164.713 109.525 165.034 109.936 165.293C110.347 165.545 110.778 165.753 111.229 165.919C111.679 166.078 112.094 166.207 112.472 166.307L114.54 166.864C115.07 167.003 115.66 167.195 116.31 167.44C116.966 167.686 117.592 168.02 118.189 168.445C118.792 168.862 119.289 169.399 119.68 170.055C120.071 170.712 120.267 171.517 120.267 172.472C120.267 173.572 119.979 174.566 119.402 175.455C118.832 176.343 117.997 177.049 116.896 177.572C115.803 178.096 114.473 178.358 112.909 178.358C111.451 178.358 110.188 178.123 109.121 177.652C108.06 177.181 107.225 176.525 106.615 175.683C106.012 174.841 105.67 173.864 105.591 172.75H108.136C108.203 173.519 108.461 174.155 108.912 174.659C109.369 175.156 109.946 175.527 110.642 175.773C111.345 176.011 112.1 176.131 112.909 176.131C113.85 176.131 114.696 175.978 115.445 175.673C116.194 175.362 116.787 174.931 117.224 174.381C117.662 173.824 117.881 173.174 117.881 172.432C117.881 171.756 117.692 171.205 117.314 170.781C116.936 170.357 116.439 170.012 115.822 169.747C115.206 169.482 114.54 169.25 113.824 169.051L111.318 168.335C109.727 167.878 108.468 167.225 107.54 166.376C106.612 165.528 106.148 164.418 106.148 163.045C106.148 161.905 106.456 160.911 107.072 160.062C107.696 159.207 108.531 158.545 109.578 158.074C110.632 157.597 111.809 157.358 113.108 157.358C114.42 157.358 115.587 157.593 116.608 158.064C117.629 158.528 118.438 159.164 119.034 159.973C119.637 160.782 119.955 161.7 119.989 162.727H117.602ZM130.407 178.318C128.935 178.318 127.666 177.993 126.598 177.344C125.538 176.688 124.719 175.773 124.142 174.599C123.572 173.42 123.287 172.047 123.287 170.483C123.287 168.919 123.572 167.54 124.142 166.347C124.719 165.147 125.521 164.212 126.549 163.543C127.583 162.866 128.789 162.528 130.168 162.528C130.963 162.528 131.749 162.661 132.525 162.926C133.3 163.191 134.006 163.622 134.642 164.219C135.279 164.809 135.786 165.591 136.164 166.565C136.542 167.54 136.73 168.74 136.73 170.165V171.159H124.958V169.131H134.344C134.344 168.269 134.172 167.5 133.827 166.824C133.489 166.148 133.005 165.614 132.375 165.223C131.752 164.832 131.016 164.636 130.168 164.636C129.233 164.636 128.425 164.868 127.742 165.332C127.066 165.79 126.545 166.386 126.181 167.122C125.816 167.858 125.634 168.647 125.634 169.489V170.841C125.634 171.994 125.833 172.972 126.23 173.774C126.635 174.57 127.195 175.176 127.911 175.594C128.627 176.005 129.459 176.21 130.407 176.21C131.023 176.21 131.58 176.124 132.077 175.952C132.581 175.773 133.015 175.508 133.38 175.156C133.744 174.798 134.026 174.354 134.225 173.824L136.492 174.46C136.253 175.229 135.852 175.905 135.289 176.489C134.725 177.065 134.029 177.516 133.201 177.841C132.372 178.159 131.441 178.318 130.407 178.318ZM144.794 178.358C143.827 178.358 142.948 178.176 142.159 177.811C141.371 177.44 140.744 176.906 140.28 176.21C139.816 175.508 139.584 174.659 139.584 173.665C139.584 172.79 139.757 172.08 140.101 171.537C140.446 170.987 140.907 170.556 141.483 170.244C142.06 169.933 142.696 169.701 143.392 169.548C144.095 169.389 144.801 169.263 145.51 169.17C146.438 169.051 147.191 168.962 147.767 168.902C148.351 168.836 148.775 168.726 149.04 168.574C149.312 168.421 149.448 168.156 149.448 167.778V167.699C149.448 166.718 149.179 165.955 148.642 165.412C148.112 164.868 147.307 164.597 146.226 164.597C145.106 164.597 144.228 164.842 143.591 165.332C142.955 165.823 142.507 166.347 142.249 166.903L140.022 166.108C140.419 165.18 140.95 164.457 141.613 163.94C142.282 163.417 143.011 163.052 143.8 162.847C144.596 162.634 145.378 162.528 146.147 162.528C146.637 162.528 147.201 162.588 147.837 162.707C148.48 162.82 149.1 163.055 149.696 163.413C150.3 163.771 150.8 164.312 151.198 165.034C151.596 165.757 151.794 166.724 151.794 167.938V178H149.448V175.932H149.328C149.169 176.263 148.904 176.618 148.533 176.996C148.162 177.374 147.668 177.695 147.051 177.96C146.435 178.225 145.683 178.358 144.794 178.358ZM145.152 176.25C146.08 176.25 146.863 176.068 147.499 175.703C148.142 175.339 148.626 174.868 148.951 174.291C149.282 173.714 149.448 173.108 149.448 172.472V170.324C149.348 170.443 149.13 170.553 148.792 170.652C148.46 170.745 148.076 170.828 147.638 170.901C147.207 170.967 146.786 171.027 146.375 171.08C145.971 171.126 145.643 171.166 145.391 171.199C144.781 171.278 144.211 171.408 143.681 171.587C143.157 171.759 142.733 172.021 142.408 172.372C142.09 172.717 141.931 173.187 141.931 173.784C141.931 174.599 142.232 175.216 142.836 175.634C143.445 176.045 144.218 176.25 145.152 176.25ZM158.424 157.636V178H156.077V157.636H158.424ZM176.801 178.318C175.423 178.318 174.213 177.99 173.172 177.334C172.138 176.678 171.329 175.759 170.746 174.58C170.169 173.4 169.881 172.021 169.881 170.443C169.881 168.852 170.169 167.464 170.746 166.277C171.329 165.09 172.138 164.169 173.172 163.513C174.213 162.857 175.423 162.528 176.801 162.528C178.18 162.528 179.387 162.857 180.421 163.513C181.462 164.169 182.27 165.09 182.847 166.277C183.43 167.464 183.722 168.852 183.722 170.443C183.722 172.021 183.43 173.4 182.847 174.58C182.27 175.759 181.462 176.678 180.421 177.334C179.387 177.99 178.18 178.318 176.801 178.318ZM176.801 176.21C177.849 176.21 178.711 175.942 179.387 175.405C180.063 174.868 180.563 174.162 180.888 173.287C181.213 172.412 181.375 171.464 181.375 170.443C181.375 169.422 181.213 168.471 180.888 167.589C180.563 166.708 180.063 165.995 179.387 165.452C178.711 164.908 177.849 164.636 176.801 164.636C175.754 164.636 174.892 164.908 174.216 165.452C173.54 165.995 173.04 166.708 172.715 167.589C172.39 168.471 172.228 169.422 172.228 170.443C172.228 171.464 172.39 172.412 172.715 173.287C173.04 174.162 173.54 174.868 174.216 175.405C174.892 175.942 175.754 176.21 176.801 176.21ZM194.105 162.727V164.716H185.872V162.727H194.105ZM188.338 178V160.619C188.338 159.744 188.544 159.015 188.955 158.432C189.366 157.848 189.899 157.411 190.555 157.119C191.212 156.828 191.904 156.682 192.634 156.682C193.21 156.682 193.681 156.728 194.045 156.821C194.41 156.914 194.682 157 194.861 157.08L194.185 159.108C194.065 159.068 193.9 159.018 193.688 158.959C193.482 158.899 193.21 158.869 192.872 158.869C192.097 158.869 191.536 159.065 191.192 159.456C190.854 159.847 190.685 160.42 190.685 161.176V178H188.338ZM212.985 171.636H215.689L217.956 174.619L218.553 175.415L221.934 179.909H219.229L217.002 176.926L216.445 176.17L212.985 171.636ZM222.769 167.818C222.769 169.966 222.381 171.822 221.605 173.386C220.83 174.951 219.766 176.157 218.414 177.006C217.061 177.854 215.517 178.278 213.78 178.278C212.043 178.278 210.499 177.854 209.147 177.006C207.794 176.157 206.73 174.951 205.955 173.386C205.179 171.822 204.792 169.966 204.792 167.818C204.792 165.67 205.179 163.814 205.955 162.25C206.73 160.686 207.794 159.479 209.147 158.631C210.499 157.782 212.043 157.358 213.78 157.358C215.517 157.358 217.061 157.782 218.414 158.631C219.766 159.479 220.83 160.686 221.605 162.25C222.381 163.814 222.769 165.67 222.769 167.818ZM220.382 167.818C220.382 166.055 220.087 164.567 219.498 163.354C218.914 162.141 218.122 161.223 217.121 160.599C216.127 159.976 215.013 159.665 213.78 159.665C212.547 159.665 211.43 159.976 210.429 160.599C209.435 161.223 208.643 162.141 208.053 163.354C207.47 164.567 207.178 166.055 207.178 167.818C207.178 169.581 207.47 171.07 208.053 172.283C208.643 173.496 209.435 174.414 210.429 175.037C211.43 175.66 212.547 175.972 213.78 175.972C215.013 175.972 216.127 175.66 217.121 175.037C218.122 174.414 218.914 173.496 219.498 172.283C220.087 171.07 220.382 169.581 220.382 167.818ZM236.222 171.756V162.727H238.569V178H236.222V175.415H236.063C235.705 176.19 235.148 176.85 234.392 177.393C233.637 177.93 232.682 178.199 231.529 178.199C230.574 178.199 229.726 177.99 228.983 177.572C228.241 177.148 227.658 176.512 227.233 175.663C226.809 174.808 226.597 173.731 226.597 172.432V162.727H228.944V172.273C228.944 173.386 229.255 174.275 229.878 174.938C230.508 175.6 231.31 175.932 232.284 175.932C232.868 175.932 233.461 175.783 234.064 175.484C234.674 175.186 235.185 174.729 235.596 174.112C236.013 173.496 236.222 172.71 236.222 171.756ZM247.361 178.358C246.393 178.358 245.515 178.176 244.726 177.811C243.937 177.44 243.311 176.906 242.847 176.21C242.383 175.508 242.151 174.659 242.151 173.665C242.151 172.79 242.323 172.08 242.668 171.537C243.012 170.987 243.473 170.556 244.05 170.244C244.626 169.933 245.263 169.701 245.959 169.548C246.661 169.389 247.367 169.263 248.077 169.17C249.005 169.051 249.757 168.962 250.334 168.902C250.917 168.836 251.341 168.726 251.607 168.574C251.878 168.421 252.014 168.156 252.014 167.778V167.699C252.014 166.718 251.746 165.955 251.209 165.412C250.679 164.868 249.873 164.597 248.793 164.597C247.672 164.597 246.794 164.842 246.158 165.332C245.521 165.823 245.074 166.347 244.815 166.903L242.588 166.108C242.986 165.18 243.516 164.457 244.179 163.94C244.848 163.417 245.578 163.052 246.366 162.847C247.162 162.634 247.944 162.528 248.713 162.528C249.204 162.528 249.767 162.588 250.403 162.707C251.046 162.82 251.666 163.055 252.263 163.413C252.866 163.771 253.366 164.312 253.764 165.034C254.162 165.757 254.361 166.724 254.361 167.938V178H252.014V175.932H251.895C251.736 176.263 251.471 176.618 251.099 176.996C250.728 177.374 250.234 177.695 249.618 177.96C249.001 178.225 248.249 178.358 247.361 178.358ZM247.719 176.25C248.647 176.25 249.429 176.068 250.065 175.703C250.708 175.339 251.192 174.868 251.517 174.291C251.848 173.714 252.014 173.108 252.014 172.472V170.324C251.915 170.443 251.696 170.553 251.358 170.652C251.027 170.745 250.642 170.828 250.205 170.901C249.774 170.967 249.353 171.027 248.942 171.08C248.537 171.126 248.209 171.166 247.957 171.199C247.348 171.278 246.777 171.408 246.247 171.587C245.723 171.759 245.299 172.021 244.974 172.372C244.656 172.717 244.497 173.187 244.497 173.784C244.497 174.599 244.799 175.216 245.402 175.634C246.012 176.045 246.784 176.25 247.719 176.25ZM260.99 157.636V178H258.644V157.636H260.99ZM265.288 178V162.727H267.635V178H265.288ZM266.482 160.182C266.024 160.182 265.63 160.026 265.298 159.714C264.973 159.403 264.811 159.028 264.811 158.591C264.811 158.153 264.973 157.779 265.298 157.467C265.63 157.156 266.024 157 266.482 157C266.939 157 267.33 157.156 267.655 157.467C267.986 157.779 268.152 158.153 268.152 158.591C268.152 159.028 267.986 159.403 267.655 159.714C267.33 160.026 266.939 160.182 266.482 160.182ZM278.575 162.727V164.716H270.66V162.727H278.575ZM272.967 159.068H275.314V173.625C275.314 174.288 275.41 174.785 275.602 175.116C275.801 175.441 276.053 175.66 276.358 175.773C276.669 175.879 276.997 175.932 277.342 175.932C277.6 175.932 277.813 175.919 277.978 175.892C278.144 175.859 278.277 175.832 278.376 175.812L278.853 177.92C278.694 177.98 278.472 178.04 278.187 178.099C277.902 178.166 277.541 178.199 277.103 178.199C276.44 178.199 275.791 178.056 275.154 177.771C274.525 177.486 274.001 177.052 273.583 176.469C273.172 175.885 272.967 175.15 272.967 174.261V159.068ZM283.616 183.727C283.218 183.727 282.864 183.694 282.552 183.628C282.241 183.568 282.025 183.509 281.906 183.449L282.502 181.381C283.073 181.527 283.576 181.58 284.014 181.54C284.451 181.5 284.839 181.304 285.177 180.953C285.522 180.608 285.837 180.048 286.122 179.273L286.559 178.08L280.912 162.727H283.457L287.673 174.898H287.832L292.048 162.727H294.593L288.11 180.227C287.819 181.016 287.458 181.669 287.027 182.186C286.596 182.71 286.095 183.098 285.525 183.349C284.962 183.601 284.325 183.727 283.616 183.727Z" fill="#CF9F48"/>
<path d="M200 42.5C242.182 42.5 280.346 51.8879 307.946 67.041C335.565 82.2043 352.5 103.071 352.5 126C352.5 148.929 335.565 169.796 307.946 184.959C280.346 200.112 242.182 209.5 200 209.5C157.818 209.5 119.654 200.112 92.0537 184.959C64.4349 169.796 47.5 148.929 47.5 126C47.5 103.071 64.4349 82.2043 92.0537 67.041C119.654 51.8879 157.818 42.5 200 42.5Z" stroke="#CF9F48"/>
</svg>
