<svg width="915" height="952" viewBox="0 0 915 952" fill="none" xmlns="http://www.w3.org/2000/svg">
<path d="M607.882 256.662C594.695 256.57 591.45 273.508 592.382 286.662C593.232 298.658 596.862 312.293 608.882 312.662C621.81 313.06 625.398 296.586 624.882 283.662C624.385 271.212 620.342 256.75 607.882 256.662Z" fill="black" fill-opacity="0.75"/>
<path d="M476.882 261.162C463.616 260.704 460.197 278.496 461.882 291.662C463.306 302.785 467.169 315.239 478.382 315.162C490.35 315.08 493.054 300.129 492.882 288.162C492.706 275.907 489.131 261.585 476.882 261.162Z" fill="black" fill-opacity="0.75"/>
<path d="M617.382 170.162C570.382 168.162 565.382 215.162 565.382 215.162C566.051 218.361 567.39 218.683 571.882 216.162C603.791 197.249 621.725 195.53 653.882 213.162C658.289 215.129 660.461 215.3 662.882 211.162C662.882 211.162 664.382 172.162 617.382 170.162Z" fill="black" fill-opacity="0.75"/>
<path d="M473.382 180.162C436.382 180.662 439.882 213.662 439.882 213.662C440.334 217.43 441.254 218.466 444.882 217.162C469.26 207.371 482.362 207.968 504.882 217.162C512.016 218.841 514.203 217.86 514.382 212.162C514.382 212.162 510.382 179.662 473.382 180.162Z" fill="black" fill-opacity="0.75"/>
<path fill-rule="evenodd" clip-rule="evenodd" d="M407.382 443.162L455.882 681.662C455.882 681.662 339.269 722.696 318.382 580.662C303.382 478.662 407.382 443.162 407.382 443.162ZM444.882 676.162L399.882 457.162C389.894 460.713 384.986 463.171 377.882 468.662L443.382 676.162H444.882ZM438.382 676.662L370.882 473.662C358.311 484.071 352.476 490.053 344.382 501.162L429.882 676.662C433.479 677.585 435.279 677.392 438.382 676.662ZM424.382 676.662L339.882 510.662C329.664 531.212 326.594 543.226 326.882 565.662L410.882 676.162C416.418 677.86 419.345 677.805 424.382 676.662ZM401.382 673.662L326.882 578.662C326.882 578.662 327.382 607.662 349.882 640.662C372.382 673.662 401.382 673.662 401.382 673.662Z" fill="black" fill-opacity="0.75"/>
<path d="M239.882 798.162C246.309 803.533 250.12 804.278 257.382 800.162L255.882 782.162C255.882 782.162 263.567 774.451 263.882 768.162C264.347 758.873 258.157 750.36 248.882 749.662C240.032 748.996 231.805 755.297 231.382 764.162C231.069 770.718 239.882 778.662 239.882 778.662V798.162Z" fill="black" fill-opacity="0.75"/>
<path d="M782.882 296.662C782.882 296.662 778.382 282.162 771.882 281.662C765.382 281.162 760.882 295.162 760.882 295.162C770.219 307.884 771.658 315.599 765.382 330.662C765.273 322.19 765.487 316.832 763.882 311.662C761.984 307.245 760.437 306.416 756.882 307.662C752.908 312.685 750.657 316.223 746.882 324.162C749.119 288.339 759.382 270.162 772.882 270.162C782.882 273.662 784.806 284.877 782.882 296.662Z" fill="black" fill-opacity="0.75"/>
<path fill-rule="evenodd" clip-rule="evenodd" d="M101.38 385.163C-39.1187 457.163 -21.1183 619.163 79.3805 675.663L83.3817 859.663L428.382 951.163L667.882 863.163V805.663V790.662V705.662C689.508 722.534 702.87 726.221 729.382 721.662C777.044 746.242 804.869 753.897 859.382 740.662C859.382 740.662 872.5 834.162 868.882 837.162L867.5 851.319C877.803 853.557 884.11 854.831 884.382 854.663C886 853.662 874.382 727.163 874.382 727.163C888.667 708.602 892.923 696.332 895.882 672.163C907.755 665.513 911.373 660.443 913.882 649.663C921.977 497.223 881.882 426.663 750.382 400.663L748.382 376.663C798.626 360.531 815.245 340.103 812.382 271.663C825.391 255.026 828.581 244.224 826.882 222.163C842.382 -15.3383 564.382 -56.3379 457.882 70.1631C401.882 96.1621 383.382 184.662 418.882 218.662V228.162C400.882 233.162 397.882 248.662 408.382 255.662C408.837 301.009 414.038 319.889 436.382 336.162C433.433 381.86 436.619 405.714 460.382 441.662C452.849 445.301 448.857 447.462 442.382 451.662L433.382 408.162L345.882 391.662C335.18 359.015 323.002 352.787 291.382 361.662C264.382 315.662 230.544 294.985 202.882 312.162C186.081 309.46 177.97 311.838 165.882 323.162C146.149 327.509 138.997 333.566 130.882 348.662C112.778 357.582 106.392 366.022 101.38 385.163ZM287.382 382.662L331.882 389.162C331.882 389.162 331.882 372.662 313.382 370.162C294.882 367.662 287.382 382.662 287.382 382.662ZM282.382 370.162L272.882 380.662L231.882 374.162C235.828 359.4 236.032 351.28 234.382 338.162C220.817 380.053 213.231 400.204 199.882 400.162C194.197 400.107 191.931 397.533 189.882 388.162C186.882 374.445 199.522 322.149 218.382 318.162C242.032 318.379 256.331 334.076 282.382 370.162ZM180.882 398.162C179.012 370.248 181.578 354.187 193.382 324.662C164.903 326.306 156.882 359.662 163.382 398.162C165.382 404.162 177.882 403.662 180.882 398.162ZM155.382 404.162C148.643 380.792 148.706 366.702 156.882 339.662C134.908 355.178 131.882 383.662 138.882 398.162C144.791 406.477 148.762 408.029 155.382 404.162ZM131.382 405.162C124.379 391.958 123.451 383.629 125.382 367.662C125.382 367.662 111.204 381.09 113.382 391.162C117.382 409.662 131.382 405.162 131.382 405.162ZM110.882 410.662C106.317 405.974 105.052 403.194 103.382 398.162C-1.61816 446.662 -19.6182 592.162 79.3805 662.162C90.1798 662.763 96.256 663.802 106.541 666.445C12.3808 606.333 12.0012 470.09 110.882 410.662ZM355.882 408.162C342.761 411.391 336.617 414.315 326.882 420.662L218.382 401.662C222.054 396.59 223.971 393.666 226.882 388.162L355.882 408.162ZM211.882 406.662L321.382 424.662C311.86 431.815 307.382 435.882 299.882 443.162L132.882 417.162L139.382 412.662C148.026 416.5 153.195 416.624 162.382 412.662C173.21 415.122 178.538 414.29 186.382 407.662C197.462 412.155 203.109 412.128 211.882 406.662ZM297.882 447.662L111.882 419.162C97.5399 426.297 91.7523 431.593 83.3818 442.162L280.382 472.662L297.882 447.662ZM56.8818 480.662C62.5949 466.324 67.0838 458.79 78.3818 446.662L277.382 478.662L263.382 514.162L56.8818 480.662ZM254.882 566.662L261.382 520.662L54.3818 486.162C48.2082 502.724 45.8861 512.31 44.3818 530.162L254.882 566.662ZM261.382 619.162L254.882 573.162L43.8818 535.662C43.9153 553.446 45.0861 563.178 51.3818 579.662L261.382 619.162ZM279.382 658.162L263.382 625.662L53.3818 586.162C57.0389 599.043 59.9568 606.069 69.3818 617.662L279.382 658.162ZM299.882 687.662L283.882 666.162L73.8818 623.162C79.8887 632.832 84.8849 638.21 95.8818 647.162L299.882 687.662ZM326.882 709.662C321.549 704.662 310.582 694.662 309.382 694.662L105.882 654.662C112.235 660.999 116.645 664.387 128.882 669.662L326.882 709.662ZM89.8818 696.662V675.663L360.382 728.662C385.326 733.637 399.25 734.574 423.882 730.662V762.162L89.8818 696.662ZM423.882 935.662V774.162L397.382 767.162L395.882 907.162L121.382 838.662V713.162L92.3818 707.662L95.8818 852.662L423.882 935.662ZM387.882 765.162L296.882 748.662V791.162L387.882 810.662V765.162ZM387.882 862.162V818.162L294.382 798.162C284.382 837.739 210.882 838.662 203.882 778.662L129.382 762.162V801.162L387.882 862.162ZM129.382 753.162V714.662L203.382 729.662V771.162L129.382 753.162ZM287.382 746.662L212.882 731.662V782.162C225.382 826.662 276.882 828.162 286.382 793.662L287.382 746.662ZM477.882 697.662L420.882 418.162C420.882 418.162 291.882 436.662 296.882 580.662C329.382 768.162 477.882 697.662 477.882 697.662ZM433.382 762.162V728.662L604.882 682.662C613.869 691.416 620.209 692.302 633.382 687.162C637.55 699.446 641.959 703.171 655.382 701.162V705.662L433.382 762.162ZM459.882 767.162L433.382 774.162L434.382 935.662L655.382 855.162V717.162L630.382 724.162V843.662L459.882 905.162V767.162ZM622.882 726.162L469.382 765.162V805.663L622.882 759.162V726.162ZM469.382 858.662V813.162L622.882 767.162V805.663L469.382 858.662ZM469.382 893.162V865.662L622.882 813.162V837.162L469.382 893.162ZM898.882 637.162C903.39 497.153 873.447 446.572 750.382 416.162C750.382 548.662 596.882 574.162 555.882 503.162L538.382 499.662C541.554 518.278 547.461 527.593 561.882 543.162C541.465 534.903 534.307 524.388 528.882 496.162C502.335 484.911 489.271 475.033 467.882 453.662L444.882 466.162L491.382 701.162L587.382 676.162C577.345 670.248 574.211 665.582 572.382 655.162C562.245 660.414 556.555 659.914 546.382 652.162C528.591 621.499 580.382 563.662 622.382 559.662C668.17 561.709 690.422 571.858 722.882 608.162C737.136 606.949 744.927 607.126 758.382 609.662C759.401 526.942 769.456 494.307 808.882 467.162C777.099 507.061 771.103 538.177 771.882 602.162C834.256 588.175 860.831 598.504 898.882 637.162ZM734.382 407.162C687.303 480.727 651.376 500.909 573.382 506.162C644.382 564.662 747.882 490.662 734.382 407.162ZM884.882 642.662C853.467 614.181 830.903 608.096 783.382 611.662C808.818 616.666 819.16 622.448 831.882 637.162C794.695 625.449 773.598 621.985 735.382 624.162C748.559 654.3 750.017 665.539 742.882 676.162C711.125 605.064 688.752 578.504 634.382 573.162C604.273 569.158 587.667 581.071 558.382 619.662C544.382 644.662 556.882 657.662 580.882 635.162C605.294 591.432 621.866 584.083 653.882 585.662C616.079 600.699 601.624 614.63 585.882 647.662C582.382 667.162 599.52 671.162 604.882 660.162C616.156 637.034 624.987 625.684 650.382 611.662C664.669 608.249 670.676 607.95 674.882 612.662C645.979 626.408 629.829 634.178 615.382 663.662C607.382 681.662 627.31 685.25 636.382 671.162C646.96 654.735 656.185 648.219 676.382 639.662C683.455 637.764 686.373 638.485 689.882 642.662C654.492 664.247 639.38 675.06 644.382 685.662C648.267 690.548 663.829 684.908 691.882 674.662C693.871 678.857 683.546 693.487 678.882 695.162C695.558 709.351 707.539 711.765 733.382 707.162C835.882 754.662 877.562 742.601 884.882 642.662ZM798.382 307.662C785.272 350.23 770.666 360.18 735.382 360.162C705.382 476.162 593.382 515.162 522.882 476.162C456.282 436.374 445.945 404.324 446.882 340.162C462.309 343.356 470.834 343.307 485.882 339.662L489.882 348.662C471.179 356.835 465.076 365.939 464.382 392.662C473.491 410.169 482.908 412.452 503.882 409.162C510.549 427.495 533.582 463.762 572.382 462.162C611.182 460.562 632.882 432.662 629.382 399.662C641.51 394.468 647.258 391.012 649.382 380.662C637.79 347.605 619.134 341.917 578.382 339.662L572.882 333.662C554.285 350.8 543.815 355.94 524.882 355.162C489.882 351.662 494.382 315.162 519.382 305.162C526.498 293.367 527.725 286.664 528.382 274.662C526.078 279.847 524.521 282.541 520.882 286.662L518.882 255.662C531.539 249.496 539.086 250.395 552.882 255.162C551.382 383.662 691.382 347.662 673.382 253.162L703.382 247.662L711.882 290.162C717.516 294.881 721.353 295.728 729.882 292.662C743.803 255.245 753.696 242.936 777.382 246.162C800.324 259.642 802.671 274.713 798.382 307.662ZM600.382 402.662C575.78 401.308 563.231 399.071 542.882 392.662C530.335 400.039 522.724 403.367 508.382 408.162C542.975 416.195 563.125 415.161 600.382 402.662ZM691.382 186.162L701.382 232.162L664.382 230.162C636.382 202.162 583.882 205.662 555.382 238.662C535.289 232.949 527.107 234.624 515.382 242.162C496.221 219.37 475.771 218.448 432.882 224.662C431.288 205.737 432.536 195.623 443.882 179.662C520.882 144.162 638.882 146.162 691.382 186.162ZM443.382 312.662L423.382 253.162C418.277 269.507 418.121 279.557 424.382 300.162C437.487 329.874 461.382 337.662 488.382 323.662C494.164 314.279 498 309.156 505.882 300.162C523.382 236.662 482.439 228.762 436.382 242.162L443.382 312.662ZM613.382 327.162C560.382 330.662 564.382 256.662 564.382 256.662C564.382 256.662 559.882 229.162 613.382 227.162C666.882 225.162 662.882 265.662 662.882 265.662C662.882 265.662 666.382 323.662 613.382 327.162ZM769.882 230.162C655.882 91.6621 432.882 139.662 418.882 191.162C408.223 153.822 421.882 111.162 444.882 95.1621C585.382 20.6621 727.893 70.1631 798.382 190.162C813.148 215.3 816.422 229.17 806.382 253.162C796.946 236.878 788.934 232.021 769.882 230.162ZM809.382 173.162C734.882 61.1621 631.382 21.1621 490.382 59.1621C490.382 59.1621 539.882 0.662109 662.382 19.6621C784.882 38.6621 809.382 173.162 809.382 173.162ZM129.382 832.162V808.162L387.882 869.662V895.662L129.382 832.162ZM555.882 446.662C556.808 446.241 558.217 445.394 560.056 444.289C569.133 438.833 588.683 427.083 612.382 429.162C603.882 447.662 570.382 458.162 555.882 446.662ZM370.382 409.662L392.882 413.662C272.882 451.662 235.882 655.162 389.382 719.162C389.382 719.162 261.382 714.662 263.382 558.662C272.382 437.662 370.382 409.662 370.382 409.662Z" fill="black" fill-opacity="0.75"/>
</svg>
