<svg width="917" height="953" viewBox="0 0 917 953" fill="none" xmlns="http://www.w3.org/2000/svg">
<path d="M608.882 257.662C595.695 257.57 592.45 274.508 593.382 287.662C594.232 299.658 597.862 313.293 609.882 313.662C622.81 314.06 626.398 297.586 625.882 284.662C625.385 272.212 621.342 257.75 608.882 257.662Z" fill="black" fill-opacity="0.15"/>
<path d="M477.882 262.162C464.616 261.704 461.197 279.496 462.882 292.662C464.306 303.785 468.169 316.239 479.382 316.162C491.35 316.08 494.054 301.129 493.882 289.162C493.706 276.907 490.131 262.585 477.882 262.162Z" fill="black" fill-opacity="0.15"/>
<path d="M618.382 171.162C571.382 169.162 566.382 216.162 566.382 216.162C567.051 219.361 568.39 219.683 572.882 217.162C604.791 198.249 622.725 196.53 654.882 214.162C659.289 216.129 661.461 216.3 663.882 212.162C663.882 212.162 665.382 173.162 618.382 171.162Z" fill="black" fill-opacity="0.15"/>
<path d="M474.382 181.162C437.382 181.662 440.882 214.662 440.882 214.662C441.335 218.43 442.254 219.466 445.882 218.162C470.26 208.371 483.362 208.968 505.882 218.162C513.016 219.841 515.203 218.86 515.382 213.162C515.382 213.162 511.382 180.662 474.382 181.162Z" fill="black" fill-opacity="0.15"/>
<path fill-rule="evenodd" clip-rule="evenodd" d="M408.382 444.162L456.882 682.662C456.882 682.662 340.269 723.696 319.382 581.662C304.382 479.662 408.382 444.162 408.382 444.162ZM445.882 677.162L400.882 458.162C390.894 461.713 385.986 464.171 378.882 469.662L444.382 677.162H445.882ZM439.382 677.662L371.882 474.662C359.311 485.071 353.476 491.053 345.382 502.162L430.882 677.662C434.479 678.585 436.279 678.392 439.382 677.662ZM425.382 677.662L340.882 511.662C330.664 532.212 327.594 544.226 327.882 566.662L411.882 677.162C417.418 678.86 420.345 678.805 425.382 677.662ZM402.382 674.662L327.882 579.662C327.882 579.662 328.382 608.662 350.882 641.662C373.382 674.662 402.382 674.662 402.382 674.662Z" fill="black" fill-opacity="0.15"/>
<path d="M240.882 799.162C247.309 804.533 251.12 805.278 258.382 801.162L256.882 783.162C256.882 783.162 264.567 775.451 264.882 769.162C265.347 759.873 259.157 751.36 249.882 750.662C241.032 749.996 232.805 756.297 232.382 765.162C232.069 771.718 240.882 779.662 240.882 779.662V799.162Z" fill="black" fill-opacity="0.15"/>
<path d="M783.882 297.662C783.882 297.662 779.382 283.162 772.882 282.662C766.382 282.162 761.882 296.162 761.882 296.162C771.219 308.884 772.658 316.599 766.382 331.662C766.273 323.19 766.487 317.832 764.882 312.662C762.984 308.245 761.437 307.416 757.882 308.662C753.908 313.685 751.657 317.223 747.882 325.162C750.119 289.339 760.382 271.162 773.882 271.162C783.882 274.662 785.806 285.876 783.882 297.662Z" fill="black" fill-opacity="0.15"/>
<path fill-rule="evenodd" clip-rule="evenodd" d="M80.3805 676.663C-20.1183 620.163 -38.1187 458.163 102.38 386.163C107.392 367.022 113.778 358.582 131.882 349.662C139.997 334.566 147.149 328.509 166.882 324.162C178.97 312.838 187.081 310.46 203.882 313.162C231.544 295.985 265.382 316.662 292.382 362.662C324.002 353.787 336.18 360.015 346.882 392.662L434.382 409.162L443.382 452.662C449.857 448.462 453.849 446.301 461.382 442.662C437.619 406.714 434.433 382.86 437.382 337.162C415.038 320.889 409.837 302.009 409.382 256.662C398.882 249.662 401.882 234.162 419.882 229.162V219.662C384.382 185.662 402.882 97.1621 458.882 71.1631C565.382 -55.3379 843.382 -14.3383 827.882 223.163C829.581 245.224 826.391 256.026 813.382 272.663C816.245 341.103 799.626 361.531 749.382 377.663L751.382 401.663C882.882 427.663 922.977 498.223 914.882 650.663C912.373 661.443 908.755 666.513 896.882 673.163C893.923 697.332 889.667 709.602 875.382 728.163C875.382 728.163 887 854.662 885.382 855.663C883.764 856.664 668.882 806.663 668.882 806.663V864.163L429.382 952.163L84.3817 860.663L80.3805 676.663ZM332.882 390.162L288.382 383.662C288.382 383.662 295.882 368.662 314.382 371.162C332.882 373.662 332.882 390.162 332.882 390.162ZM273.882 381.662L283.382 371.162C257.331 335.076 243.032 319.379 219.382 319.162C200.522 323.149 187.882 375.445 190.882 389.162C192.931 398.533 195.197 401.107 200.882 401.162C214.231 401.204 221.817 381.053 235.382 339.162C237.032 352.28 236.828 360.4 232.882 375.162L273.882 381.662ZM194.382 325.662C182.578 355.187 180.012 371.248 181.882 399.162C178.882 404.662 166.382 405.162 164.382 399.162C157.882 360.662 165.903 327.306 194.382 325.662ZM157.882 340.662C149.706 367.702 149.643 381.792 156.382 405.162C149.762 409.029 145.791 407.477 139.882 399.162C132.882 384.662 135.908 356.178 157.882 340.662ZM126.382 368.662C124.451 384.629 125.379 392.958 132.382 406.162C132.382 406.162 118.382 410.662 114.382 392.162C112.204 382.09 126.382 368.662 126.382 368.662ZM104.382 399.162C106.052 404.194 107.317 406.974 111.882 411.662C13.0012 471.09 13.3808 607.333 107.541 667.445C97.256 664.802 91.1798 663.763 80.3805 663.162C-18.6182 593.162 -0.618164 447.662 104.382 399.162ZM327.882 421.662C337.617 415.315 343.761 412.391 356.882 409.162L227.882 389.162C224.971 394.666 223.054 397.59 219.382 402.662L327.882 421.662ZM322.382 425.662L212.882 407.662C204.109 413.128 198.462 413.155 187.382 408.662C179.538 415.29 174.21 416.122 163.382 413.662C154.195 417.624 149.026 417.5 140.382 413.662L133.882 418.162L300.882 444.162C308.382 436.882 312.86 432.815 322.382 425.662ZM112.882 420.162L298.882 448.662L281.382 473.662L84.3818 443.162C92.7523 432.593 98.5399 427.297 112.882 420.162ZM79.3818 447.662C68.0838 459.79 63.5949 467.324 57.8818 481.662L264.382 515.162L278.382 479.662L79.3818 447.662ZM262.382 521.662L255.882 567.662L45.3818 531.162C46.8861 513.31 49.2082 503.724 55.3818 487.162L262.382 521.662ZM255.882 574.162L262.382 620.162L52.3818 580.662C46.0861 564.178 44.9153 554.446 44.8818 536.662L255.882 574.162ZM264.382 626.662L280.382 659.162L70.3818 618.662C60.9568 607.069 58.0389 600.043 54.3818 587.162L264.382 626.662ZM284.882 667.162L300.882 688.662L96.8818 648.162C85.8849 639.21 80.8887 633.832 74.8818 624.162L284.882 667.162ZM310.382 695.662C311.582 695.662 322.548 705.662 327.882 710.662L129.882 670.662C117.645 665.387 113.235 661.999 106.882 655.662L310.382 695.662ZM90.8818 676.663V697.662L424.882 763.162V731.662C400.25 735.574 386.326 734.637 361.382 729.662L90.8818 676.663ZM424.882 775.162V936.662L96.8818 853.662L93.3818 708.662L122.382 714.162V839.662L396.882 908.162L398.382 768.162L424.882 775.162ZM297.882 749.662L388.882 766.162V811.662L297.882 792.162V749.662ZM388.882 819.162V863.162L130.382 802.162V763.162L204.882 779.662C211.882 839.662 285.382 838.739 295.382 799.162L388.882 819.162ZM130.382 715.662V754.162L204.382 772.162V730.662L130.382 715.662ZM213.882 732.662L288.382 747.662L287.382 794.662C277.882 829.162 226.382 827.662 213.882 783.162V732.662ZM421.882 419.162L478.882 698.662C478.882 698.662 330.382 769.162 297.882 581.662C292.882 437.662 421.882 419.162 421.882 419.162ZM434.382 729.662V763.162L656.382 706.662V702.162C642.959 704.171 638.55 700.446 634.382 688.162C621.209 693.302 614.869 692.416 605.882 683.662L434.382 729.662ZM434.382 775.162L460.882 768.162V906.162L631.382 844.662V725.162L656.382 718.162V856.162L435.382 936.662L434.382 775.162ZM470.382 766.162L623.882 727.162V760.162L470.382 806.663V766.162ZM470.382 814.162V859.662L623.882 806.663V768.162L470.382 814.162ZM470.382 866.662V894.162L623.882 838.162V814.162L470.382 866.662ZM668.882 791.662C668.882 791.662 866.264 841.162 869.882 838.162C873.5 835.162 860.382 741.662 860.382 741.662C805.869 754.897 778.044 747.242 730.382 722.662C703.87 727.221 690.508 723.534 668.882 706.662V791.662ZM751.382 417.162C874.447 447.572 904.39 498.153 899.882 638.162C861.831 599.504 835.256 589.175 772.882 603.162C772.103 539.177 778.099 508.061 809.882 468.162C770.456 495.307 760.401 527.942 759.382 610.662C745.927 608.126 738.136 607.949 723.882 609.162C691.422 572.858 669.17 562.709 623.382 560.662C581.382 564.662 529.591 622.499 547.382 653.162C557.555 660.914 563.245 661.414 573.382 656.162C575.211 666.582 578.345 671.248 588.382 677.162L492.382 702.162L445.882 467.162L468.882 454.662C490.271 476.033 503.335 485.911 529.882 497.162C535.307 525.388 542.465 535.903 562.882 544.162C548.461 528.593 542.554 519.278 539.382 500.662L556.882 504.162C597.882 575.162 751.382 549.662 751.382 417.162ZM735.382 408.162C688.303 481.727 652.376 501.909 574.382 507.162C645.382 565.662 748.882 491.662 735.382 408.162ZM784.382 612.662C831.903 609.096 854.467 615.181 885.882 643.662C878.562 743.601 836.882 755.662 734.382 708.162C708.539 712.765 696.558 710.351 679.882 696.162C684.546 694.487 694.871 679.857 692.882 675.662C664.829 685.908 649.267 691.548 645.382 686.662C640.38 676.06 655.492 665.247 690.882 643.662C687.373 639.485 684.455 638.764 677.382 640.662C657.185 649.219 647.96 655.735 637.382 672.162C628.31 686.25 608.382 682.662 616.382 664.662C630.829 635.178 646.979 627.408 675.882 613.662C671.677 608.95 665.669 609.249 651.382 612.662C625.987 626.685 617.156 638.034 605.882 661.162C600.52 672.162 583.382 668.162 586.882 648.662C602.624 615.63 617.079 601.699 654.882 586.662C622.866 585.083 606.294 592.432 581.882 636.162C557.882 658.662 545.382 645.662 559.382 620.662C588.667 582.071 605.273 570.158 635.382 574.162C689.752 579.504 712.125 606.064 743.882 677.162C751.017 666.539 749.559 655.3 736.382 625.162C774.598 622.985 795.695 626.449 832.882 638.162C820.16 623.448 809.818 617.666 784.382 612.662ZM736.382 361.162C771.666 361.18 786.272 351.23 799.382 308.662C803.671 275.713 801.324 260.642 778.382 247.162C754.696 243.936 744.803 256.245 730.882 293.662C722.353 296.728 718.516 295.881 712.882 291.162L704.382 248.662L674.382 254.162C692.382 348.662 552.382 384.662 553.882 256.162C540.086 251.395 532.539 250.496 519.882 256.662L521.882 287.662C525.521 283.541 527.078 280.847 529.382 275.662C528.725 287.664 527.498 294.367 520.382 306.162C495.382 316.162 490.882 352.662 525.882 356.162C544.815 356.94 555.285 351.8 573.882 334.662L579.382 340.662C620.134 342.917 638.79 348.605 650.382 381.662C648.258 392.012 642.51 395.468 630.382 400.662C633.882 433.662 612.182 461.562 573.382 463.162C534.582 464.762 511.548 428.495 504.882 410.162C483.908 413.452 474.491 411.169 465.382 393.662C466.076 366.939 472.178 357.835 490.882 349.662L486.882 340.662C471.834 344.307 463.309 344.356 447.882 341.162C446.945 405.324 457.282 437.374 523.882 477.162C594.382 516.162 706.382 477.162 736.382 361.162ZM543.882 393.662C564.231 400.071 576.78 402.308 601.382 403.662C564.125 416.161 543.975 417.195 509.382 409.162C523.724 404.367 531.335 401.039 543.882 393.662ZM702.382 233.162L692.382 187.162C639.882 147.162 521.882 145.162 444.882 180.662C433.536 196.623 432.288 206.737 433.882 225.662C476.771 219.448 497.221 220.37 516.382 243.162C528.107 235.624 536.289 233.949 556.382 239.662C584.882 206.662 637.382 203.162 665.382 231.162L702.382 233.162ZM424.382 254.162L444.382 313.662L437.382 243.162C483.439 229.762 524.382 237.662 506.882 301.162C499 310.156 495.164 315.279 489.382 324.662C462.382 338.662 438.487 330.874 425.382 301.162C419.121 280.557 419.277 270.507 424.382 254.162ZM565.382 257.662C565.382 257.662 561.382 331.662 614.382 328.162C667.382 324.662 663.882 266.662 663.882 266.662C663.882 266.662 667.882 226.162 614.382 228.162C560.882 230.162 565.382 257.662 565.382 257.662ZM419.882 192.162C433.882 140.662 656.882 92.6621 770.882 231.162C789.934 233.021 797.946 237.878 807.382 254.162C817.422 230.17 814.148 216.3 799.382 191.162C728.893 71.1631 586.382 21.6621 445.882 96.1621C422.882 112.162 409.223 154.822 419.882 192.162ZM491.382 60.1621C632.382 22.1621 735.882 62.1621 810.382 174.162C810.382 174.162 785.882 39.6621 663.382 20.6621C540.882 1.66211 491.382 60.1621 491.382 60.1621ZM130.382 809.162V833.162L388.882 896.662V870.662L130.382 809.162ZM561.056 445.289C559.217 446.394 557.808 447.241 556.882 447.662C571.382 459.162 604.882 448.662 613.382 430.162C589.683 428.083 570.133 439.833 561.056 445.289ZM393.882 414.662L371.382 410.662C371.382 410.662 273.382 438.662 264.382 559.662C262.382 715.662 390.382 720.162 390.382 720.162C236.882 656.162 273.882 452.662 393.882 414.662Z" fill="black" fill-opacity="0.15"/>
<path d="M608.882 257.662C595.695 257.57 592.45 274.508 593.382 287.662C594.232 299.658 597.862 313.293 609.882 313.662C622.81 314.06 626.398 297.586 625.882 284.662C625.385 272.212 621.342 257.75 608.882 257.662Z" stroke="black" stroke-opacity="0.15"/>
<path d="M477.882 262.162C464.616 261.704 461.197 279.496 462.882 292.662C464.306 303.785 468.169 316.239 479.382 316.162C491.35 316.08 494.054 301.129 493.882 289.162C493.706 276.907 490.131 262.585 477.882 262.162Z" stroke="black" stroke-opacity="0.15"/>
<path d="M618.382 171.162C571.382 169.162 566.382 216.162 566.382 216.162C567.051 219.361 568.39 219.683 572.882 217.162C604.791 198.249 622.725 196.53 654.882 214.162C659.289 216.129 661.461 216.3 663.882 212.162C663.882 212.162 665.382 173.162 618.382 171.162Z" stroke="black" stroke-opacity="0.15"/>
<path d="M474.382 181.162C437.382 181.662 440.882 214.662 440.882 214.662C441.335 218.43 442.254 219.466 445.882 218.162C470.26 208.371 483.362 208.968 505.882 218.162C513.016 219.841 515.203 218.86 515.382 213.162C515.382 213.162 511.382 180.662 474.382 181.162Z" stroke="black" stroke-opacity="0.15"/>
<path fill-rule="evenodd" clip-rule="evenodd" d="M408.382 444.162L456.882 682.662C456.882 682.662 340.269 723.696 319.382 581.662C304.382 479.662 408.382 444.162 408.382 444.162ZM445.882 677.162L400.882 458.162C390.894 461.713 385.986 464.171 378.882 469.662L444.382 677.162H445.882ZM439.382 677.662L371.882 474.662C359.311 485.071 353.476 491.053 345.382 502.162L430.882 677.662C434.479 678.585 436.279 678.392 439.382 677.662ZM425.382 677.662L340.882 511.662C330.664 532.212 327.594 544.226 327.882 566.662L411.882 677.162C417.418 678.86 420.345 678.805 425.382 677.662ZM402.382 674.662L327.882 579.662C327.882 579.662 328.382 608.662 350.882 641.662C373.382 674.662 402.382 674.662 402.382 674.662Z" stroke="black" stroke-opacity="0.15"/>
<path d="M240.882 799.162C247.309 804.533 251.12 805.278 258.382 801.162L256.882 783.162C256.882 783.162 264.567 775.451 264.882 769.162C265.347 759.873 259.157 751.36 249.882 750.662C241.032 749.996 232.805 756.297 232.382 765.162C232.069 771.718 240.882 779.662 240.882 779.662V799.162Z" stroke="black" stroke-opacity="0.15"/>
<path d="M783.882 297.662C783.882 297.662 779.382 283.162 772.882 282.662C766.382 282.162 761.882 296.162 761.882 296.162C771.219 308.884 772.658 316.599 766.382 331.662C766.273 323.19 766.487 317.832 764.882 312.662C762.984 308.245 761.437 307.416 757.882 308.662C753.908 313.685 751.657 317.223 747.882 325.162C750.119 289.339 760.382 271.162 773.882 271.162C783.882 274.662 785.806 285.876 783.882 297.662Z" stroke="black" stroke-opacity="0.15"/>
<path fill-rule="evenodd" clip-rule="evenodd" d="M80.3805 676.663C-20.1183 620.163 -38.1187 458.163 102.38 386.163C107.392 367.022 113.778 358.582 131.882 349.662C139.997 334.566 147.149 328.509 166.882 324.162C178.97 312.838 187.081 310.46 203.882 313.162C231.544 295.985 265.382 316.662 292.382 362.662C324.002 353.787 336.18 360.015 346.882 392.662L434.382 409.162L443.382 452.662C449.857 448.462 453.849 446.301 461.382 442.662C437.619 406.714 434.433 382.86 437.382 337.162C415.038 320.889 409.837 302.009 409.382 256.662C398.882 249.662 401.882 234.162 419.882 229.162V219.662C384.382 185.662 402.882 97.1621 458.882 71.1631C565.382 -55.3379 843.382 -14.3383 827.882 223.163C829.581 245.224 826.391 256.026 813.382 272.663C816.245 341.103 799.626 361.531 749.382 377.663L751.382 401.663C882.882 427.663 922.977 498.223 914.882 650.663C912.373 661.443 908.755 666.513 896.882 673.163C893.923 697.332 889.667 709.602 875.382 728.163C875.382 728.163 887 854.662 885.382 855.663C883.764 856.664 668.882 806.663 668.882 806.663V864.163L429.382 952.163L84.3817 860.663L80.3805 676.663ZM332.882 390.162L288.382 383.662C288.382 383.662 295.882 368.662 314.382 371.162C332.882 373.662 332.882 390.162 332.882 390.162ZM273.882 381.662L283.382 371.162C257.331 335.076 243.032 319.379 219.382 319.162C200.522 323.149 187.882 375.445 190.882 389.162C192.931 398.533 195.197 401.107 200.882 401.162C214.231 401.204 221.817 381.053 235.382 339.162C237.032 352.28 236.828 360.4 232.882 375.162L273.882 381.662ZM194.382 325.662C182.578 355.187 180.012 371.248 181.882 399.162C178.882 404.662 166.382 405.162 164.382 399.162C157.882 360.662 165.903 327.306 194.382 325.662ZM157.882 340.662C149.706 367.702 149.643 381.792 156.382 405.162C149.762 409.029 145.791 407.477 139.882 399.162C132.882 384.662 135.908 356.178 157.882 340.662ZM126.382 368.662C124.451 384.629 125.379 392.958 132.382 406.162C132.382 406.162 118.382 410.662 114.382 392.162C112.204 382.09 126.382 368.662 126.382 368.662ZM104.382 399.162C106.052 404.194 107.317 406.974 111.882 411.662C13.0012 471.09 13.3808 607.333 107.541 667.445C97.256 664.802 91.1798 663.763 80.3805 663.162C-18.6182 593.162 -0.618164 447.662 104.382 399.162ZM327.882 421.662C337.617 415.315 343.761 412.391 356.882 409.162L227.882 389.162C224.971 394.666 223.054 397.59 219.382 402.662L327.882 421.662ZM322.382 425.662L212.882 407.662C204.109 413.128 198.462 413.155 187.382 408.662C179.538 415.29 174.21 416.122 163.382 413.662C154.195 417.624 149.026 417.5 140.382 413.662L133.882 418.162L300.882 444.162C308.382 436.882 312.86 432.815 322.382 425.662ZM112.882 420.162L298.882 448.662L281.382 473.662L84.3818 443.162C92.7523 432.593 98.5399 427.297 112.882 420.162ZM79.3818 447.662C68.0838 459.79 63.5949 467.324 57.8818 481.662L264.382 515.162L278.382 479.662L79.3818 447.662ZM262.382 521.662L255.882 567.662L45.3818 531.162C46.8861 513.31 49.2082 503.724 55.3818 487.162L262.382 521.662ZM255.882 574.162L262.382 620.162L52.3818 580.662C46.0861 564.178 44.9153 554.446 44.8818 536.662L255.882 574.162ZM264.382 626.662L280.382 659.162L70.3818 618.662C60.9568 607.069 58.0389 600.043 54.3818 587.162L264.382 626.662ZM284.882 667.162L300.882 688.662L96.8818 648.162C85.8849 639.21 80.8887 633.832 74.8818 624.162L284.882 667.162ZM310.382 695.662C311.582 695.662 322.548 705.662 327.882 710.662L129.882 670.662C117.645 665.387 113.235 661.999 106.882 655.662L310.382 695.662ZM90.8818 676.663V697.662L424.882 763.162V731.662C400.25 735.574 386.326 734.637 361.382 729.662L90.8818 676.663ZM424.882 775.162V936.662L96.8818 853.662L93.3818 708.662L122.382 714.162V839.662L396.882 908.162L398.382 768.162L424.882 775.162ZM297.882 749.662L388.882 766.162V811.662L297.882 792.162V749.662ZM388.882 819.162V863.162L130.382 802.162V763.162L204.882 779.662C211.882 839.662 285.382 838.739 295.382 799.162L388.882 819.162ZM130.382 715.662V754.162L204.382 772.162V730.662L130.382 715.662ZM213.882 732.662L288.382 747.662L287.382 794.662C277.882 829.162 226.382 827.662 213.882 783.162V732.662ZM421.882 419.162L478.882 698.662C478.882 698.662 330.382 769.162 297.882 581.662C292.882 437.662 421.882 419.162 421.882 419.162ZM434.382 729.662V763.162L656.382 706.662V702.162C642.959 704.171 638.55 700.446 634.382 688.162C621.209 693.302 614.869 692.416 605.882 683.662L434.382 729.662ZM434.382 775.162L460.882 768.162V906.162L631.382 844.662V725.162L656.382 718.162V856.162L435.382 936.662L434.382 775.162ZM470.382 766.162L623.882 727.162V760.162L470.382 806.663V766.162ZM470.382 814.162V859.662L623.882 806.663V768.162L470.382 814.162ZM470.382 866.662V894.162L623.882 838.162V814.162L470.382 866.662ZM668.882 791.662C668.882 791.662 866.264 841.162 869.882 838.162C873.5 835.162 860.382 741.662 860.382 741.662C805.869 754.897 778.044 747.242 730.382 722.662C703.87 727.221 690.508 723.534 668.882 706.662V791.662ZM751.382 417.162C874.447 447.572 904.39 498.153 899.882 638.162C861.831 599.504 835.256 589.175 772.882 603.162C772.103 539.177 778.099 508.061 809.882 468.162C770.456 495.307 760.401 527.942 759.382 610.662C745.927 608.126 738.136 607.949 723.882 609.162C691.422 572.858 669.17 562.709 623.382 560.662C581.382 564.662 529.591 622.499 547.382 653.162C557.555 660.914 563.245 661.414 573.382 656.162C575.211 666.582 578.345 671.248 588.382 677.162L492.382 702.162L445.882 467.162L468.882 454.662C490.271 476.033 503.335 485.911 529.882 497.162C535.307 525.388 542.465 535.903 562.882 544.162C548.461 528.593 542.554 519.278 539.382 500.662L556.882 504.162C597.882 575.162 751.382 549.662 751.382 417.162ZM735.382 408.162C688.303 481.727 652.376 501.909 574.382 507.162C645.382 565.662 748.882 491.662 735.382 408.162ZM784.382 612.662C831.903 609.096 854.467 615.181 885.882 643.662C878.562 743.601 836.882 755.662 734.382 708.162C708.539 712.765 696.558 710.351 679.882 696.162C684.546 694.487 694.871 679.857 692.882 675.662C664.829 685.908 649.267 691.548 645.382 686.662C640.38 676.06 655.492 665.247 690.882 643.662C687.373 639.485 684.455 638.764 677.382 640.662C657.185 649.219 647.96 655.735 637.382 672.162C628.31 686.25 608.382 682.662 616.382 664.662C630.829 635.178 646.979 627.408 675.882 613.662C671.677 608.95 665.669 609.249 651.382 612.662C625.987 626.685 617.156 638.034 605.882 661.162C600.52 672.162 583.382 668.162 586.882 648.662C602.624 615.63 617.079 601.699 654.882 586.662C622.866 585.083 606.294 592.432 581.882 636.162C557.882 658.662 545.382 645.662 559.382 620.662C588.667 582.071 605.273 570.158 635.382 574.162C689.752 579.504 712.125 606.064 743.882 677.162C751.017 666.539 749.559 655.3 736.382 625.162C774.598 622.985 795.695 626.449 832.882 638.162C820.16 623.448 809.818 617.666 784.382 612.662ZM736.382 361.162C771.666 361.18 786.272 351.23 799.382 308.662C803.671 275.713 801.324 260.642 778.382 247.162C754.696 243.936 744.803 256.245 730.882 293.662C722.353 296.728 718.516 295.881 712.882 291.162L704.382 248.662L674.382 254.162C692.382 348.662 552.382 384.662 553.882 256.162C540.086 251.395 532.539 250.496 519.882 256.662L521.882 287.662C525.521 283.541 527.078 280.847 529.382 275.662C528.725 287.664 527.498 294.367 520.382 306.162C495.382 316.162 490.882 352.662 525.882 356.162C544.815 356.94 555.285 351.8 573.882 334.662L579.382 340.662C620.134 342.917 638.79 348.605 650.382 381.662C648.258 392.012 642.51 395.468 630.382 400.662C633.882 433.662 612.182 461.562 573.382 463.162C534.582 464.762 511.548 428.495 504.882 410.162C483.908 413.452 474.491 411.169 465.382 393.662C466.076 366.939 472.178 357.835 490.882 349.662L486.882 340.662C471.834 344.307 463.309 344.356 447.882 341.162C446.945 405.324 457.282 437.374 523.882 477.162C594.382 516.162 706.382 477.162 736.382 361.162ZM543.882 393.662C564.231 400.071 576.78 402.308 601.382 403.662C564.125 416.161 543.975 417.195 509.382 409.162C523.724 404.367 531.335 401.039 543.882 393.662ZM702.382 233.162L692.382 187.162C639.882 147.162 521.882 145.162 444.882 180.662C433.536 196.623 432.288 206.737 433.882 225.662C476.771 219.448 497.221 220.37 516.382 243.162C528.107 235.624 536.289 233.949 556.382 239.662C584.882 206.662 637.382 203.162 665.382 231.162L702.382 233.162ZM424.382 254.162L444.382 313.662L437.382 243.162C483.439 229.762 524.382 237.662 506.882 301.162C499 310.156 495.164 315.279 489.382 324.662C462.382 338.662 438.487 330.874 425.382 301.162C419.121 280.557 419.277 270.507 424.382 254.162ZM565.382 257.662C565.382 257.662 561.382 331.662 614.382 328.162C667.382 324.662 663.882 266.662 663.882 266.662C663.882 266.662 667.882 226.162 614.382 228.162C560.882 230.162 565.382 257.662 565.382 257.662ZM419.882 192.162C433.882 140.662 656.882 92.6621 770.882 231.162C789.934 233.021 797.946 237.878 807.382 254.162C817.422 230.17 814.148 216.3 799.382 191.162C728.893 71.1631 586.382 21.6621 445.882 96.1621C422.882 112.162 409.223 154.822 419.882 192.162ZM491.382 60.1621C632.382 22.1621 735.882 62.1621 810.382 174.162C810.382 174.162 785.882 39.6621 663.382 20.6621C540.882 1.66211 491.382 60.1621 491.382 60.1621ZM130.382 809.162V833.162L388.882 896.662V870.662L130.382 809.162ZM561.056 445.289C559.217 446.394 557.808 447.241 556.882 447.662C571.382 459.162 604.882 448.662 613.382 430.162C589.683 428.083 570.133 439.833 561.056 445.289ZM393.882 414.662L371.382 410.662C371.382 410.662 273.382 438.662 264.382 559.662C262.382 715.662 390.382 720.162 390.382 720.162C236.882 656.162 273.882 452.662 393.882 414.662Z" stroke="black" stroke-opacity="0.15"/>
</svg>
