<svg width="365" height="178" viewBox="0 0 365 178" fill="none" xmlns="http://www.w3.org/2000/svg">
<path d="M200.53 74.4768C196.847 74.4768 193.826 77.4627 193.861 81.1457C193.896 84.7941 196.881 87.6887 200.53 87.6887C204.178 87.6887 207.164 84.7941 207.199 81.1457C207.234 77.4627 204.213 74.4768 200.53 74.4768Z" fill="black" fill-opacity="0.8"/>
<path d="M263.318 74.6027C259.599 74.5338 256.397 77.4264 256.397 81.1457C256.397 84.865 259.599 87.7576 263.318 87.6887C266.966 87.6212 269.987 84.7942 269.987 81.1457C269.987 77.4972 266.966 74.6702 263.318 74.6027Z" fill="black" fill-opacity="0.8"/>
<path d="M212.106 76.8676C211.225 76.8676 210.974 77.4967 210.974 78.2517V84.543C210.974 85.1722 211.477 85.6755 212.106 85.6755H251.742C252.497 85.6755 253.126 85.4238 253.126 84.543V78.2517C253.126 77.4967 252.623 76.8676 251.742 76.8676H212.106Z" fill="black" fill-opacity="0.8"/>
<path fill-rule="evenodd" clip-rule="evenodd" d="M200.026 52.7086C198.391 52.7086 197.384 54.2185 197.384 55.9801V63.2781C197.384 65.0397 198.139 66.298 200.026 66.298H268.854C270.49 66.298 272.377 65.543 272.377 63.2781V55.9801C272.377 53.9669 271.245 52.7086 268.854 52.7086H200.026ZM212.106 63.2781V55.9801H268.854V63.2781H212.106Z" fill="black" fill-opacity="0.8"/>
<path d="M200.53 31.1921C196.847 31.1921 193.826 34.178 193.861 37.8609C193.896 41.5093 196.881 44.404 200.53 44.404C204.178 44.404 207.164 41.5093 207.199 37.8609C207.234 34.178 204.213 31.1921 200.53 31.1921Z" fill="black" fill-opacity="0.8"/>
<path d="M263.318 31.3179C259.599 31.2491 256.397 34.1416 256.397 37.8609C256.397 41.5803 259.599 44.4728 263.318 44.404C266.966 44.3365 269.987 41.5095 269.987 37.8609C269.987 34.2124 266.966 31.3854 263.318 31.3179Z" fill="black" fill-opacity="0.8"/>
<path d="M212.106 33.5828C211.225 33.5828 210.974 34.2119 210.974 34.9669V41.2583C210.974 41.8874 211.477 42.3907 212.106 42.3907H251.742C252.497 42.3907 253.126 42.1391 253.126 41.2583V34.9669C253.126 34.2119 252.623 33.5828 251.742 33.5828H212.106Z" fill="black" fill-opacity="0.8"/>
<path fill-rule="evenodd" clip-rule="evenodd" d="M200.026 96.245C198.391 96.245 197.384 97.755 197.384 99.5166V106.815C197.384 108.576 198.139 109.834 200.026 109.834H268.854C270.49 109.834 272.377 109.079 272.377 106.815V99.5166C272.377 97.5033 271.245 96.245 268.854 96.245H200.026ZM212.106 106.815V99.5166H268.854V106.815H212.106Z" fill="black" fill-opacity="0.8"/>
<path fill-rule="evenodd" clip-rule="evenodd" d="M200.026 8.7947C198.391 8.7947 197.384 10.3046 197.384 12.0662V19.3642C197.384 21.1258 198.139 22.3841 200.026 22.3841H268.854C270.49 22.3841 272.377 21.6291 272.377 19.3642V12.0662C272.377 10.053 271.245 8.7947 268.854 8.7947H200.026ZM212.106 19.3642V12.0662H268.854V19.3642H212.106Z" fill="black" fill-opacity="0.8"/>
<path fill-rule="evenodd" clip-rule="evenodd" d="M289.364 5.1457C289.364 3.76159 288.609 2 287.099 2H182.662C180.901 2 179.894 3.63576 179.894 4.89404V24.2715C178.132 24.2715 177 25.7815 177 27.4172V48.053C177 49.5629 179.265 50.5695 181.152 50.5695V67.8079C178.887 67.8079 177.755 68.5629 177.755 70.702V91.2119C177.755 92.9735 179.139 93.9801 181.152 93.9801V112.225C181.152 114.49 182.411 116 184.55 116H287.225C288.358 116 290.119 114.616 290.119 112.98V91.7152C290.119 89.9536 288.861 89.3245 286.219 89.3245V71.8344C287.98 71.8344 289.742 71.3311 289.742 69.6954V48.8079C289.742 47.4238 288.609 46.0397 286.722 46.0397V28.1722C288.483 28.1722 289.364 26.9139 289.364 25.0265V5.1457ZM181.152 28.5497H282.57V46.2914H181.152V28.5497ZM185.053 50.5695H285.715V67.8079H185.053V50.5695ZM182.411 71.8344V89.702H282.066V71.8344H182.411ZM185.556 93.9801H285.715V111.47H185.556V93.9801ZM284.834 6.27815V24.1457H184.172V6.27815H284.834Z" fill="black" fill-opacity="0.8"/>
<path fill-rule="evenodd" clip-rule="evenodd" d="M6.09809 1H168.145C170.815 1 173 4.03458 173 6.21948V163.168C173 166.081 170.815 166.931 168.145 166.931V174.942C168.145 176.399 167.416 177.127 166.081 177.127H9.73959C8.76853 177.127 7.67608 176.277 7.67608 174.942V166.931C4.15596 166.931 1 166.081 1 163.168V6.21948C1.64737 3.35488 2.55714 2.08532 6.09809 1ZM168.145 6.21948H6.09809V135.007H168.145V6.21948ZM168.145 140.105H6.09809V162.197H168.145V140.105ZM11.9245 166.931V172.757H163.896V166.931H11.9245Z" fill="black" fill-opacity="0.8"/>
<path fill-rule="evenodd" clip-rule="evenodd" d="M16.5371 13.0169C13.1383 13.0169 12.41 14.5949 12.41 17.8723V124.932C12.41 127.481 14.2308 128.452 16.5371 128.452H158.677C161.469 128.452 161.469 127.724 161.469 124.932V17.8723C161.469 14.7163 160.498 13.0169 157.22 13.0169H16.5371ZM148.966 25.8836C139.862 17.2653 32.8024 17.8723 25.2766 25.8836C17.7509 33.8948 20.9068 111.701 25.2766 116.557C29.6464 121.412 142.533 122.262 148.966 116.557C155.399 110.852 158.07 34.5018 148.966 25.8836Z" fill="black" fill-opacity="0.8"/>
<path d="M36 150C34.5 150 34.5 153.5 36 153.5H46.5C48 153.5 48 150 46.5 150H36Z" fill="black" fill-opacity="0.8"/>
<path d="M51.5 150C50 150 50 153.5 51.5 153.5H62C63.5 153.5 63.5 150 62 150H51.5Z" fill="black" fill-opacity="0.8"/>
<path d="M67 150C65.5 150 65.5 153.5 67 153.5H77.5C79 153.5 79 150 77.5 150H67Z" fill="black" fill-opacity="0.8"/>
<path d="M83 150C81.5 150 81.5 153.5 83 153.5H93.5C95 153.5 95 150 93.5 150H83Z" fill="black" fill-opacity="0.8"/>
<path d="M99 150C97.5 150 97.5 153.5 99 153.5H109.5C111 153.5 111 150 109.5 150H99Z" fill="black" fill-opacity="0.8"/>
<path d="M114.5 150C113 150 113 153.5 114.5 153.5H125C126.5 153.5 126.5 150 125 150H114.5Z" fill="black" fill-opacity="0.8"/>
<path d="M129 150C127.5 150 127.5 153.5 129 153.5H139.5C141 153.5 141 150 139.5 150H129Z" fill="black" fill-opacity="0.8"/>
<path fill-rule="evenodd" clip-rule="evenodd" d="M6.09809 1H168.145C170.815 1 173 4.03458 173 6.21948V163.168C173 166.081 170.815 166.931 168.145 166.931V174.942C168.145 176.399 167.416 177.127 166.081 177.127H9.73959C8.76853 177.127 7.67608 176.277 7.67608 174.942V166.931C4.15596 166.931 1 166.081 1 163.168V6.21948C1.64737 3.35488 2.55714 2.08532 6.09809 1ZM168.145 6.21948H6.09809V135.007H168.145V6.21948ZM168.145 140.105H6.09809V162.197H168.145V140.105ZM11.9245 166.931V172.757H163.896V166.931H11.9245Z" stroke="black" stroke-width="0.242766"/>
<path fill-rule="evenodd" clip-rule="evenodd" d="M16.5371 13.0169C13.1383 13.0169 12.41 14.5949 12.41 17.8723V124.932C12.41 127.481 14.2308 128.452 16.5371 128.452H158.677C161.469 128.452 161.469 127.724 161.469 124.932V17.8723C161.469 14.7163 160.498 13.0169 157.22 13.0169H16.5371ZM148.966 25.8836C139.862 17.2653 32.8024 17.8723 25.2766 25.8836C17.7509 33.8948 20.9068 111.701 25.2766 116.557C29.6464 121.412 142.533 122.262 148.966 116.557C155.399 110.852 158.07 34.5018 148.966 25.8836Z" stroke="black" stroke-width="0.242766"/>
<path d="M36 150C34.5 150 34.5 153.5 36 153.5H46.5C48 153.5 48 150 46.5 150H36Z" stroke="black" stroke-width="0.242766"/>
<path d="M51.5 150C50 150 50 153.5 51.5 153.5H62C63.5 153.5 63.5 150 62 150H51.5Z" stroke="black" stroke-width="0.242766"/>
<path d="M67 150C65.5 150 65.5 153.5 67 153.5H77.5C79 153.5 79 150 77.5 150H67Z" stroke="black" stroke-width="0.242766"/>
<path d="M83 150C81.5 150 81.5 153.5 83 153.5H93.5C95 153.5 95 150 93.5 150H83Z" stroke="black" stroke-width="0.242766"/>
<path d="M99 150C97.5 150 97.5 153.5 99 153.5H109.5C111 153.5 111 150 109.5 150H99Z" stroke="black" stroke-width="0.242766"/>
<path d="M114.5 150C113 150 113 153.5 114.5 153.5H125C126.5 153.5 126.5 150 125 150H114.5Z" stroke="black" stroke-width="0.242766"/>
<path d="M129 150C127.5 150 127.5 153.5 129 153.5H139.5C141 153.5 141 150 139.5 150H129Z" stroke="black" stroke-width="0.242766"/>
<path fill-rule="evenodd" clip-rule="evenodd" d="M177 119.303C177 117.068 177.971 116 180.885 116H360.486C362.72 116 364.177 116.68 364.177 118.72V166.801C364.177 168.161 363.4 168.744 362.428 168.744H357.96V173.6C357.96 176.32 356.697 177 354.172 177H186.228C184.674 177 183.411 176.126 183.411 174.572V168.646H180.885C178.36 168.646 177 168.452 177 167.189V119.303ZM360.486 119.788H180.885V164.858H360.486V119.788ZM187.199 172.823V168.646L354.172 168.744V172.823H187.199Z" fill="black" fill-opacity="0.8"/>
<path fill-rule="evenodd" clip-rule="evenodd" d="M190.113 127.17C190.113 125.908 190.696 125.131 191.861 125.131H299.097C300.748 125.131 301.623 126.005 301.623 127.462V145.14C301.623 146.403 300.943 147.374 299.389 147.374H191.861C190.696 147.374 190.113 146.791 190.113 145.723V127.17ZM197.592 128.919H193.804V143.586H197.592V128.919ZM290.161 128.919H201.283V143.586H290.161V128.919ZM293.949 143.586V128.919H297.834V143.586H293.949Z" fill="black" fill-opacity="0.8"/>
<path d="M310.947 130.861C310.947 130.084 311.627 129.696 312.21 129.987L320.078 134.164C320.758 134.553 320.952 135.524 320.078 136.01L312.21 140.283C311.53 140.478 310.947 140.089 310.947 139.409V130.861Z" fill="black" fill-opacity="0.8"/>
<path d="M325.42 130.861C325.42 129.599 328.14 129.793 328.14 130.861V139.604C328.14 140.575 325.42 140.672 325.42 139.604V130.861Z" fill="black" fill-opacity="0.8"/>
<path d="M330.666 130.861C330.666 129.599 333.385 129.793 333.385 130.861V139.603C333.385 140.575 330.666 140.672 330.666 139.603V130.861Z" fill="black" fill-opacity="0.8"/>
<path d="M339.99 130.861C340.282 130.57 349.024 130.57 349.315 130.861C349.607 131.153 349.51 139.409 349.315 139.603C349.121 139.798 340.185 139.895 339.99 139.604C339.796 139.312 339.699 131.153 339.99 130.861Z" fill="black" fill-opacity="0.8"/>
<path d="M346.596 151.357C346.013 150.482 346.79 149.414 347.955 149.997C352.229 153.105 350.869 159.71 344.944 160.196C339.019 160.099 337.951 152.425 341.642 150.094C342.718 149.414 343.584 150.482 343.002 151.357C340.476 153.299 340.962 158.059 344.944 157.962C348.83 157.768 349.218 152.619 346.596 151.357Z" fill="black" fill-opacity="0.8"/>
<path d="M343.876 149.414V153.882C343.876 155.048 346.013 155.145 346.013 153.882V149.414C346.013 148.248 343.876 148.248 343.876 149.414Z" fill="black" fill-opacity="0.8"/>
<path d="M318.72 159.081C318.72 159.858 318.04 160.246 317.458 159.955L313.378 157.789L309.59 155.778C308.91 155.39 308.716 154.418 309.59 153.933L313.378 151.875L317.458 149.659C318.138 149.464 318.72 149.853 318.72 150.533V159.081Z" fill="black" fill-opacity="0.8"/>
<path d="M312.115 159.955C312.698 160.246 313.378 159.858 313.378 159.081V157.789L309.59 155.778C308.91 155.39 308.716 154.418 309.59 153.933L313.378 151.875V150.533C313.378 149.853 312.795 149.464 312.115 149.659L304.247 153.933C303.373 154.418 303.568 155.39 304.247 155.778L312.115 159.955Z" fill="black" fill-opacity="0.8"/>
<path fill-rule="evenodd" clip-rule="evenodd" d="M323.283 149.705C322.701 149.414 322.021 149.803 322.021 150.58V159.127C322.021 159.807 322.604 160.196 323.283 160.002L327.363 157.785V159.127C327.363 159.807 327.946 160.196 328.626 160.002L336.494 155.728C337.368 155.242 337.174 154.271 336.494 153.882L328.626 149.705C328.043 149.414 327.363 149.803 327.363 150.58V151.871L323.283 149.705ZM327.363 151.871V157.785L331.151 155.728C332.025 155.242 331.831 154.271 331.151 153.882L327.363 151.871Z" fill="black" fill-opacity="0.8"/>
<path d="M331.151 155.728C332.025 155.242 331.831 154.271 331.151 153.882L327.363 151.871V157.785L331.151 155.728Z" fill="black" fill-opacity="0.8"/>
<path d="M219 133V140.283H273V133H219Z" fill="black" fill-opacity="0.8"/>
<path fill-rule="evenodd" clip-rule="evenodd" d="M311.712 94.8343C310.584 93.4862 309.561 93.1402 307.114 93.2156C305.679 93.3995 299.461 103.627 300.418 106.901C301.301 108.741 306.562 108.336 309.394 103.627C316.907 106.598 321.124 107.478 325.011 101.769C325.45 101.125 325.884 100.398 326.318 99.5802C326.619 99.5893 326.855 99.588 327.09 99.5669C327.328 99.5456 327.564 99.5042 327.863 99.433C329.896 101.694 331.726 106.497 333.013 107.269C333.555 108.985 334.083 109.698 335.515 110.433C335.579 111.257 335.864 111.454 336.656 111.5C341.906 108.54 344.675 106.581 349.311 102.56C349.789 101.935 349.503 101.315 348.796 100.831C347.729 97.9614 344.345 97.4464 340.629 99.1387C339.259 95.2311 337.877 93.4074 334.007 91.0082C334.278 89.6983 334.367 88.9558 334.411 87.6235C336.138 88.5938 336.911 88.8258 337.465 87.9178C342.582 89.2993 345.126 88.049 349.127 82.5466C353.395 81.9579 357.552 75.4094 353.064 72.7237C352.604 71.36 352.106 70.8939 350.82 70.59C349.937 68.3825 344.713 67.3523 343.572 71.7672C341.254 72.4293 340.637 74.8686 341.733 77.6902L340.114 79.5665C339.18 79.8092 335.846 77.4327 333.013 76.513C337.333 75.6069 338.976 74.3253 340.261 70.4059C341.874 69.6307 342.348 68.9075 342.137 66.9109C347.03 64.4092 344.602 59.9576 339.709 59.9576L339.194 57.2352C340.003 56.794 339.967 55.6533 338.679 55.7636C338.251 54.3872 337.941 53.6287 337.207 52.3057C338.164 50.5031 334.191 46.1619 332.314 46.9344C322.381 40.3863 302.993 49.3262 309.247 65.1454C308.99 67.2795 311.087 70.9953 313.147 70.6642C314.077 71.6551 314.639 72.1648 315.796 72.9083C308.427 72.2596 305.543 74.1082 302.221 80.6342C298.657 83.9215 297.916 87.4402 300.675 89.3901C301.256 90.638 301.866 90.9171 303.177 91.0824C305.384 93.6577 308.328 93.2203 309.652 90.0891C312.117 88.6911 312.411 85.2697 310.351 83.7613C311.565 81.5539 311.565 81.4067 313.294 81.6275C313.099 82.9036 313.578 83.2166 315.281 83.2094C313.662 87.661 312.337 89.8935 314.104 90.3834C313.957 92.7134 314.187 93.8537 315.318 95.4965C313.916 95.1778 313.128 95.0212 311.712 94.8343ZM301.522 106.57C301.465 102.883 302.53 100.3 307.114 94.4296C308.971 94.2088 309.791 94.4553 310.866 95.4965C309.595 98.0827 309.127 99.5892 308.843 102.413C306.709 106.276 303.214 107.637 301.522 106.57ZM309.983 102.708C310.139 99.9503 310.433 98.421 311.712 95.7547L316.569 96.7848C318.61 99.1114 320.594 99.6422 325.067 99.728C321.82 106.014 318.212 106.075 309.983 102.708ZM328.378 98.3668C319.438 100.059 315.134 96.1594 315.134 91.0824C317.185 91.9587 318.409 92.2959 320.763 92.554C320.729 92.8265 320.731 92.9801 320.763 93.253C331.335 89.6059 335.713 90.577 339.783 99.5802C336.753 101.781 335.281 103.163 333.087 105.909C329.974 100.409 328.799 98.4697 328.378 98.3668ZM333.86 106.497C339.893 99.4704 345.117 97.1159 347.656 100.832C342.641 104.047 340.001 105.963 335.552 109.551C334.458 108.686 334.113 107.998 333.86 106.497ZM336.582 110.581C336.398 110.475 336.34 110.39 336.288 110.213C340.603 106.667 343.152 104.758 347.987 101.531C348.286 101.61 348.404 101.721 348.539 102.009C344.138 105.64 341.511 107.507 336.582 110.581ZM314.288 89.2061C314.857 86.8014 315.358 85.5189 316.495 83.3198C319.089 83.3875 320.341 83.3345 321.204 82.6208C319.689 82.195 318.011 82.0985 314.619 81.9954C315.534 78.9586 315.497 77.198 314.619 73.9752C321.309 73.9469 323.866 74.8026 325.692 78.3164L325.582 76.992C327.558 78.0628 328.748 78.3662 330.99 78.3164C333.253 82.7591 333.503 85.4935 332.977 90.6041C326.502 88.176 321.388 94.8343 314.288 89.2061ZM313.773 80.5974C314.286 78.0527 314.282 76.5842 313.552 73.8649C308.214 73.911 305.913 75.426 303.177 81.0756C300.271 83.6141 299.204 86.3733 300.712 88.1392L300.896 87.8449C301.08 87.5138 301.338 87.6242 301.448 87.9553C301.417 89.2839 301.675 89.8075 303.03 90.0155C302.976 89.6807 302.981 89.5523 303.03 89.3901C303.104 89.059 303.524 89.112 303.582 89.3901C304.207 92.4068 308.401 92.1493 308.512 89.8684L307.555 90.3466C307.15 90.4202 306.893 90.0523 307.298 89.8316C308.05 89.2895 308.379 88.9149 308.585 87.9553C308.691 87.6141 308.99 87.6242 309.1 87.9553C309.19 88.468 309.162 88.749 309.027 89.2429C310.756 88.9118 311.552 85.4536 309.174 84.0924C309.106 83.9714 309.118 83.8977 309.174 83.7613C310.425 80.8743 311.418 80.1424 313.773 80.5974ZM337.575 79.7512L331.468 76.992C333.415 80.3282 334.211 82.3508 334.411 86.5941L335.92 87.2563C335.812 84.2801 336.163 82.6203 337.575 79.7512ZM337.097 86.7044C336.989 84.0477 337.384 82.6452 338.532 80.2295C338.532 80.2295 339.562 80.8549 340.224 80.7077C340.886 80.5606 342.358 78.6107 342.358 78.6107C342.869 79.2167 343.219 79.4657 344.014 79.6776C344.492 79.972 344.553 79.3833 344.345 79.2362C341.586 77.2863 341.254 73.3866 343.756 72.7244C345.448 72.2764 348.392 74.6007 346.994 76.2194C345.673 77.0809 344.932 76.7226 343.609 75.1157C343.364 74.8373 343.02 74.895 343.167 75.2997C343.937 76.8539 344.578 77.3883 346.147 77.6174C346.329 78.1302 346.327 78.5171 346.295 79.2362C346.805 79.1282 346.935 78.6839 346.994 77.4703C347.413 77.3562 347.63 77.2457 347.987 76.9552C348.465 79.5673 352.218 79.7512 351.923 77.5438C352.492 77.1269 352.677 76.843 352.696 76.2194C352.569 75.9706 352.229 75.8515 352.144 76.1826C352.029 76.6291 350.92 77.3835 350.672 77.4335C350.52 77.4642 350.968 77.7337 351.371 77.8014C347.693 79.7144 348.943 73.2762 352.659 73.8281C355.198 74.5639 353.763 80.671 348.575 81.5907C344.576 87.16 342.076 88.3661 337.097 86.7044ZM348.392 75.41C348.343 74.5095 348.177 74.0541 347.582 73.3498C349.9 71.1792 351.22 71.2484 351.997 72.798C350.474 73.1684 349.674 73.6835 348.392 75.41ZM346.81 72.614C346.038 71.9732 345.564 71.761 344.639 71.6207C345.902 69.3176 347.987 68.9719 349.679 70.8113C348.292 71.2152 347.674 71.6221 346.81 72.614ZM329.85 77.3599L330.401 76.4034C327.559 75.724 326.48 74.9707 325.361 73.0555C332.351 77.6902 337.759 75.0054 339.304 70.5538C338.06 70.6156 337.473 70.4588 336.582 69.818C331.174 72.3565 333.271 64.7778 338.973 65.9551C346.478 67.022 343.793 59.7377 339.783 61.0621C339.709 66.2862 332.756 66.7645 332.682 58.3397L327.569 59.6273C327.585 63.2746 326.889 64.2312 324.92 64.8146C323.591 62.3964 320.836 61.246 319.365 62.3129C317.367 63.8597 317.284 64.9923 318.04 67.2427C319.181 70.2963 321.682 70.8481 323.853 69.6709C324.515 69.8548 323.853 71.1424 321.535 71.3632C320.841 72.0453 320.426 72.4328 319.622 73.1291C323.338 73.4602 326.98 77.4335 329.85 77.3599ZM333.933 58.0086C333.712 58.634 334.117 64.5203 337.134 63.6374C340.151 62.7544 337.98 57.5671 337.759 57.2352C337.539 56.9033 334.154 57.3831 333.933 58.0086ZM335.883 56.2059L327.495 58.4132L327.09 56.9049C330.527 54.8778 332.47 53.8726 335.993 52.6005C336.933 53.7373 337.264 54.4653 337.612 55.8748L337.024 56.0219C334.927 52.6005 332.266 54.5216 332.204 56.6473C333.589 56.0124 334.399 55.952 335.883 56.2059ZM316.752 63.8949C314.928 66.0019 312.706 69.5237 312.522 69.5237C312.338 69.5237 310.204 67.6474 310.204 65.9551C312.301 60.032 323.632 49.2158 333.124 48.0386C334.228 47.9017 336.508 51.0185 336.251 51.3864C335.993 51.7543 327.201 54.0353 320.247 60.9149C318.515 61.2963 317.673 61.7859 316.752 63.8949ZM309.946 63.8213C315.806 55.3371 320.054 51.4634 330.622 47.3028C317.084 41.674 305.789 54.2928 309.946 63.8213Z" fill="black" fill-opacity="0.8"/>
<path d="M322.381 66.0287C322.508 65.9551 322.695 66.4801 322.749 66.8748C323.033 67.0296 323.187 67.0281 323.448 66.8748C323.301 63.7109 319.585 63.0487 319.585 64.8146C320.443 64.5955 320.87 64.5754 321.351 65.0722C320.358 65.6976 320.652 67.9785 322.013 68.0521C321.677 66.9397 321.673 66.4398 322.381 66.0287Z" fill="black" fill-opacity="0.8"/>
<path d="M336.582 58.0821C335.564 58.0756 335.993 60.6206 335.993 60.6206C335.993 60.6206 336.264 62.5083 337.134 62.5337C338.141 62.563 337.935 61.0237 337.759 60.032C337.605 59.1561 337.472 58.0878 336.582 58.0821Z" fill="black" fill-opacity="0.8"/>
<path d="M327.09 112.001H325.011L303.177 115.001C303 115.001 303 116.001 303.177 116.001H348.539C349 116.001 349 115.001 348.539 115.001L327.09 112.001Z" fill="black" fill-opacity="0.8"/>
<path d="M326.318 99.5802C325.884 100.398 325.45 101.125 325.011 101.769V112.001H327.09V99.5669C326.855 99.588 326.619 99.5893 326.318 99.5802Z" fill="black" fill-opacity="0.8"/>
<path d="M316.495 83.3198C315.358 85.5189 314.857 86.8014 314.288 89.2061C321.388 94.8343 326.502 88.176 332.977 90.6041C333.503 85.4935 333.253 82.7591 330.99 78.3164C328.748 78.3662 327.558 78.0628 325.582 76.992L325.692 78.3164C323.866 74.8026 321.309 73.9469 314.619 73.9752C315.497 77.198 315.534 78.9586 314.619 81.9954C318.011 82.0985 319.689 82.195 321.204 82.6208C320.341 83.3345 319.089 83.3875 316.495 83.3198Z" fill="black" fill-opacity="0.8"/>
<path d="M347.656 100.832C345.117 97.1159 339.893 99.4704 333.86 106.497C334.113 107.998 334.458 108.686 335.552 109.551C340.001 105.963 342.641 104.047 347.656 100.832Z" fill="black" fill-opacity="0.8"/>
<path d="M307.114 94.4296C302.53 100.3 301.465 102.883 301.522 106.57C303.214 107.637 306.709 106.276 308.843 102.413C309.127 99.5892 309.595 98.0827 310.866 95.4965C309.791 94.4553 308.971 94.2088 307.114 94.4296Z" fill="black" fill-opacity="0.8"/>
</svg>
