<svg width="297" height="121" viewBox="0 0 297 121" fill="none" xmlns="http://www.w3.org/2000/svg">
<path d="M206.53 76.4768C202.847 76.4768 199.826 79.4627 199.861 83.1457C199.896 86.7941 202.881 89.6887 206.53 89.6887C210.178 89.6887 213.164 86.7941 213.199 83.1457C213.234 79.4627 210.213 76.4768 206.53 76.4768Z" fill="black" fill-opacity="0.8"/>
<path d="M269.318 76.6027C265.599 76.5338 262.397 79.4264 262.397 83.1457C262.397 86.865 265.599 89.7576 269.318 89.6887C272.966 89.6212 275.987 86.7942 275.987 83.1457C275.987 79.4972 272.966 76.6702 269.318 76.6027Z" fill="black" fill-opacity="0.8"/>
<path d="M218.106 78.8676C217.225 78.8676 216.974 79.4967 216.974 80.2517V86.543C216.974 87.1722 217.477 87.6755 218.106 87.6755H257.742C258.497 87.6755 259.126 87.4238 259.126 86.543V80.2517C259.126 79.4967 258.623 78.8676 257.742 78.8676H218.106Z" fill="black" fill-opacity="0.8"/>
<path fill-rule="evenodd" clip-rule="evenodd" d="M206.026 54.7086C204.391 54.7086 203.384 56.2185 203.384 57.9801V65.2781C203.384 67.0397 204.139 68.298 206.026 68.298H274.854C276.49 68.298 278.377 67.543 278.377 65.2781V57.9801C278.377 55.9669 277.245 54.7086 274.854 54.7086H206.026ZM218.106 65.2781V57.9801H274.854V65.2781H218.106Z" fill="black" fill-opacity="0.8"/>
<path d="M206.53 33.1921C202.847 33.1921 199.826 36.178 199.861 39.8609C199.896 43.5093 202.881 46.404 206.53 46.404C210.178 46.404 213.164 43.5093 213.199 39.8609C213.234 36.178 210.213 33.1921 206.53 33.1921Z" fill="black" fill-opacity="0.8"/>
<path d="M269.318 33.3179C265.599 33.2491 262.397 36.1416 262.397 39.8609C262.397 43.5803 265.599 46.4728 269.318 46.404C272.966 46.3365 275.987 43.5095 275.987 39.8609C275.987 36.2124 272.966 33.3854 269.318 33.3179Z" fill="black" fill-opacity="0.8"/>
<path d="M218.106 35.5828C217.225 35.5828 216.974 36.2119 216.974 36.9669V43.2583C216.974 43.8874 217.477 44.3907 218.106 44.3907H257.742C258.497 44.3907 259.126 44.1391 259.126 43.2583V36.9669C259.126 36.2119 258.623 35.5828 257.742 35.5828H218.106Z" fill="black" fill-opacity="0.8"/>
<path fill-rule="evenodd" clip-rule="evenodd" d="M206.026 98.245C204.391 98.245 203.384 99.755 203.384 101.517V108.815C203.384 110.576 204.139 111.834 206.026 111.834H274.854C276.49 111.834 278.377 111.079 278.377 108.815V101.517C278.377 99.5033 277.245 98.245 274.854 98.245H206.026ZM218.106 108.815V101.517H274.854V108.815H218.106Z" fill="black" fill-opacity="0.8"/>
<path fill-rule="evenodd" clip-rule="evenodd" d="M206.026 10.7947C204.391 10.7947 203.384 12.3046 203.384 14.0662V21.3642C203.384 23.1258 204.139 24.3841 206.026 24.3841H274.854C276.49 24.3841 278.377 23.6291 278.377 21.3642V14.0662C278.377 12.053 277.245 10.7947 274.854 10.7947H206.026ZM218.106 21.3642V14.0662H274.854V21.3642H218.106Z" fill="black" fill-opacity="0.8"/>
<path fill-rule="evenodd" clip-rule="evenodd" d="M295.364 7.1457C295.364 5.76159 294.609 4 293.099 4H188.662C186.901 4 185.894 5.63576 185.894 6.89404V26.2715C184.132 26.2715 183 27.7815 183 29.4172V50.053C183 51.5629 185.265 52.5695 187.152 52.5695V69.8079C184.887 69.8079 183.755 70.5629 183.755 72.702V93.2119C183.755 94.9735 185.139 95.9801 187.152 95.9801V114.225C187.152 116.49 188.411 118 190.55 118H293.225C294.358 118 296.119 116.616 296.119 114.98V93.7152C296.119 91.9536 294.861 91.3245 292.219 91.3245V73.8344C293.98 73.8344 295.742 73.3311 295.742 71.6954V50.8079C295.742 49.4238 294.609 48.0397 292.722 48.0397V30.1722C294.483 30.1722 295.364 28.9139 295.364 27.0265V7.1457ZM187.152 30.5497H288.57V48.2914H187.152V30.5497ZM191.053 52.5695H291.715V69.8079H191.053V52.5695ZM188.411 73.8344V91.702H288.066V73.8344H188.411ZM191.556 95.9801H291.715V113.47H191.556V95.9801ZM290.834 8.27815V26.1457H190.172V8.27815H290.834Z" fill="black" fill-opacity="0.8"/>
<path fill-rule="evenodd" clip-rule="evenodd" d="M22.2715 54.4172C20.6358 54.4172 19.6291 55.9271 19.6291 57.6887V64.9868C19.6291 66.7483 20.3841 68.0066 22.2715 68.0066H91.0993C92.7351 68.0066 94.6225 67.2517 94.6225 64.9868V57.6887C94.6225 55.6755 93.4901 54.4172 91.0993 54.4172H22.2715ZM34.351 64.9868V57.6887H91.0993V64.9868H34.351Z" fill="black" fill-opacity="0.8"/>
<path fill-rule="evenodd" clip-rule="evenodd" d="M111.987 50.5166V71.404C111.987 73.0397 110.225 73.543 108.464 73.543V91.0331C111.106 91.0331 112.364 91.6622 112.364 93.4238V114.689C112.364 116.324 110.603 117.709 109.47 117.709H6.7947C4.65563 117.709 3.39735 116.199 3.39735 113.934V95.6887C1.38411 95.6887 0 94.6821 0 92.9205V72.4106C0 70.2715 1.13245 69.5166 3.39735 69.5166V52.2781C3.39735 48.7086 3.39735 48 6.45865 48H104.815H110.268C111.362 48.4611 111.987 49.4888 111.987 50.5166ZM107.96 52.2781H7.29801V69.5166H107.96V52.2781ZM4.65563 91.4106V73.543H104.311V91.4106H4.65563ZM107.96 95.6887H7.80132V113.179H107.96V95.6887Z" fill="black" fill-opacity="0.8"/>
<path d="M22.7748 76.1854C19.0917 76.1854 16.0709 79.1714 16.106 82.8543C16.1407 86.5027 19.1263 89.3973 22.7748 89.3973C26.4234 89.3973 29.409 86.5027 29.4437 82.8543C29.4788 79.1714 26.458 76.1854 22.7748 76.1854Z" fill="black" fill-opacity="0.8"/>
<path d="M34.351 78.5762C33.4702 78.5762 33.2185 79.2053 33.2185 79.9603V86.2517C33.2185 86.8808 33.7219 87.3841 34.351 87.3841H73.9868C74.7417 87.3841 75.3709 87.1325 75.3709 86.2517V79.9603C75.3709 79.2053 74.8676 78.5762 73.9868 78.5762H34.351Z" fill="black" fill-opacity="0.8"/>
<path d="M85.5629 76.3113C81.8442 76.2424 78.6424 79.135 78.6424 82.8543C78.6424 86.5736 81.8442 89.4662 85.5629 89.3973C89.2108 89.3298 92.2318 86.5028 92.2318 82.8543C92.2318 79.2058 89.2108 76.3788 85.5629 76.3113Z" fill="black" fill-opacity="0.8"/>
<path fill-rule="evenodd" clip-rule="evenodd" d="M22.2715 97.9536C20.6358 97.9536 19.6291 99.4636 19.6291 101.225V108.523C19.6291 110.285 20.3841 111.543 22.2715 111.543H91.0993C92.7351 111.543 94.6225 110.788 94.6225 108.523V101.225C94.6225 99.2119 93.4901 97.9536 91.0993 97.9536H22.2715ZM34.351 108.523V101.225H91.0993V108.523H34.351Z" fill="black" fill-opacity="0.8"/>
<path fill-rule="evenodd" clip-rule="evenodd" d="M116.899 105.81L133.793 110.337C133.109 112.889 133.391 114.267 135.093 114.723L155.633 120.227C157.213 120.65 159.006 119.307 159.299 118.213L185.873 19.0362C186.427 16.97 185.294 15.3638 183.106 14.7776L165.483 10.0554C166.004 8.1108 165.39 6.51333 163.689 6.05739L143.877 0.749031C141.811 0.195399 140.789 1.09386 140.203 3.28159L139.193 7.04934L114.084 100.757C113.325 103.591 114.161 105.076 116.899 105.81ZM161.025 10.1636L143.766 5.53912L117.974 101.799L135.232 106.424L161.025 10.1636ZM138.42 111.055L164.343 14.3094L181.237 18.8361L155.314 115.582L138.42 111.055Z" fill="black" fill-opacity="0.8"/>
<path d="M140.942 35.5253C141.17 34.6745 141.843 34.5943 142.572 34.7897L148.649 36.418C149.257 36.5808 149.613 37.1973 149.45 37.805L139.192 76.0902C138.996 76.8194 138.59 77.362 137.739 77.134L131.662 75.5057C130.933 75.3103 130.456 74.6613 130.684 73.8105L140.942 35.5253Z" fill="black" fill-opacity="0.8"/>
<path d="M141.629 23.7248C142.582 20.1672 146.248 18.0221 149.797 19.0092C153.312 19.9871 155.335 23.6201 154.391 27.1443C153.447 30.6685 149.878 32.8032 146.345 31.8925C142.778 30.9732 140.676 27.2825 141.629 23.7248Z" fill="black" fill-opacity="0.8"/>
<path d="M125.5 84.406C126.396 80.7962 130.019 78.4521 133.611 79.4148C137.204 80.3774 139.169 84.2188 138.14 87.793C137.131 91.2991 133.618 93.4854 130.094 92.5411C126.57 91.5968 124.621 87.9471 125.5 84.406Z" fill="black" fill-opacity="0.8"/>
<path fill-rule="evenodd" clip-rule="evenodd" d="M162.786 28.8727C163.209 27.2927 164.928 26.7112 166.63 27.1671L173.679 29.0559C175.381 29.5119 176.401 30.5668 175.912 32.3899L158.098 98.8725C157.675 100.452 156.457 102.08 154.269 101.494L147.22 99.6051C145.275 99.0841 144.353 97.6645 144.972 95.3553L162.786 28.8727ZM169.869 43.2762L162.82 41.3873L148.132 96.202L155.181 98.0909L169.869 43.2762Z" fill="black" fill-opacity="0.8"/>
</svg>
