<svg width="453" height="450" viewBox="0 0 453 450" fill="none" xmlns="http://www.w3.org/2000/svg">
<path d="M165 93.5C165 78.8644 153.135 66.8606 138.5 67C124.003 67.1381 112.5 79.0019 112.5 93.5C112.5 107.998 124.003 119.862 138.5 120C153.135 120.139 165 108.136 165 93.5Z" fill="black" fill-opacity="0.7"/>
<path d="M164.5 343C164.773 328.223 153.279 315.5 138.5 315.5C123.721 315.5 112.226 328.223 112.5 343C112.768 357.496 124.002 369.5 138.5 369.5C152.998 369.5 164.232 357.496 164.5 343Z" fill="black" fill-opacity="0.7"/>
<path d="M155.5 139.5C155.5 136 153 135 150 135L125 135C122.5 135 120.5 137 120.5 139.5L120.5 297C120.5 300 121.5 302.5 125 302.5L150 302.5C153 302.5 155.5 300.5 155.5 297L155.5 139.5Z" fill="black" fill-opacity="0.7"/>
<path fill-rule="evenodd" clip-rule="evenodd" d="M251.5 91.5C251.5 85 245.5 81 238.5 81L209.5 81C202.5 81 197.5 84 197.5 91.5L197.5 365C197.5 371.5 200.5 379 209.5 379L238.5 379C246.5 379 251.5 374.5 251.5 365L251.5 91.5ZM209.5 139.5L238.5 139.5L238.5 365L209.5 365L209.5 139.5Z" fill="black" fill-opacity="0.7"/>
<path d="M337 93.5002C337 78.8647 325.135 66.8608 310.5 67.0002C296.003 67.1383 284.5 79.0021 284.5 93.5002C284.5 107.998 296.003 119.862 310.5 120C325.135 120.14 337 108.136 337 93.5002Z" fill="black" fill-opacity="0.7"/>
<path d="M336.5 343C336.773 328.223 325.279 315.5 310.5 315.5C295.721 315.5 284.226 328.223 284.5 343C284.768 357.496 296.002 369.5 310.5 369.5C324.998 369.5 336.232 357.496 336.5 343Z" fill="black" fill-opacity="0.7"/>
<path d="M327.5 139.5C327.5 136 325 135 322 135L297 135C294.5 135 292.5 137 292.5 139.5L292.5 297C292.5 300 293.5 302.5 297 302.5L322 302.5C325 302.5 327.5 300.5 327.5 297L327.5 139.5Z" fill="black" fill-opacity="0.7"/>
<path fill-rule="evenodd" clip-rule="evenodd" d="M78.5 91.5C78.5 85 72.5 81 65.5 81L36.5 81C29.5 81 24.5 84 24.5 91.5L24.5 365C24.5 371.5 27.5 379 36.5 379L65.5 379C73.5 379 78.5 374.5 78.5 365L78.5 91.5ZM36.5 139.5L65.5 139.5L65.5 365L36.5 365L36.5 139.5Z" fill="black" fill-opacity="0.7"/>
<path fill-rule="evenodd" clip-rule="evenodd" d="M426 91.5C426 85 420 81 413 81L384 81C377 81 372 84 372 91.5L372 365C372 371.5 375 379 384 379L413 379C421 379 426 374.5 426 365L426 91.5ZM384 139.5L413 139.5L413 365L384 365L384 139.5Z" fill="black" fill-opacity="0.7"/>
<path fill-rule="evenodd" clip-rule="evenodd" d="M440.5 446.5C446 446.5 453 443.5 453 437.5L453 22.5C453 15.5 446.5 11.5 441.5 11.5L364.5 11.5C364.5 4.5 358.5 -4.13073e-06 352 -4.41485e-06L270 -7.99918e-06C264 -8.26145e-06 260 8.99999 260 16.5L191.5 16.5C191.5 7.49999 188.5 2.99999 180 2.99999L98.5 2.99998C91.5 2.99998 87.5 8.49998 87.5 16.5L15 16.5C6 16.5 -9.39795e-07 21.5 -1.31134e-06 30L-1.91456e-05 438C-1.93423e-05 442.5 5.49998 449.5 12 449.5L96.5 449.5C103.5 449.5 106 444.5 106 434L175.5 434C175.5 441 177.5 448 184 448L267 448C272.5 448 278 443.5 278 436L349 436C349 443 354 446.5 361.5 446.5L440.5 446.5ZM347.5 16.5L347.5 419.5L277 419.5L277 16.5L347.5 16.5ZM260 32L260 432L191.5 432L191.5 32L260 32ZM175.5 21.5L104.5 21.5L104.5 417.5L175.5 417.5L175.5 21.5ZM87.5 34L87.5 432L18 432L18 34L87.5 34ZM436 428.5L365 428.5L365 28.5L436 28.5L436 428.5Z" fill="black" fill-opacity="0.7"/>
</svg>
