<svg width="913" height="954" viewBox="0 0 913 954" fill="none" xmlns="http://www.w3.org/2000/svg">
<path fill-rule="evenodd" clip-rule="evenodd" d="M73.2217 545.903C73.2147 545.889 73.2077 545.875 73.2007 545.861L73.2217 545.903Z" fill="#FF0000"/>
<path id="left-hand" d="M142.543 405.108C138.645 340.943 183.509 333.105 193.814 393.811L208.553 460.706C236.683 409.452 287.341 437.201 265.41 479.409C259.913 489.989 257.704 504.733 255.393 520.158C251.767 544.355 247.89 570.23 230.676 584.341L273.099 667.664L284.503 689.213C287.141 693.565 288.592 696.334 290.826 701.644L301.312 721.349C300.493 721.906 301.618 726.257 303.004 731.617C305.387 740.835 308.542 753.036 303.911 754.056C299.046 757.297 282.186 722.28 261.267 678.831C247.629 650.505 232.266 618.595 217.375 591.366C217.046 590.814 215.518 591.153 213.659 591.565C210.942 592.167 207.517 592.925 206.095 591.291C203.081 587.829 205.64 584.538 215.72 576.883C229.821 563.731 233.588 544.693 238.179 521.491C239.672 513.945 241.252 505.958 243.304 497.59C251.728 471.17 255.801 457.566 252.44 453.081C246.705 445.641 231.76 452.006 222.316 467.399C219.219 472.446 217.657 476.49 216.303 479.998C213.209 488.012 211.196 493.225 194.434 501.19C169.159 510.566 167.416 538.618 166.362 555.592C165.856 563.729 165.509 569.32 162.803 569.087C146.624 567.692 151.639 504.478 194.301 484.323C193.386 478.397 192.505 472.641 191.653 467.069C182.483 407.097 176.593 368.579 165.219 370.925C151.727 372.511 154.52 404.849 161.95 469.948C153.334 471.846 145.971 475.988 140.656 478.977C135.428 481.918 132.18 483.744 131.668 481.228C131.179 476.313 134.216 472.667 146.83 464.064C125.586 397.7 114.106 363.469 102.966 367.234C85.8892 370.997 97.9018 406.722 108.092 437.028C115.676 459.582 122.25 479.134 115.074 480.277C108.672 483.399 101.067 464.635 93.0856 444.944C84.3521 423.397 75.1682 400.739 66.6178 404.427C54.601 409.609 67.2951 445.014 76.8938 471.786C82.8054 488.274 87.5429 501.488 84.6104 502.349C77.6326 504.399 68.9886 488.997 60.4475 473.779C51.9194 458.583 43.4938 443.571 36.9318 446.295C26.6828 452.847 44.0842 487.642 73.1479 545.756L73.1568 545.774L73.1834 545.827L73.2007 545.861L73.2217 545.903C74.4193 548.298 75.6366 550.732 76.8725 553.205C96.3876 593.562 107.666 609.245 129.103 611.328C134.044 614.187 133.987 616.723 131.47 622.07C158.222 725.038 174.526 774.09 208.215 830.949C244.547 893.599 313.703 857 353.703 802L372.703 773L372.703 808.5L355.844 827.092C255.961 940.747 175.253 885.828 115.788 627.574C93.2801 618.777 83.375 608.322 71.1884 578.522C63.0575 559.444 54.383 541.47 46.4619 525.056C18.2372 466.572 -0.422011 427.909 49.1651 429.776C40.9289 394.727 59.7237 377.786 81.2333 389.43C78.3364 341.429 121.753 324.695 142.543 405.108Z" fill="black"/>
<path fill-rule="evenodd" clip-rule="evenodd" d="M479.465 448.71C471.465 443.71 467.465 448.71 471.465 455.21C489.965 479.21 560.465 484.71 583.965 459.71C588.965 451.71 584.647 447.93 576.465 451.21C536.778 467.119 515.445 467.013 479.465 448.71ZM793.965 335.71C779.965 326.21 752.965 373.21 757.965 383.71C759.758 386.551 763.735 382.188 770.15 375.151C770.577 374.682 771.016 374.201 771.465 373.71C773.516 373.416 777.965 376.71 777.465 380.21C776.103 383.274 774.394 386.155 772.869 388.724C769.916 393.701 767.657 397.507 769.965 399.21C777.465 404.71 801.965 367.71 777.465 358.71C779.955 352.792 782.134 350.264 787.965 347.71C789.389 346.761 790.813 348.74 792.343 350.868C794.038 353.223 795.863 355.761 797.965 354.71C802.965 352.21 800.965 340.46 793.965 335.71ZM636.465 251.21C621.698 248.549 615.177 267.722 614.465 282.71C613.827 296.144 616.179 311.624 629.465 313.71C644.019 315.995 650.031 297.413 650.965 282.71C651.823 269.195 649.792 253.611 636.465 251.21ZM404.465 238.21V301.71C394.791 301.56 393.794 282.592 394.465 238.21C394.616 228.21 404.465 229.71 404.465 238.21ZM737.3 813.142L737.293 813.045L737.276 812.774C737.002 808.611 736.734 804.534 736.473 800.545C736.741 804.652 737.017 808.852 737.3 813.143V813.142ZM451.465 273.21C451.48 258.533 457.393 239.958 471.965 241.71C485.577 243.347 488.647 259.551 487.465 273.21C486.273 286.984 480.134 303.783 466.465 301.71C454.03 299.824 451.452 285.787 451.465 273.21Z" fill="black"/>
<path fill-rule="evenodd" clip-rule="evenodd" d="M145.971 508.293C145.967 508.278 145.963 508.263 145.959 508.248L145.971 508.293Z" fill="black"/>
<path fill-rule="evenodd" clip-rule="evenodd" d="M314.965 670.212L321.465 693.71C348.672 700.395 361.835 708.024 379.965 731.21C379.01 735.705 378.303 739.074 377.467 743.058C377.022 745.18 376.54 747.476 375.965 750.21C359.659 726.957 348.43 717.655 324.965 707.21L330.965 728.71C351.801 744.369 360.598 754.553 371.465 775.71C370.344 792.07 368.914 800.754 365.465 815.71L361.465 843.71L352.465 953.21H370.965L390.965 758.71C398.078 712.086 407.096 679.441 412.741 659.006C417.811 640.654 420.16 632.149 415.965 632.21C407.712 630.318 399.006 660.06 383.465 713.21C365.073 694.344 352.954 687.267 328.465 680.21C379.466 597.303 408.771 566.657 462.965 555.71C474.465 723.21 720.465 653.21 744.465 550.71C869.135 595.393 891.299 653.878 892.965 784.71C852.465 809.71 787.965 813.71 753.465 801.71C752.54 801.71 751.261 785.965 749.666 766.33L749.666 766.324L749.665 766.319L749.665 766.317C746.951 732.893 743.322 688.205 738.965 690.71C730.363 698.461 732.457 738.951 736.473 800.545C736.734 804.534 737.002 808.611 737.276 812.774L737.293 813.045L737.3 813.142V813.143L737.301 813.166C737.84 821.359 738.401 829.882 738.965 838.71C738.749 849.914 741.094 854.367 750.965 860.21V953.21H767.965V863.21C812.666 867.245 836.802 864.407 878.465 851.71V953.21H894.965V844.71C904.785 839.361 908.841 835.459 912.465 826.21C911.02 808.312 909.82 791.871 908.714 776.713C896.812 613.601 895.757 599.143 715.965 517.71V494.21C729.83 477.099 736.136 466.594 743.965 445.71C796.465 455.21 830.965 422.71 834.465 347.71C855.453 318.619 859.679 300.051 854.965 263.213C882.465 30.7103 601.965 -69.7883 460.465 52.2123C405.965 54.7123 359.965 157.712 397.965 190.712L396.965 203.712C367.465 208.212 358.465 219.212 371.465 239.712C368.432 279.638 371.261 297.362 387.465 317.713C376.037 435.613 394.585 482.444 466.465 536.212C393.828 556.046 361.381 587.095 314.965 670.212ZM756.965 820.21V841.21C796.465 854.21 862.465 847.21 892.965 824.21V801.71C841.393 823.691 811.638 828.107 756.965 820.21ZM478.965 548.71L489.465 547.71C486.965 652.71 670.465 650.21 714.465 533.71L730.965 544.21C700.965 664.71 462.965 685.21 478.965 548.71ZM506.965 552.71C583.314 565.142 625.591 560.594 698.965 509.21C697.465 618.71 506.965 640.21 506.965 552.71ZM502.965 44.71C665.965 44.71 774.465 104.21 839.965 223.71C824.965 40.21 616.465 -25.79 502.965 44.71ZM830.965 322.71C825.262 306.631 818.748 300.175 801.965 293.21C716.465 139.21 474.465 87.71 399.465 162.21C402.465 106.71 431.465 72.21 463.965 66.71C661.465 41.21 800.465 144.21 841.465 277.21C840.897 295.827 838.631 305.849 830.965 322.71ZM721.965 248.21C722.698 225.646 716.413 215.035 695.965 202.21C621.965 150.083 481.465 128.71 425.965 162.21C416.248 168.535 414.009 176.487 412.965 194.71C447.465 164.71 508.465 175.71 510.965 222.71C525.769 220.774 533.941 220.804 547.965 226.21C556.025 221.726 560.503 220.013 568.465 218.71C581.465 172.21 671.465 175.71 686.465 227.21L721.965 248.21ZM455.965 323.21C397.965 328.21 375.465 302.21 387.465 230.71C394.465 208.21 487.465 217.21 496.965 235.71C496.071 257.768 494.809 269.815 487.465 289.21C486.387 295.137 479.503 300.774 472.21 306.746C465.967 311.857 459.424 317.215 455.965 323.21ZM564.965 239.712C577.015 221.066 684.465 233.71 682.965 254.71C692.965 383.71 525.965 361.21 564.965 239.712ZM512.465 242.71C518.465 237.71 541.965 239.712 545.465 247.21C524.465 380.71 689.965 395.21 701.965 267.21L720.465 278.21C716.941 322.641 715.241 347.131 741.465 346.21C782.465 274.71 837.683 305.21 811.465 385.21C800.486 418.71 769.465 446.874 736.965 420.21C734.202 418.075 730.372 427.833 725.628 439.918C724.011 444.038 722.288 448.428 720.465 452.71C720.465 452.71 690.465 539.71 556.965 540.21C364.965 533.71 401.465 330.21 401.465 330.21C419.343 339.138 429.687 340.946 448.965 339.21C448.063 348.61 448.97 353.151 452.965 360.21C402.465 385.71 407.965 445.71 450.465 424.21C458.536 430.062 466.526 433.877 474.5 435.263C486.285 437.311 498.036 434.051 509.965 424.21C520.007 435.208 535.765 440.604 551.5 440.89C568.67 441.202 585.811 435.429 595.465 424.21C661.465 471.71 646.465 362.21 556.965 362.21C555.508 351.556 548.519 352.585 530.965 360.21C467.965 387.575 448.965 347.71 479.965 320.21C502.532 303.081 509.122 285.415 512.465 242.71Z" fill="black"/>
<path id="middle-hand" d="M296.465 385.713C299.465 324.212 253.965 322.213 243.965 385.713C240.965 302.71 194.965 309.71 187.465 357.21C168.965 341.21 146.965 353.71 147.466 389.71C99.4425 377.216 109.345 418.989 124.324 482.177C128.528 499.91 133.131 519.33 136.966 539.71C142.455 571.435 149.878 583.776 169.966 597.21C172.466 862.21 239.466 933.21 361.465 843.71L365.465 815.71C322.965 872.21 238.465 884.71 216.465 815.71C195.8 752.934 190.433 701.522 186.465 595.21C190.074 590.53 190.675 588.065 186.465 584.21C165.978 577.563 158.339 559.821 147.965 516.21C147.29 513.529 146.625 510.89 145.971 508.293L145.959 508.248L145.95 508.21L145.935 508.153L145.93 508.133C130.053 445.127 120.546 407.402 131.965 403.21C138.96 401.961 143.957 418.435 149.016 435.109C154.082 451.809 159.209 468.71 166.465 468.21C169.514 468 167.731 454.076 165.506 436.703C161.892 408.493 157.114 371.185 169.965 368.71C179.108 366.949 183.202 391.052 187.094 413.973C190.651 434.921 194.041 454.881 200.965 453.21C208.218 453.638 206.005 433.129 203.452 409.472C200.022 377.683 195.978 340.21 213.465 340.21C225.154 338.93 228.999 374.83 235.465 444.21C221.295 449.898 217.545 452.805 216.965 457.71C216.924 460.277 220.488 459.192 226.227 457.446C232.061 455.67 240.142 453.21 248.965 453.21C255.717 388.038 259.948 355.856 273.465 357.21C285.078 357.366 282.541 396.25 278.592 456.79C278.225 462.414 277.846 468.226 277.465 474.21C231.465 484.713 212.965 545.366 228.465 550.21C231.057 551.02 232.6 545.635 234.844 537.797C239.526 521.448 247.265 494.428 273.965 490.71C292.049 486.539 295.136 481.881 299.882 474.721C301.959 471.586 304.354 467.973 308.465 463.71C321.001 450.71 336.965 447.71 340.965 456.21C343.282 461.313 336.376 473.722 322.465 497.71C318.661 505.441 315.399 512.9 312.317 519.949C302.841 541.619 295.066 559.4 278.465 569.21C266.974 574.517 263.767 577.18 265.965 581.21C267.002 583.112 270.509 583.108 273.292 583.105C275.197 583.102 276.762 583.101 276.965 583.71C285.647 613.506 293.784 647.974 301.007 678.571C312.087 725.504 321.017 763.329 326.465 761.21C331.207 761.21 330.752 748.616 330.408 739.102C330.208 733.569 330.046 729.078 330.965 728.71L324.965 707.21C323.925 701.544 323.104 698.528 321.465 693.71L314.965 670.212L291.465 579.712C311.313 569.636 320.667 545.201 329.414 522.351C334.99 507.784 340.32 493.861 347.965 484.713C378.465 448.213 334.965 410.213 296.465 454.213V385.713Z" fill="black"/>
<path id="open-mouth" d="M509.965 424.21C498.036 434.051 486.285 437.311 474.5 435.263C502.707 460.578 519.814 458.794 551.5 440.89C535.765 440.604 520.007 435.208 509.965 424.21Z" fill="#F53DFF"/>
<path fill-rule="evenodd" clip-rule="evenodd" d="M201.456 494.827C201.454 494.812 201.453 494.796 201.451 494.781L201.456 494.827Z" fill="#60BA1C"/>
<path id="right-hand" fill-rule="evenodd" clip-rule="evenodd" d="M316.742 388.348C336.162 327.068 380.846 335.876 368.647 396.23L358.364 463.953C403.033 426.231 440.335 470.331 404.701 501.839C395.769 509.736 388.41 522.701 380.71 536.265C368.631 557.543 355.715 580.297 334.579 587.279L344.227 680.282L347.125 704.489C348.023 709.498 348.382 712.604 348.559 718.361L351.263 740.519C350.299 740.744 349.785 745.209 349.152 750.709C348.064 760.167 346.623 772.687 341.935 771.975C336.23 773.251 333.08 734.515 329.172 686.45C326.624 655.116 323.754 619.817 319.643 589.055C319.534 588.422 317.986 588.189 316.103 587.905C313.351 587.491 309.883 586.968 309.143 584.932C307.575 580.618 311.145 578.466 323.303 574.945C341.188 567.738 351.545 551.326 364.167 531.324C368.272 524.818 372.617 517.932 377.539 510.86C394.894 489.233 403.584 478.001 402.059 472.608C399.381 463.604 383.147 464.173 368.801 475.144C364.098 478.741 361.187 481.955 358.663 484.741C352.896 491.108 349.144 495.249 330.639 496.659C303.683 496.326 291.976 521.878 284.893 537.339C281.497 544.751 279.164 549.844 276.722 548.654C262.125 541.538 289.521 484.349 336.576 480.871C337.852 475.012 339.099 469.323 340.306 463.818C353.299 404.557 361.645 366.495 350.187 364.597C337.026 361.229 328.012 392.41 311.552 455.83C302.829 454.506 294.47 455.725 288.436 456.605C282.5 457.47 278.813 458.008 279.239 455.475C280.55 450.713 284.693 448.402 299.556 444.906C303.58 375.341 305.167 339.271 293.419 338.782C276.13 336.156 274.503 373.812 273.122 405.756C272.094 429.528 271.203 450.136 264.096 448.624C257 449.237 256.645 428.994 256.273 407.75C255.866 384.504 255.438 360.059 246.133 360.428C233.057 360.946 232.18 398.548 231.517 426.981C231.109 444.492 230.781 458.525 227.735 458.275C220.487 457.68 217.955 440.201 215.453 422.93C212.955 405.685 210.487 388.647 203.384 388.832C191.466 391.263 195.201 429.987 201.44 494.663L201.442 494.683L201.448 494.742L201.451 494.781L201.456 494.827C201.713 497.492 201.974 500.201 202.239 502.954C205.948 547.628 210.837 566.316 230.094 575.963C233.678 580.407 232.713 582.753 228.442 586.838C216.406 692.541 213.994 744.176 225 809.343C236.391 880.864 314.08 871.561 371.172 834.609L364.153 858.794C230.1 928.965 174.519 848.711 211.831 586.339C193.987 570.042 188.501 556.725 187.837 524.536C187.105 503.811 185.469 483.92 183.975 465.757C178.652 401.037 175.133 358.251 220.737 377.812C225.646 342.145 249.273 333.09 265.161 351.686C279.707 305.85 326.237 305.835 316.742 388.348Z" fill="black"/>
</svg>
