<svg width="898" height="954" viewBox="0 0 898 954" fill="none" xmlns="http://www.w3.org/2000/svg">
<path fill-rule="evenodd" clip-rule="evenodd" d="M451.463 536.212C378.826 556.046 346.379 587.095 299.963 670.212C295.039 677.658 291.527 683.702 288.675 689.864C285.473 696.78 283.102 703.845 280.498 713.21C286.23 714.615 290.919 715.949 295.394 717.654C301.861 720.117 307.882 723.356 315.963 728.71C336.799 744.369 345.596 754.553 356.463 775.71L360.963 750.21C344.657 726.957 333.428 717.655 309.963 707.21L301.498 705L306.463 693.71C333.67 700.395 346.833 708.024 364.963 731.21C364.008 735.705 363.301 739.074 362.465 743.058C362.02 745.18 361.538 747.476 360.963 750.21L356.463 775.71C355.342 792.07 353.912 800.754 350.463 815.71L346.463 843.71L337.463 953.21H355.963L375.963 758.71C383.076 712.086 392.094 679.441 397.739 659.006C402.809 640.654 405.158 632.149 400.963 632.21C392.71 630.318 384.004 660.06 368.463 713.21C350.071 694.344 337.952 687.267 313.463 680.21C364.464 597.303 393.769 566.657 447.963 555.71C459.463 723.21 705.463 653.21 729.463 550.71C854.133 595.393 876.297 653.878 877.963 784.71C837.463 809.71 772.963 813.71 738.463 801.71C737.538 801.71 736.259 785.965 734.664 766.33L734.664 766.324L734.663 766.319L734.663 766.317C731.949 732.893 728.32 688.205 723.963 690.71C715.361 698.461 717.455 738.951 721.471 800.545C721.615 802.75 721.761 804.981 721.91 807.239C722.03 809.067 722.151 810.912 722.274 812.774L722.291 813.045L722.298 813.142V813.143L722.299 813.166C722.838 821.359 723.399 829.882 723.963 838.71C723.747 849.914 726.092 854.367 735.963 860.21V953.21H752.963V863.21C797.664 867.245 821.8 864.407 863.463 851.71V953.21H879.963V844.71C889.783 839.361 893.839 835.459 897.463 826.21C896.018 808.312 894.818 791.871 893.712 776.713C881.81 613.601 880.755 599.143 700.963 517.71V494.21C714.828 477.099 721.134 466.594 728.963 445.71C781.463 455.21 815.963 422.71 819.463 347.71C840.451 318.619 844.677 300.051 839.963 263.213C867.463 30.7103 586.963 -69.7883 445.463 52.2123C390.963 54.7123 344.963 157.712 382.963 190.712L381.963 203.712C352.463 208.212 343.463 219.212 356.463 239.712C353.43 279.638 356.259 297.362 372.463 317.713C361.035 435.613 379.583 482.444 451.463 536.212ZM741.963 841.21V820.21C796.636 828.107 826.391 823.691 877.963 801.71V824.21C847.463 847.21 781.463 854.21 741.963 841.21ZM474.463 547.71L463.963 548.71C447.963 685.21 685.963 664.71 715.963 544.21L699.463 533.71C655.463 650.21 471.963 652.71 474.463 547.71ZM491.963 552.71C568.312 565.142 610.589 560.594 683.963 509.21C682.463 618.71 491.963 640.21 491.963 552.71ZM487.963 44.71C650.963 44.71 759.463 104.21 824.963 223.71C809.963 40.21 601.463 -25.79 487.963 44.71ZM786.963 293.21C803.746 300.175 810.261 306.631 815.963 322.71C823.629 305.849 825.895 295.827 826.463 277.21C785.463 144.21 646.463 41.21 448.963 66.71C416.463 72.21 387.463 106.71 384.463 162.21C459.463 87.71 701.463 139.21 786.963 293.21ZM680.963 202.21C701.411 215.035 707.696 225.646 706.963 248.21L671.463 227.21C656.463 175.71 566.463 172.21 553.463 218.71C545.501 220.013 541.023 221.726 532.963 226.21C518.939 220.804 510.767 220.774 495.963 222.71C493.463 175.71 432.463 164.71 397.963 194.71C399.007 176.487 401.246 168.535 410.963 162.21C466.463 128.71 606.963 150.083 680.963 202.21ZM372.463 230.71C360.463 302.21 382.963 328.21 440.963 323.21C444.422 317.215 450.965 311.857 457.208 306.746C464.501 300.774 471.385 295.137 472.463 289.21C479.807 269.815 481.069 257.768 481.963 235.71C472.463 217.21 379.463 208.21 372.463 230.71ZM549.963 239.712C562.014 221.066 669.463 233.71 667.963 254.71C677.963 383.71 510.963 361.21 549.963 239.712ZM530.463 247.21C526.963 239.712 503.463 237.71 497.463 242.71C494.12 285.415 487.53 303.081 464.963 320.21C433.963 347.71 452.963 387.575 515.963 360.21C533.517 352.585 540.506 351.556 541.963 362.21C631.463 362.21 646.463 471.71 580.463 424.21C570.153 436.191 551.304 441.962 533 440.742C518.458 439.773 504.26 434.393 494.963 424.21C484.71 432.669 474.588 436.266 464.463 435.809C454.838 435.374 445.21 431.276 435.463 424.21C392.963 445.71 387.463 385.71 437.963 360.21C433.968 353.151 433.061 348.61 433.963 339.21C414.685 340.946 404.341 339.138 386.463 330.21C386.463 330.21 349.963 533.71 541.963 540.21C675.463 539.71 705.463 452.71 705.463 452.71C707.286 448.428 709.009 444.038 710.626 439.918C715.37 427.833 719.2 418.075 721.963 420.21C754.463 446.874 785.484 418.71 796.463 385.21C822.681 305.21 767.463 274.71 726.463 346.21C700.239 347.131 701.939 322.641 705.463 278.21L686.963 267.21C674.963 395.21 509.463 380.71 530.463 247.21Z" fill="black"/>
<path id="mouth" d="M494.963 424.21C484.71 432.669 474.588 436.266 464.463 435.809C486.572 457.493 501.996 456.834 533 440.742C518.458 439.773 504.26 434.393 494.963 424.21Z" fill="black"/>
<path fill-rule="evenodd" clip-rule="evenodd" d="M742.963 383.71C737.963 373.21 764.963 326.21 778.963 335.71C785.963 340.46 787.963 352.21 782.963 354.71C780.861 355.761 779.036 353.223 777.341 350.868C775.811 348.74 774.387 346.761 772.963 347.71C767.132 350.264 764.953 352.792 762.463 358.71C786.963 367.71 762.463 404.71 754.963 399.21C752.655 397.507 754.914 393.701 757.867 388.724C759.392 386.155 761.101 383.274 762.463 380.21C762.963 376.71 758.514 373.416 756.463 373.71C756.02 374.194 755.588 374.669 755.166 375.131L755.148 375.151C748.733 382.188 744.756 386.551 742.963 383.71ZM599.463 282.71C600.175 267.722 606.696 248.549 621.463 251.21C634.791 253.611 636.822 269.195 635.963 282.71C635.029 297.413 629.018 315.995 614.463 313.71C601.177 311.624 598.825 296.144 599.463 282.71ZM379.463 238.21C378.792 282.592 379.79 301.56 389.463 301.71V238.21C389.463 229.71 379.614 228.21 379.463 238.21ZM456.963 241.71C442.391 239.958 436.478 258.533 436.463 273.21C436.45 285.787 439.028 299.824 451.463 301.71C465.132 303.783 471.271 286.984 472.463 273.21C473.645 259.551 470.575 243.347 456.963 241.71ZM722.291 813.045L722.298 813.142V813.143C722.167 811.155 722.038 809.187 721.91 807.239C722.03 809.067 722.151 810.912 722.274 812.774L722.291 813.045Z" fill="black"/>
<path d="M456.463 455.21C452.463 448.71 456.463 443.71 464.463 448.71C500.443 467.013 521.776 467.119 561.463 451.21C569.645 447.93 573.963 451.71 568.963 459.71C545.463 484.71 474.963 479.21 456.463 455.21Z" fill="black"/>
<path fill-rule="evenodd" clip-rule="evenodd" d="M142.971 515.106C142.967 515.091 142.963 515.076 142.959 515.061L142.971 515.106Z" fill="black"/>
<path id="middle-hand" d="M183.465 602.023C187.433 708.335 192.8 759.747 213.465 822.523C234.871 889.661 315.45 879.638 358.934 827C361.5 808 366.5 790 366.5 776C355.2 753.557 345.787 743.809 326.145 729L327.965 735.523C327.046 735.89 327.208 740.382 327.408 745.914C327.752 755.429 328.207 768.023 323.465 768.023C318.017 770.142 309.087 732.317 298.007 685.384C290.784 654.787 282.647 620.319 273.965 590.523C273.762 589.913 272.197 589.915 270.292 589.917C267.509 589.921 264.002 589.925 262.965 588.023C260.767 583.993 263.974 581.33 275.465 576.023C292.066 566.213 299.841 548.432 309.317 526.761C312.399 519.713 315.661 512.254 319.465 504.523C333.376 480.535 340.282 468.126 337.965 463.023C333.965 454.523 318.001 457.523 305.465 470.523C301.354 474.785 298.959 478.399 296.882 481.534C292.136 488.694 289.049 493.351 270.965 497.523C244.265 501.241 236.526 528.261 231.844 544.61C229.6 552.448 228.057 557.833 225.465 557.023C209.965 552.179 228.465 491.525 274.465 481.023C274.846 475.038 275.225 469.227 275.592 463.603C279.541 403.063 282.078 364.179 270.465 364.023C256.948 362.669 252.717 394.85 245.965 460.023C237.142 460.023 229.061 462.483 223.227 464.259C217.488 466.005 213.924 467.09 213.965 464.523C214.545 459.618 218.295 456.711 232.465 451.023C225.999 381.643 222.154 345.743 210.465 347.023C192.978 347.023 197.022 384.496 200.452 416.285C203.005 439.942 205.218 460.451 197.965 460.023C191.041 461.694 187.651 441.734 184.094 420.786C180.202 397.865 176.108 373.761 166.965 375.523C154.114 377.998 158.892 415.305 162.506 443.515C164.731 460.889 166.514 474.812 163.465 475.023C156.209 475.523 151.082 458.622 146.016 441.922C140.957 425.248 135.96 408.774 128.965 410.023C117.546 414.215 127.053 451.939 142.93 514.946L142.935 514.965L142.95 515.023L142.959 515.061L142.971 515.106C143.625 517.702 144.29 520.341 144.965 523.023C155.339 566.634 162.978 584.376 183.465 591.023C187.675 594.878 187.074 597.343 183.465 602.023Z" fill="#C2C0BC"/>
<path id="middle-hand" d="M293.465 392.526C296.465 331.025 250.965 329.025 240.965 392.526C237.965 309.523 191.965 316.523 184.465 364.023C165.965 348.023 143.965 360.523 144.466 396.523C96.4425 384.029 106.345 425.802 121.324 488.989C125.528 506.723 130.131 526.142 133.966 546.523C139.455 578.247 146.878 590.589 166.966 604.023C169.466 869.023 236.466 940.023 358.465 850.523L362.465 822.523C361.318 824.047 360.14 825.54 358.934 827C315.45 879.638 234.871 889.661 213.465 822.523C192.8 759.747 187.433 708.335 183.465 602.023C187.074 597.343 187.675 594.878 183.465 591.023C162.978 584.376 155.339 566.634 144.965 523.023C144.29 520.341 143.625 517.702 142.971 515.106L142.959 515.061L142.95 515.023L142.935 514.965L142.93 514.946C127.053 451.939 117.546 414.215 128.965 410.023C135.96 408.774 140.957 425.248 146.016 441.922C151.082 458.622 156.209 475.523 163.465 475.023C166.514 474.812 164.731 460.889 162.506 443.515C158.892 415.305 154.114 377.998 166.965 375.523C176.108 373.761 180.202 397.865 184.094 420.786C187.651 441.734 191.041 461.694 197.965 460.023C205.218 460.451 203.005 439.942 200.452 416.285C197.022 384.496 192.978 347.023 210.465 347.023C222.154 345.743 225.999 381.643 232.465 451.023C218.295 456.711 214.545 459.618 213.965 464.523C213.924 467.09 217.488 466.005 223.227 464.259C229.061 462.483 237.142 460.023 245.965 460.023C252.717 394.85 256.948 362.669 270.465 364.023C282.078 364.179 279.541 403.063 275.592 463.603C275.225 469.227 274.846 475.038 274.465 481.023C228.465 491.525 209.965 552.179 225.465 557.023C228.057 557.833 229.6 552.448 231.844 544.61C236.526 528.261 244.265 501.241 270.965 497.523C289.049 493.351 292.136 488.694 296.882 481.534C298.959 478.399 301.354 474.785 305.465 470.523C318.001 457.523 333.965 454.523 337.965 463.023C340.282 468.126 333.376 480.535 319.465 504.523C315.661 512.254 312.399 519.713 309.317 526.761C299.841 548.432 292.066 566.213 275.465 576.023C263.974 581.33 260.767 583.993 262.965 588.023C264.002 589.925 267.509 589.921 270.292 589.917C272.197 589.915 273.762 589.913 273.965 590.523C282.647 620.319 290.784 654.787 298.007 685.384C309.087 732.317 318.017 770.142 323.465 768.023C328.207 768.023 327.752 755.429 327.408 745.914C327.208 740.382 327.046 735.89 327.965 735.523L326.145 729L321.965 714.023C320.925 708.357 320.104 705.341 318.465 700.523L311.965 677.025L288.465 586.525C308.313 576.449 317.667 552.014 326.414 529.164C331.99 514.597 337.32 500.674 344.965 491.525C375.465 455.025 331.965 417.025 293.465 461.025V392.526Z" fill="black"/>
<path fill-rule="evenodd" clip-rule="evenodd" d="M73.2217 549.164C73.2147 549.15 73.2077 549.136 73.2007 549.122L73.2217 549.164Z" fill="#FF0000"/>
<path id="left-hand" d="M142.543 408.369C138.645 344.204 183.509 336.366 193.814 397.072L208.553 463.967C236.683 412.713 287.341 440.462 265.41 482.67C259.913 493.25 257.704 507.993 255.393 523.419C251.767 547.616 247.89 573.491 230.676 587.602L273.099 670.925L284.503 692.474C287.141 696.826 288.592 699.595 290.826 704.905L298.235 718.829L301.312 724.61C300.493 725.167 301.618 729.518 303.004 734.878C305.387 744.095 308.542 756.296 303.911 757.317C299.046 760.558 282.186 725.541 261.267 682.092C247.629 653.766 232.266 621.856 217.375 594.626C217.046 594.075 215.518 594.414 213.659 594.826C210.942 595.428 207.517 596.186 206.095 594.552C203.081 591.089 205.64 587.799 215.72 580.143C229.821 566.991 233.588 547.954 238.179 524.752C239.672 517.205 241.252 509.218 243.304 500.85C251.728 474.43 255.801 460.826 252.44 456.342C246.705 448.901 231.76 455.266 222.316 470.659C219.219 475.707 217.657 479.751 216.303 483.259C213.209 491.273 211.196 496.486 194.434 504.451C169.159 513.827 167.416 541.879 166.362 558.853C165.856 566.99 165.509 572.581 162.803 572.348C146.624 570.953 151.639 507.739 194.301 487.584C193.386 481.658 192.505 475.901 191.653 470.33C182.483 410.358 176.593 371.839 165.219 374.186C151.727 375.772 154.52 408.11 161.95 473.209C153.334 475.107 145.971 479.248 140.656 482.238C135.428 485.179 132.18 487.005 131.668 484.489C131.179 479.574 134.216 475.928 146.83 467.324C125.586 400.961 114.106 366.73 102.966 370.495C85.8892 374.258 97.9018 409.983 108.092 440.289C115.676 462.842 122.25 482.394 115.074 483.537C108.672 486.659 101.067 467.896 93.0856 448.204C84.3521 426.658 75.1682 404 66.6178 407.688C54.601 412.87 67.2951 448.275 76.8938 475.047C82.8054 491.535 87.5429 504.748 84.6104 505.61C77.6326 507.66 68.9886 492.258 60.4475 477.039C51.9194 461.844 43.4938 446.831 36.9318 449.556C26.6828 456.107 44.0842 490.902 73.1479 549.017L73.1568 549.034L73.1834 549.088L73.2007 549.122L73.2217 549.164C74.4193 551.559 75.6366 553.993 76.8725 556.466C96.3876 596.823 107.666 612.506 129.103 614.589C134.044 617.448 133.987 619.984 131.47 625.331C158.222 728.299 174.526 777.351 208.215 834.21C244.163 896.197 312.244 861.024 352.424 807C352.854 806.422 353.28 805.843 353.703 805.261L372.703 776.261L369.5 812L355.844 830.353C255.961 944.008 175.253 889.088 115.788 630.834C93.2801 622.038 83.375 611.583 71.1884 581.782C63.0575 562.705 54.383 544.73 46.4619 528.317C18.2372 469.833 -0.422011 431.17 49.1651 433.037C40.9289 397.988 59.7237 381.047 81.2333 392.691C78.3364 344.69 121.753 327.956 142.543 408.369Z" fill="black"/>
<path id="left-hand" d="M131.47 625.331C158.222 728.299 174.526 777.351 208.215 834.21C244.163 896.197 312.244 861.024 352.424 807C354.812 795.054 355.467 788.307 356.5 776.261C347.5 752 318 726.5 298.235 718.829L301.312 724.61C300.493 725.167 301.618 729.518 303.004 734.878C305.387 744.095 308.542 756.296 303.911 757.317C299.046 760.558 282.186 725.541 261.267 682.092C247.629 653.766 232.266 621.856 217.375 594.626C217.046 594.075 215.518 594.414 213.659 594.826C210.942 595.428 207.517 596.186 206.095 594.552C203.081 591.089 205.64 587.799 215.72 580.143C229.821 566.991 233.588 547.954 238.179 524.752C239.672 517.205 241.252 509.218 243.304 500.85C251.728 474.43 255.801 460.826 252.44 456.342C246.705 448.901 231.76 455.266 222.316 470.659C219.219 475.707 217.657 479.751 216.303 483.259C213.209 491.273 211.196 496.486 194.434 504.451C169.159 513.827 167.416 541.879 166.362 558.853C165.856 566.99 165.509 572.581 162.803 572.348C146.624 570.953 151.639 507.739 194.301 487.584C193.386 481.658 192.505 475.901 191.653 470.33C182.483 410.358 176.593 371.839 165.219 374.186C151.727 375.772 154.52 408.11 161.95 473.209C153.334 475.107 145.971 479.248 140.656 482.238C135.428 485.179 132.18 487.005 131.668 484.489C131.179 479.574 134.216 475.928 146.83 467.324C125.586 400.961 114.106 366.73 102.966 370.495C85.8892 374.258 97.9018 409.983 108.092 440.289C115.676 462.842 122.25 482.394 115.074 483.537C108.672 486.659 101.067 467.896 93.0856 448.204C84.3521 426.658 75.1682 404 66.6178 407.688C54.601 412.87 67.2951 448.275 76.8938 475.047C82.8054 491.535 87.5429 504.748 84.6104 505.61C77.6326 507.66 68.9886 492.258 60.4475 477.039C51.9194 461.844 43.4938 446.831 36.9318 449.556C26.6828 456.107 44.0842 490.902 73.1479 549.017L73.1568 549.034L73.1834 549.088L73.2007 549.122L73.2217 549.164C74.4193 551.559 75.6366 553.993 76.8725 556.466C96.3876 596.823 107.666 612.506 129.103 614.589C134.044 617.448 133.987 619.984 131.47 625.331Z" fill="#C2C0BC"/>
<path fill-rule="evenodd" clip-rule="evenodd" d="M179.454 498.097C179.452 498.081 179.451 498.066 179.449 498.05L179.454 498.097Z" fill="#60BA1C"/>
<path id="right-hand" fill-rule="evenodd" clip-rule="evenodd" d="M294.74 391.618C314.16 330.338 358.844 339.146 346.645 399.499L336.362 467.222C381.031 429.501 418.333 473.601 382.699 505.108C373.767 513.006 366.408 525.97 358.708 539.535C346.629 560.813 333.713 583.566 312.578 590.549L322.225 683.551L325.123 707.759C326.021 712.768 326.38 715.873 326.557 721.631L328.677 739L329.261 743.788C328.297 744.014 327.783 748.478 327.15 753.978C326.062 763.436 324.621 775.956 319.933 775.244C314.228 776.521 311.079 737.784 307.17 689.72C304.622 658.385 301.752 623.086 297.641 592.325C297.532 591.692 295.984 591.458 294.101 591.175C291.349 590.76 287.881 590.238 287.141 588.201C285.573 583.887 289.143 581.736 301.301 578.214C319.186 571.008 329.543 554.596 342.165 534.593C346.27 528.087 350.615 521.202 355.537 514.13C372.892 492.502 381.582 481.271 380.057 475.878C377.379 466.873 361.145 467.443 346.8 478.414C342.096 482.011 339.185 485.224 336.661 488.011C330.894 494.378 327.142 498.519 308.637 499.928C281.682 499.595 269.974 525.148 262.891 540.608C259.495 548.02 257.162 553.113 254.72 551.923C240.123 544.807 267.519 487.618 314.575 484.141C315.85 478.281 317.097 472.593 318.304 467.088C331.297 407.826 339.643 369.764 328.185 367.866C315.024 364.498 306.01 395.68 289.55 459.1C280.827 457.775 272.468 458.994 266.434 459.874C260.498 460.74 256.811 461.277 257.237 458.745C258.548 453.983 262.691 451.671 277.554 448.175C281.578 378.611 283.165 342.541 271.417 342.051C254.128 339.426 252.501 377.082 251.12 409.025C250.092 432.797 249.201 453.406 242.094 451.894C234.998 452.507 234.643 432.264 234.271 411.019C233.864 387.773 233.436 363.329 224.131 363.698C211.055 364.216 210.178 401.818 209.515 430.25C209.107 447.761 208.779 461.794 205.733 461.545C198.485 460.95 195.953 443.471 193.451 426.2C190.953 408.955 188.485 391.917 181.383 392.102C169.464 394.532 173.199 433.256 179.438 497.933L179.44 497.952L179.446 498.012L179.449 498.05L179.454 498.097C179.711 500.762 179.972 503.471 180.237 506.223C183.946 550.897 188.835 569.585 208.092 579.232C211.676 583.676 210.711 586.022 206.441 590.108C194.404 695.811 191.992 747.445 202.998 812.613C214.389 884.133 290.906 875.452 347.998 838.5L344.998 861C210.945 931.17 152.517 851.98 189.829 589.608C171.985 573.311 166.499 559.995 165.835 527.806C165.103 507.081 163.467 487.19 161.973 469.026C156.65 404.306 153.131 361.52 198.735 381.082C203.644 345.415 227.271 336.359 243.159 354.955C257.705 309.119 304.235 309.105 294.74 391.618Z" fill="black"/>
<path id="right-hand" d="M202.998 812.613C214.389 884.133 290.906 875.452 347.998 838.5L356.498 776L328.677 739L329.261 743.788C328.297 744.014 327.783 748.478 327.15 753.978C326.062 763.436 324.621 775.956 319.933 775.244C314.228 776.521 311.079 737.784 307.17 689.72C304.622 658.385 301.752 623.086 297.641 592.325C297.532 591.692 295.984 591.458 294.101 591.175C291.349 590.76 287.881 590.238 287.141 588.201C285.573 583.887 289.143 581.736 301.301 578.214C319.186 571.008 329.543 554.596 342.165 534.593C346.27 528.087 350.615 521.202 355.537 514.13C372.892 492.502 381.582 481.271 380.057 475.878C377.379 466.873 361.145 467.443 346.8 478.414C342.096 482.011 339.185 485.224 336.661 488.011C330.894 494.378 327.142 498.519 308.637 499.928C281.682 499.595 269.974 525.148 262.891 540.608C259.495 548.02 257.162 553.113 254.72 551.923C240.123 544.807 267.519 487.618 314.575 484.141C315.85 478.281 317.097 472.593 318.304 467.088C331.297 407.826 339.643 369.764 328.185 367.866C315.024 364.498 306.01 395.68 289.55 459.1C280.827 457.775 272.468 458.994 266.434 459.874C260.498 460.74 256.811 461.277 257.237 458.745C258.548 453.983 262.691 451.671 277.554 448.175C281.578 378.611 283.165 342.541 271.417 342.051C254.128 339.426 252.501 377.082 251.12 409.025C250.092 432.797 249.201 453.406 242.094 451.894C234.998 452.507 234.643 432.264 234.271 411.019C233.864 387.773 233.436 363.329 224.131 363.698C211.055 364.216 210.178 401.818 209.515 430.25C209.107 447.761 208.779 461.794 205.733 461.545C198.485 460.95 195.953 443.471 193.451 426.2C190.953 408.955 188.485 391.917 181.383 392.102C169.464 394.532 173.199 433.256 179.438 497.933L179.44 497.952L179.446 498.012L179.449 498.05L179.454 498.097C179.711 500.762 179.972 503.471 180.237 506.223C183.946 550.897 188.835 569.585 208.092 579.232C211.676 583.676 210.711 586.022 206.441 590.108C194.404 695.811 191.992 747.445 202.998 812.613Z" fill="#C2C0BC"/>
</svg>
